<?xml version="1.0" encoding="utf-8"?>
<!-- Generator: Adobe Illustrator 23.0.1, SVG Export Plug-In . SVG Version: 6.00 Build 0)  -->
<svg version="1.1" xmlns="http://www.w3.org/2000/svg" xmlns:xlink="http://www.w3.org/1999/xlink" x="0px" y="0px"
	 viewBox="0 0 149.5 62.5" style="enable-background:new 0 0 149.5 62.5;" xml:space="preserve">
<style type="text/css">
	.st0{display:none;}
	.st1{display:inline;}
	.st2{fill:#FFFFFF;}
</style>
<g id="HBO" class="st0">
	<g class="st1">
		<g>
			<polygon class="st2" points="29.17,24.23 18.95,24.23 18.95,2.56 2.78,2.56 2.78,60.65 18.95,60.65 18.95,38.14 29.17,38.14 
				29.17,60.65 44.96,60.65 44.96,2.56 29.17,2.56 			"/>
			<path class="st2" d="M117.35,1.59c-16.37,0-24.65,11.91-26.65,16.75c0-7.18-7.18-15.78-15.53-15.78H48.19v58.1h25.1
				c10.22,0,17.4-8.74,17.4-16.37c2.26,4.72,10.29,16.62,26.65,16.62c16.18,0,29.37-13.46,29.37-29.82
				C146.72,14.46,133.53,1.59,117.35,1.59z M71.29,47.13h-8.02V37.3h8.02c2.33,0,4.21,2.26,4.21,4.85
				C75.5,44.87,73.62,47.13,71.29,47.13z M71.29,25.2h-8.02V15.5h8.02c2.33,0,4.21,2.27,4.21,4.85C75.5,22.94,73.62,25.2,71.29,25.2
				z M87.98,35.55c-1.3-1.88-4.2-4.14-6.08-4.46c1.88-0.13,4.92-2.27,6.08-3.56C87.53,29.08,87.53,34,87.98,35.55z M117.35,45.9
				c-8.15,0-14.75-6.6-14.75-14.81c0-8.15,6.6-14.75,14.75-14.75c8.15,0,14.75,6.6,14.75,14.75C132.1,39.31,125.5,45.9,117.35,45.9z
				"/>
		</g>
		<path class="st2" d="M117.35,19.51c-6.47,0-11.64,5.11-11.64,11.58c0,6.47,5.17,11.64,11.64,11.64c6.28,0,11.58-5.17,11.58-11.64
			C128.93,24.62,123.63,19.51,117.35,19.51z"/>
	</g>
</g>
<g id="Suntory" class="st0">
	<g id="layer1" class="st1">
		<g id="g47705">
			<path id="path47707" class="st2" d="M50.92,40.58H44.8c0.22-1.96,0.29-5.1,0.29-8.13v-2.69c0-3.03-0.07-6.38-0.44-8.12h3.49
				c1.3,0,1.95,0.44,2.18,1.3c1.53-1.14,3.39-1.76,5.3-1.74c6.52,0,7.33,3.92,7.33,6.82v5.31c-0.03,2.42,0.08,4.85,0.34,7.26h-3.59
				c-1.67,0-2.46-1.02-2.46-2.69V30.2c0-3.06-0.29-5.37-4.08-5.37c-0.84-0.01-1.68,0.14-2.46,0.44v6.81
				C50.69,34.46,50.69,38.61,50.92,40.58 M32.89,21.63h6.1c-0.21,1.95-0.28,5.1-0.28,8.12v2.69c0,3.06,0.14,6.39,0.43,8.13h-3.47
				c-1.31,0-1.96-0.44-2.19-1.31c-1.53,1.15-3.38,1.76-5.29,1.75c-6.53,0-7.33-3.92-7.33-6.83v-5.3c0.02-2.42-0.1-4.85-0.36-7.26
				h3.62c1.67,0,2.46,1.02,2.46,2.69v7.7c0,3.06,0.3,5.37,4.08,5.37c0.84,0.01,1.68-0.14,2.47-0.44v-6.83c0-2.4-0.08-6.54-0.22-8.5
				 M15.64,26.13c-1.09-1.02-3.06-1.6-5.1-1.6c-1.45,0-3.19,0.22-3.19,1.89c0,1.23,1.45,1.8,3.63,2.61
				c2.54,0.95,5.51,2.18,5.51,5.73c0,5.67-6.02,6.39-8.85,6.39C6.08,41.19,4.52,41.02,3,40.65c-1.31-0.36-1.6-0.94-1.6-2.69v-2.1
				c1.46,1.02,3.78,1.52,5.66,1.52c2.32,0,3.48-0.65,3.48-2.1c0-1.38-1.23-1.89-4.5-3.12c-2.25-0.87-4.64-2.04-4.64-5.31
				c0-4.79,5.44-6.03,8.71-6.03c1.56-0.04,3.11,0.24,4.56,0.81c0.87,0.44,0.95,0.94,0.95,2.1L15.64,26.13z"/>
		</g>
		<g id="g47709">
			<path id="path47711" class="st2" d="M89.96,31c0,4.36,1.52,6.31,4.5,6.31c2.9,0,4.35-1.96,4.35-6.31s-1.44-6.38-4.35-6.38
				C91.47,24.62,89.96,26.66,89.96,31 M104.4,30.93c0,6.31-3.63,10.23-10.16,10.23c-6.52,0-9.86-3.57-9.86-10.02
				c0-6.39,3.56-10.09,10.09-10.09c6.53,0,9.94,3.48,9.94,9.86 M80.53,21.64c1.14,0,2.28-0.07,3.42-0.22
				c-0.24,0.94-0.53,1.86-0.88,2.76c-0.52,1.09-1.18,1.43-3.71,1.43h-2.18v6.46c0,2.38,0.06,6.53,0.29,8.5h-6.17
				c0.22-1.96,0.29-6.12,0.29-8.5v-6.46H69.7c-1.67,0-3.12,0.22-3.84,0.65v-2.54c0-1.45,0.29-2.1,2.46-2.1L80.53,21.64z"/>
		</g>
		<g id="g47713">
			<path id="path47715" class="st2" d="M140.46,35.07v0.44c-0.02,1.7,0.08,3.41,0.29,5.1h-6.18c0.21-1.69,0.31-3.39,0.29-5.1v-0.44
				c0-0.8-0.21-1.59-0.86-2.9c-1.38-2.76-4.42-8.06-7.04-10.46c1.35-0.15,2.72-0.22,4.08-0.21c2.38,0,3.12,0.8,3.7,1.74
				c1.18,2.1,2.24,4.25,3.19,6.46c0.93-2.18,1.97-4.32,3.12-6.39c0.58-0.87,1.38-1.81,3.42-1.81c1.21,0,2.43,0.08,3.63,0.21
				c-1.89,1.67-5.44,7.55-6.9,10.24c-0.54,0.95-0.79,2.03-0.73,3.11 M124.95,41.67c-2.33,0-2.83-0.87-4.28-2.98
				c-0.81-1.16-3.34-5.44-3.78-6.32c-0.21-0.43-0.29-0.8,0.15-1.02c1.89-1.1,2.4-2.25,2.4-3.56c0-1.53-0.66-2.83-2.83-2.83
				c-0.69-0.01-1.37,0.06-2.04,0.23v6.89c0,2.38,0.07,6.53,0.29,8.5h-5.94c0.22-1.89,0.3-5.1,0.3-8.13v-2.69
				c0-3.06-0.08-6.38-0.44-8.13c2.83,0,6.96-0.14,8.78-0.14c3.19,0,7.48,0.65,7.48,5.44c0.03,1.87-0.94,3.61-2.54,4.59
				c-0.29,0.21-0.29,0.36,0,0.79c2.04,3.06,4.5,6.46,6.75,8.86C127.82,41.47,126.39,41.64,124.95,41.67"/>
		</g>
	</g>
</g>
<g id="Furama" class="st0">
	<g class="st1">
		<path class="st2" d="M32.11,42.54h6.96v-0.7h-1.6V28.77c2.44,0,2.76,2.51,2.79,5.49h0.49V23.01h-0.49
			c-0.11,2.82-0.35,5.07-2.79,5.07V16.01h0.65c3.57,0,4.74,2.75,4.95,7.23h0.57l-0.16-7.93H32.11v0.7h1.3v25.83h-1.3V42.54z"/>
		<path class="st2" d="M51.71,35.73c0,4.37,1.65,7.35,5.25,7.35c4.01,0,5.33-2.71,5.33-7.35V17.32c0-1.04,0.35-1.31,1.35-1.31v-0.7
			h-3.47v0.7c1.08,0,1.46,0.27,1.46,1.74v18.21c0,3.36-0.95,5.96-3.17,5.96c-1.98,0-2.71-1.89-2.71-4.91v-21h1.41v-0.7h-6.82v0.7
			h1.35V35.73z"/>
		<path class="st2" d="M75.85,16.01h0.79c2.68,0,2.79,2.51,2.79,5.68c0,5.14-1.06,5.72-3.57,5.92V16.01z M70.49,42.54h6.74v-0.7
			h-1.38V28.31c2.36,0,2.79,1.43,2.84,3.67l0.11,5.14c0.05,2.59,0.6,5.72,3.38,5.72c1.11,0,2.17-0.39,2.57-0.7l-0.22-0.73
			c-0.19,0.12-0.41,0.27-0.6,0.27c-0.65,0-0.97-0.5-0.97-2.94v-1.97c0-6.42-1.25-8.27-5.55-8.74v-0.08
			c3.03-0.23,6.39-1.82,6.39-6.46c0-4.6-2.95-6.19-6.17-6.19h-7.15v0.7h1.3v25.83h-1.3V42.54z"/>
		<path class="st2" d="M97.13,33.64h-3.65l1.76-9.55h0.06L97.13,33.64z M90.04,42.54h3.6v-0.7c-0.38,0-1.43-0.04-1.43-0.89
			c0-0.35,0.22-1.55,0.51-3.05l0.65-3.56h3.9l1.38,7.5h-1.3v0.7h6.58v-0.7h-1.19l-4.98-26.53h-1.3l-4.82,24.9
			c-0.22,1.16-0.68,1.62-1.6,1.62V42.54z"/>
		<path class="st2" d="M109.69,42.54h3.55v-0.7c-1.22,0-1.46-0.31-1.46-3.63V16.47h0.05l4.55,26.06h0.89l4.47-25.83h0.05v25.13
			h-1.46v0.7h6.66v-0.7h-1.3V16.01h1.3v-0.7h-5.47l-3,16.9h-0.05l-3-16.9h-5.63v0.7h1.3v22.2c0,3.33-0.19,3.63-1.43,3.63V42.54z"/>
		<path class="st2" d="M139.52,33.64h-3.65l1.76-9.55h0.05L139.52,33.64z M132.42,42.54h3.6v-0.7c-0.38,0-1.43-0.04-1.43-0.89
			c0-0.35,0.22-1.55,0.51-3.05l0.65-3.56h3.9l1.38,7.5h-1.3v0.7h6.58v-0.7h-1.19l-4.98-26.53h-1.3l-4.82,24.9
			c-0.22,1.16-0.68,1.62-1.6,1.62V42.54z"/>
		<path class="st2" d="M25.27,15v7.76h-6.33c0,0-2.38-0.33-2.38,4.24c0,0,1.24-2.29,2.43-2.29h6.09v4.91h-6.57
			c0,0-1.91,0.1-1.91,1.38l0,15.72h130.71v0.78l-136.45,0v-0.57v-0.21l0-15.72c0-1.28-1.91-1.38-1.91-1.38H2.38v-4.91h6.09
			c1.19,0,2.43,2.29,2.43,2.29c0-4.57-2.38-4.24-2.38-4.24H2.19V15h6.52c0.76,0,1.71,0.52,3.19,2.29c1.48,1.77,1.31,3.32,1.31,3.32
			l0,26.11h0.98l-0.02-25.58c0,0-0.1-2.09,1.38-3.86c1.48-1.77,2.44-2.29,3.19-2.29H25.27z"/>
	</g>
</g>
<g id="Isetan" class="st0">
	<g class="st1">
		<path class="st2" d="M39.25,57.1c-0.48-0.09-0.97-0.16-1.44-0.29c-3.93-1-6.34-3.56-7.46-7.38c-0.32-1.09-0.38-2.25-0.56-3.37
			c-0.03-0.19,0.01-0.32,0.22-0.39c2.07-0.75,4.13-1.51,6.2-2.27c0.02-0.01,0.05,0,0.11-0.01c0.04,0.48,0.06,0.97,0.11,1.45
			c0.12,1.35,0.33,2.69,0.9,3.94c0.44,0.98,1.06,1.81,2.15,2.14c0.8,0.24,1.62,0.22,2.4-0.03c1-0.32,1.45-1.14,1.66-2.1
			c0.31-1.39,0.1-2.7-0.69-3.92c-0.9-1.37-2.01-2.56-3.22-3.64c-1.26-1.12-2.56-2.2-3.83-3.31c-2.18-1.91-3.95-4.12-4.95-6.88
			c-2.21-6.05,1.68-11.38,6.95-12.66c4.25-1.03,8.12,0.76,10.32,4.7c0.35,0.62,0.69,1.25,1.02,1.88c0.4,0.76,0.86,1.47,1.7,1.98
			c-2.36,0.89-4.65,1.76-6.89,2.61c-0.26-0.91-0.46-1.81-0.8-2.66c-0.24-0.59-0.61-1.16-1.03-1.64c-0.75-0.84-1.71-1.2-2.83-0.86
			c-1.19,0.36-1.95,1.18-2.16,2.38c-0.3,1.72,0.27,3.25,1.29,4.62c0.97,1.29,2.23,2.25,3.53,3.17c1.56,1.1,3.12,2.2,4.46,3.58
			c1.5,1.54,2.79,3.22,3.52,5.27c2.06,5.77-1.75,12.38-7.77,13.5c-0.32,0.06-0.65,0.12-0.97,0.18C40.53,57.1,39.89,57.1,39.25,57.1z
			"/>
		<path class="st2" d="M29.32,56.04c-9.49,0-18.86,0-28.23,0c0.01-0.03,0-0.07,0.02-0.07c1.9-1.11,3.02-2.85,3.85-4.82
			c0.82-1.95,1.29-4,1.49-6.1c0.1-1.04,0.14-2.09,0.15-3.13c0.01-10.33,0-20.67,0.01-31c0-0.88-0.13-1.74-0.44-2.57
			C5.72,7.16,5.09,6.11,3.92,5.4c7.52,0,14.99,0,22.39,0c-0.35,0.34-0.79,0.68-1.12,1.1c-1.01,1.29-1.45,2.78-1.45,4.4
			c0,10.79-0.06,21.58,0.03,32.37c0.03,3.33,0.79,6.56,2.43,9.52C26.94,54.12,27.91,55.23,29.32,56.04z M15.2,9.18
			c-2.82-0.01-5.06,2.19-5.07,4.97c-0.01,2.82,2.21,5.04,5.03,5.05c2.82,0.01,5.05-2.19,5.07-4.98C20.25,11.41,18.03,9.18,15.2,9.18
			z"/>
		<path class="st2" d="M139.78,35.71c0-5.68,0-11.36,0-17.07c2.89,0,5.74,0,8.63,0c-0.95,0.83-1.07,1.96-1.11,3.09
			c-0.05,1.66-0.04,3.32-0.04,4.99c0,9.53,0,19.07,0,28.6c0,0.12-0.01,0.25,0,0.37c0.03,0.29-0.09,0.38-0.38,0.37
			c-2.24-0.01-4.48-0.01-6.72,0c-0.31,0-0.42-0.11-0.5-0.39c-1.65-5.44-3.31-10.88-4.97-16.32c-0.04-0.12-0.08-0.25-0.12-0.37
			c-0.03,0.01-0.06,0.01-0.09,0.02c0,5.66,0,11.33,0,17.02c-2.48,0-4.91,0-7.38,0c0-12.45,0-24.9,0-37.41c0.14,0,0.27,0,0.4,0
			c2.19,0,4.38,0.01,6.58-0.01c0.31,0,0.44,0.09,0.53,0.39c1.66,5.47,3.33,10.93,5,16.39c0.03,0.11,0.08,0.22,0.11,0.33
			C139.74,35.71,139.76,35.71,139.78,35.71z"/>
		<path class="st2" d="M98.89,56.01c2.06-12.47,4.11-24.91,6.16-37.37c3.91,0,7.79,0,11.68,0c-0.93,1.31-0.63,2.78-0.43,4.19
			c0.4,2.85,0.9,5.68,1.36,8.52c0.43,2.67,0.87,5.34,1.3,8.01c0.46,2.81,0.9,5.63,1.36,8.44c0.43,2.64,0.86,5.29,1.29,7.93
			c0.02,0.09,0.02,0.19,0.04,0.33c-0.15,0-0.27,0-0.39,0c-2.28,0-4.56-0.01-6.84,0.01c-0.31,0-0.41-0.08-0.44-0.41
			c-0.22-2.04-0.47-4.08-0.71-6.12c-0.04-0.37-0.08-0.73-0.11-1.1c-0.02-0.2-0.11-0.29-0.33-0.29c-1.69,0.01-3.38,0.01-5.06,0
			c-0.21,0-0.3,0.07-0.32,0.29c-0.24,2-0.49,4-0.73,6.01c-0.05,0.44-0.11,0.88-0.16,1.32c-0.02,0.19-0.08,0.3-0.32,0.3
			c-2.39-0.01-4.78-0.01-7.17-0.01C99.03,56.05,99,56.03,98.89,56.01z M110.35,25.41c-0.04,0-0.07,0-0.11-0.01
			c-0.71,5.53-1.42,11.06-2.13,16.6c1.47,0,2.87,0,4.31,0C111.73,36.45,111.04,30.93,110.35,25.41z"/>
		<path class="st2" d="M75.75,18.62c-0.12,0.12-0.16,0.18-0.21,0.23c-0.76,0.58-1,1.41-1.03,2.31c-0.04,1.13-0.05,2.26-0.04,3.39
			c0,0.34-0.13,0.4-0.43,0.4c-3.35-0.01-6.7-0.01-10.05-0.01c-0.49,0-0.49,0-0.49,0.51c0,2.49,0.01,4.98-0.01,7.46
			c0,0.37,0.08,0.48,0.47,0.48c2.7-0.02,5.39-0.01,8.09-0.01c0.13,0,0.27,0,0.44,0c0,2.1,0,4.19,0,6.32c-2.98,0-5.96,0-8.97,0
			c0,3.36,0,6.66,0,10.01c3.66,0,7.3,0,10.96,0c0,2.12,0,4.21,0,6.34c-0.16,0-0.3,0-0.44,0c-5.84,0-11.68,0-17.51,0
			c-0.49,0-0.5,0-0.5-0.51c0-12.14,0-24.29,0-36.43c0-0.5,0-0.5,0.5-0.5c6.26,0,12.51,0,18.77,0
			C75.41,18.62,75.53,18.62,75.75,18.62z"/>
		<path class="st2" d="M99.36,18.64c-0.17,0.23-0.31,0.42-0.46,0.61c-0.56,0.72-0.81,1.54-0.82,2.44c-0.02,0.94-0.01,1.87-0.01,2.81
			c0,0.13,0,0.26,0,0.44c-0.18,0-0.33,0-0.47,0c-1.8,0-3.6,0-5.39,0c-0.55,0-0.55,0-0.55,0.54c0,9.99,0,19.98,0,29.96
			c0,0.18,0,0.37,0,0.58c-2.47,0-4.9,0-7.37,0c-0.01-0.18-0.03-0.36-0.03-0.53c0-9.93,0-19.85,0-29.78c0-0.12-0.01-0.25,0-0.37
			c0.03-0.3-0.09-0.4-0.4-0.4c-1.85,0.01-3.69,0.01-5.54,0.01c-0.14,0-0.29,0-0.45,0c0-2.12,0-4.2,0-6.3
			C85.02,18.64,92.15,18.64,99.36,18.64z"/>
	</g>
</g>
<g id="OCBC" class="st0">
	<g class="st1">
		<path class="st2" d="M5.81,42.2c6.36,0,12.65,0,18.95,0c0.02,0,0.04-0.05,0.1-0.13c-6.69-0.27-13.34-0.55-20-0.82
			c0-0.04,0-0.08,0-0.11c0.13,0,0.26,0,0.4,0c6.75,0,13.5,0,20.25,0c0.15,0,0.3-0.02,0.45-0.04c0-0.05-0.01-0.1-0.01-0.14
			c-7.35-0.34-14.7-0.69-22.05-1.03c0-0.02,0-0.03,0-0.05c0.12,0,0.24,0,0.36,0c2.79,0,5.58,0.02,8.38-0.01
			c2.47-0.02,4.87-0.41,7.11-1.48c2.55-1.23,4.16-3.24,4.6-6.06c0.61-3.87-1.93-7.62-5.74-8.61c-1.42-0.37-2.84-0.35-4.24,0.09
			c-0.11,0.03-0.3,0.01-0.37-0.07c-1.74-1.91-3.46-3.83-5.18-5.74c-0.01-0.02-0.02-0.04-0.03-0.06c5.37-3.36,14.35-3.26,19.89,3.55
			c5.56,6.84,4.3,16.88-2.75,22.15C19.12,48.74,10.37,47.02,5.81,42.2z"/>
		<path class="st2" d="M77.76,30.69c0.09,0.05,0.13,0.08,0.17,0.09c1.92,0.45,3.25,2.59,2.3,4.95c-0.55,1.37-1.62,2.19-2.96,2.71
			c-1.19,0.46-2.43,0.59-3.69,0.59c-1.6-0.01-3.2-0.04-4.81-0.07c-0.13,0-0.27-0.01-0.42-0.02c0-5.15,0-10.27,0-15.43
			c0.08-0.01,0.16-0.04,0.25-0.04c2.33-0.01,4.66-0.05,6.99,0.01c0.8,0.02,1.62,0.25,2.37,0.54c1.39,0.53,2.21,1.57,2.26,3.11
			c0.05,1.53-0.72,2.59-2,3.32C78.09,30.52,77.95,30.59,77.76,30.69z M72.23,34.21c0,0.54-0.01,1.07,0.01,1.61
			c0,0.09,0.12,0.26,0.19,0.26c0.69,0.02,1.39,0.04,2.07,0c0.31-0.02,0.63-0.14,0.92-0.29c0.72-0.36,1.03-0.96,0.97-1.76
			c-0.06-0.75-0.52-1.19-1.19-1.43c-0.9-0.34-1.85-0.26-2.79-0.25c-0.06,0-0.18,0.17-0.18,0.27C72.22,33.16,72.23,33.68,72.23,34.21
			z M72.26,26.21c0,1.23,0,2.35,0,3.5c0.41,0,0.79,0,1.17,0c0.17,0,0.34,0.01,0.5-0.03c0.42-0.09,0.86-0.16,1.26-0.32
			c0.72-0.3,1.06-0.95,0.99-1.7c-0.07-0.63-0.49-1.13-1.26-1.25C74.05,26.28,73.17,26.28,72.26,26.21z"/>
		<path class="st2" d="M44.57,23.15c1.2,0.04,2.37,0.21,3.48,0.67c1.67,0.68,2.89,1.85,3.52,3.54c0.9,2.41,0.94,4.86-0.11,7.23
			c-1.14,2.59-3.23,4.03-5.98,4.52c-1.51,0.27-3.02,0.17-4.49-0.26c-2.05-0.6-3.49-1.89-4.2-3.92c-0.72-2.05-0.83-4.16-0.16-6.24
			c0.98-3.06,3.17-4.78,6.29-5.37C43.47,23.22,44.02,23.21,44.57,23.15z M48.22,31.16c-0.1-0.64-0.15-1.29-0.3-1.92
			c-0.27-1.13-0.87-2.05-1.99-2.5c-2.03-0.82-4.53-0.14-5.34,2.4c-0.5,1.58-0.41,3.16,0.16,4.71c0.26,0.7,0.71,1.27,1.37,1.65
			c1.53,0.89,4.24,0.72,5.43-1.48C48.03,33.13,48.16,32.17,48.22,31.16z"/>
		<path class="st2" d="M108.12,30.7c0.18,0.06,0.28,0.09,0.37,0.11c1.62,0.48,2.65,1.98,2.51,3.66c-0.18,2.15-1.5,3.64-3.75,4.24
			c-0.93,0.25-1.88,0.32-2.83,0.31c-1.26-0.01-2.51-0.04-3.77-0.06c-0.2,0-0.4,0-0.63,0c0-5.17,0-10.3,0-15.45
			c0.07-0.01,0.14-0.04,0.21-0.04c2.06-0.01,4.12-0.04,6.19,0.01c0.65,0.02,1.31,0.19,1.93,0.41c1.38,0.5,2.23,1.47,2.34,2.98
			c0.12,1.63-0.63,2.79-2.02,3.58C108.51,30.52,108.36,30.59,108.12,30.7z M103.09,32.13c0,1.48,0,2.92,0,4.39
			c1.06,0.06,2.11,0.2,3.14-0.15c0.63-0.22,1.15-0.59,1.37-1.24c0.39-1.12,0.12-2.36-1.47-2.8
			C105.15,32.06,104.14,32.13,103.09,32.13z M103.09,29.92c0.95-0.02,1.9,0.09,2.81-0.21c0.25-0.08,0.5-0.2,0.72-0.34
			c0.71-0.48,0.92-1.19,0.82-2c-0.1-0.79-0.6-1.25-1.34-1.46c-1-0.28-2-0.1-3.01-0.08C103.09,27.21,103.09,28.55,103.09,29.92z"/>
		<path class="st2" d="M93.65,27c-1.12-0.32-2.24-0.48-3.38-0.42c-1.94,0.12-3.23,1.22-3.66,3.12c-0.25,1.13-0.22,2.27,0.07,3.4
			c0.45,1.7,1.7,2.68,3.48,2.8c1.2,0.09,2.36-0.11,3.55-0.47c0.09,0.63,0.18,1.24,0.27,1.85c0.05,0.35,0.11,0.71,0.13,1.07
			c0.01,0.09-0.09,0.26-0.17,0.28c-2.49,0.65-5,0.83-7.48-0.03c-2.15-0.75-3.47-2.29-4-4.48c-0.49-2.01-0.4-4.01,0.33-5.95
			c1-2.64,3.01-4.07,5.73-4.57c1.7-0.32,3.41-0.26,5.11,0.06c0.47,0.09,0.46,0.09,0.39,0.57C93.9,25.15,93.78,26.07,93.65,27z"/>
		<path class="st2" d="M65.26,27c-1.13-0.32-2.26-0.49-3.41-0.41c-2.11,0.13-3.51,1.45-3.78,3.55c-0.12,0.95-0.1,1.9,0.13,2.84
			c0.43,1.77,1.68,2.83,3.51,2.92c0.6,0.03,1.21,0.01,1.81-0.06c0.6-0.07,1.18-0.23,1.82-0.36c0.09,0.58,0.18,1.2,0.26,1.81
			c0.05,0.35,0.11,0.71,0.13,1.07c0.01,0.09-0.09,0.26-0.17,0.28c-2.42,0.63-4.86,0.82-7.29,0.04c-2.18-0.7-3.57-2.21-4.16-4.42
			c-0.52-1.98-0.45-3.96,0.23-5.89c0.96-2.74,3-4.24,5.8-4.76c1.7-0.32,3.41-0.25,5.11,0.06c0.46,0.09,0.46,0.09,0.39,0.57
			C65.51,25.15,65.39,26.07,65.26,27z"/>
		<path class="st2" d="M143.98,32.81c1.45,2.04,2.88,4.05,4.35,6.12c-0.18,0.01-0.28,0.02-0.39,0.02c-1,0-2-0.01-2.99,0.01
			c-0.25,0-0.4-0.07-0.54-0.29c-1.05-1.64-2.11-3.28-3.16-4.92c-0.07-0.11-0.14-0.22-0.28-0.31c0,1.82,0,3.63,0,5.48
			c-1,0-1.95,0-2.93,0c0-5.55,0-11.1,0-16.66c0.96,0,1.92,0,2.92,0c0,3.32,0,6.63,0,10.03c0.14-0.17,0.21-0.26,0.28-0.35
			c0.99-1.37,1.98-2.75,2.96-4.12c0.13-0.18,0.26-0.26,0.49-0.26c1.1,0.01,2.19,0.01,3.37,0.01
			C146.67,29.34,145.34,31.06,143.98,32.81z"/>
		<path class="st2" d="M17.76,36.35c-5.26,0-10.47,0-15.7,0c-0.92-2.62-1.12-5.28-0.6-8.05c0.95,0.34,1.87,0.67,2.78,0.99
			c1.45,0.52,2.91,1.04,4.37,1.55c0.24,0.08,0.33,0.19,0.33,0.45c0.01,1.65,0.48,3.15,1.47,4.49c0.06,0.08,0.12,0.16,0.19,0.24
			c0.01,0.01,0.04,0.02,0.02,0.01c-0.25-0.74-0.54-1.5-0.75-2.28c-0.21-0.79-0.21-1.61-0.12-2.46c0.16,0.05,0.28,0.07,0.39,0.11
			c2.43,0.85,4.86,1.71,7.29,2.56c0.25,0.09,0.35,0.2,0.34,0.48C17.74,35.06,17.76,35.68,17.76,36.35z"/>
		<path class="st2" d="M113.47,30.46c-0.1-0.84-0.19-1.64-0.3-2.51c0.84-0.17,1.65-0.37,2.47-0.49c1.25-0.18,2.5-0.21,3.74,0.07
			c1.87,0.42,2.78,1.53,2.79,3.45c0.02,2.11,0.01,4.21,0.01,6.32c0,0.53,0,1.05,0,1.61c-0.89,0-1.82,0-2.8,0
			c0.04-0.57,0.07-1.13,0.11-1.73c-0.06,0.04-0.09,0.06-0.1,0.08c-0.99,1.53-2.44,2.01-4.17,1.87c-0.31-0.02-0.62-0.08-0.92-0.18
			c-1.39-0.45-2.11-1.77-1.84-3.32c0.19-1.07,0.77-1.87,1.67-2.45c0.95-0.62,2.02-0.91,3.12-1.05c0.62-0.08,1.24-0.11,1.88-0.17
			c0-0.33,0.04-0.67-0.01-1c-0.13-0.85-0.72-1.28-1.75-1.34c-1.33-0.08-2.59,0.16-3.77,0.77C113.59,30.42,113.54,30.43,113.47,30.46
			z M119.15,33.94c-0.34,0-0.66-0.02-0.98,0c-0.73,0.06-1.45,0.14-2.1,0.52c-0.65,0.38-0.93,1.09-0.7,1.75
			c0.2,0.57,0.85,0.87,1.59,0.74C118.33,36.71,119.28,35.41,119.15,33.94z"/>
		<path class="st2" d="M127.97,38.93c-0.99,0-1.94,0-2.92,0c0-3.78,0-7.55,0-11.35c0.91,0,1.82,0,2.79,0
			c-0.04,0.64-0.07,1.27-0.11,1.94c0.09-0.12,0.16-0.21,0.22-0.31c0.84-1.19,2-1.8,3.44-1.86c0.47-0.02,0.95,0,1.4,0.1
			c1.31,0.27,2.13,1.22,2.29,2.6c0.04,0.32,0.07,0.65,0.07,0.97c0.01,2.52,0,5.04,0,7.57c0,0.1,0,0.2,0,0.32c-0.99,0-1.94,0-2.94,0
			c0-0.14,0-0.27,0-0.4c0-2.22,0-4.44,0-6.66c0-0.28-0.01-0.56-0.06-0.84c-0.16-0.98-0.85-1.44-1.82-1.22
			c-0.68,0.15-1.19,0.56-1.58,1.12c-0.54,0.77-0.78,1.63-0.79,2.56c-0.01,1.67,0,3.34,0,5.01
			C127.97,38.62,127.97,38.75,127.97,38.93z"/>
		<path class="st2" d="M3.69,22.75c2.21,1.37,4.38,2.71,6.51,4.03c-0.29,0.61-0.6,1.16-0.82,1.76c-0.21,0.58-0.33,1.2-0.51,1.87
			c-2.39-0.92-4.81-1.84-7.25-2.78C2.05,25.88,2.7,24.26,3.69,22.75z"/>
		<path class="st2" d="M10.65,26.34c-2.15-1.43-4.27-2.84-6.42-4.28c1.04-1.43,2.27-2.63,3.76-3.61c1.84,1.88,3.66,3.76,5.53,5.68
			C12.4,24.68,11.42,25.36,10.65,26.34z"/>
		<path class="st2" d="M17.76,33.76c-2.68-1.03-5.29-2.03-7.89-3.02c0.15-1.08,0.77-2.47,1.46-3.3c0.08,0.05,0.17,0.09,0.25,0.14
			c1.96,1.24,3.92,2.48,5.88,3.71c0.23,0.15,0.31,0.3,0.3,0.57C17.74,32.47,17.76,33.08,17.76,33.76z"/>
		<path class="st2" d="M2.24,36.9c1.53,0,3.01-0.01,4.48,0.01c0.13,0,0.29,0.13,0.37,0.24c0.35,0.53,0.83,0.66,1.45,0.65
			c1.97-0.04,3.94-0.02,6.01-0.02c-0.3,0.31-0.58,0.55-0.79,0.84c-0.41,0.57-0.93,0.73-1.63,0.71c-2.41-0.05-4.82-0.02-7.23-0.01
			c-0.21,0-0.33-0.04-0.43-0.26c-0.3-0.68-0.85-1.08-1.57-1.24c-0.23-0.05-0.38-0.13-0.44-0.37C2.42,37.28,2.33,37.12,2.24,36.9z"/>
		<path class="st2" d="M17.76,31.08c-2.07-1.37-4.08-2.7-6.13-4.06c0.25-0.25,0.46-0.52,0.73-0.71c0.6-0.41,1.22-0.78,1.84-1.17
			c0.15-0.09,0.27-0.08,0.41,0.06c1,1.01,2.01,2.01,3.01,3.03c0.07,0.07,0.14,0.19,0.14,0.28C17.76,29.34,17.76,30.17,17.76,31.08z"
			/>
	</g>
</g>
<g id="SATS" class="st0">
	<g class="st1">
		<path class="st2" d="M75.82,62.12c-0.7,0-1.41,0-2.11,0c-0.12-0.02-0.24-0.04-0.36-0.05c-1.05-0.1-2.11-0.15-3.15-0.3
			c-3.23-0.46-6.31-1.41-9.23-2.84c-4-1.96-7.45-4.64-10.29-8.07c-4.21-5.09-6.57-10.93-7.04-17.53c-0.03-0.46-0.06-0.93-0.1-1.39
			c0-0.46,0-0.92,0-1.37c0.02-0.15,0.04-0.3,0.05-0.44c0.05-1.77,0.27-3.53,0.65-5.26c1.2-5.54,3.71-10.41,7.6-14.53
			c5.4-5.73,12.03-8.99,19.87-9.79c3.46-0.35,6.9-0.13,10.28,0.67c5.65,1.34,10.58,4.01,14.71,8.08c5.47,5.39,8.54,11.93,9.19,19.59
			c0.18,2.16,0.11,4.33-0.19,6.48c-0.38,2.76-1.11,5.43-2.22,7.98c-2.31,5.29-5.83,9.61-10.52,12.96c-2.59,1.85-5.4,3.26-8.43,4.24
			c-2.44,0.79-4.93,1.28-7.49,1.46C76.62,62.05,76.22,62.09,75.82,62.12z M69.86,28.64c0.32-0.17,0.62-0.35,0.94-0.49
			c1.53-0.66,3.13-0.78,4.76-0.52c0.39,0.06,0.78,0.22,1.12,0.43c0.47,0.3,0.38,0.91-0.14,1.13c-0.17,0.07-0.35,0.13-0.53,0.15
			c-0.96,0.11-1.92,0.21-2.88,0.32c-1,0.11-2.01,0.24-2.97,0.58c-1.01,0.35-1.81,0.94-2.11,2.03c-0.46,1.64,0.03,3.55,1.98,4.48
			c0.9,0.43,1.85,0.59,2.83,0.65c1.61,0.11,3.15-0.14,4.64-0.77c1.38-0.58,2.04-1.63,2.04-3.12c0-1.57,0-3.13,0-4.7
			c0-0.18,0-0.35-0.03-0.53c-0.18-1.15-0.85-1.94-1.85-2.48c-0.98-0.53-2.04-0.69-3.13-0.74c-1.55-0.07-3.05,0.21-4.48,0.8
			c-0.59,0.25-1.16,0.57-1.77,0.87C68.84,27.42,69.35,28.04,69.86,28.64z M64.88,28.65c0.51-0.62,1.02-1.23,1.55-1.86
			c-0.12-0.07-0.21-0.14-0.31-0.19c-2.11-1.23-4.38-1.75-6.81-1.47c-1.09,0.12-2.11,0.45-2.98,1.14c-1.95,1.55-1.3,3.93,0.04,4.78
			c0.46,0.29,0.98,0.51,1.5,0.67c1.29,0.39,2.64,0.38,3.97,0.49c0.63,0.05,1.26,0.1,1.84,0.41c0.67,0.36,0.78,1.12,0.19,1.61
			c-0.28,0.23-0.62,0.41-0.97,0.51c-1.53,0.43-3.05,0.3-4.54-0.18c-0.56-0.18-1.1-0.45-1.66-0.68c-0.49,0.59-0.99,1.2-1.54,1.86
			c0.56,0.3,1.07,0.61,1.62,0.85c2.06,0.89,4.21,1.05,6.41,0.63c0.9-0.17,1.74-0.51,2.43-1.14c0.87-0.79,1.18-1.81,1.12-2.95
			c-0.06-1.16-0.53-2.06-1.59-2.61c-0.82-0.43-1.72-0.62-2.62-0.73c-1.04-0.13-2.08-0.19-3.12-0.33c-0.46-0.06-0.9-0.21-1.34-0.36
			c-0.23-0.07-0.42-0.23-0.43-0.51c-0.01-0.29,0.14-0.49,0.38-0.61c0.18-0.1,0.38-0.2,0.58-0.24
			C60.79,27.26,62.89,27.47,64.88,28.65z M90.84,35.71c0.33,0.2,0.62,0.4,0.93,0.56c2.31,1.2,4.76,1.44,7.28,0.89
			c1.81-0.4,3.16-1.48,3.34-3.38c0.13-1.41-0.32-2.82-1.92-3.41c-0.73-0.27-1.51-0.46-2.29-0.58c-1.03-0.16-2.08-0.2-3.12-0.34
			c-0.49-0.07-0.98-0.21-1.43-0.41c-0.46-0.2-0.47-0.7-0.06-0.99c0.2-0.14,0.45-0.26,0.69-0.32c1.44-0.34,2.88-0.32,4.3,0.08
			c0.68,0.19,1.33,0.52,2.03,0.79c0.47-0.56,0.98-1.18,1.5-1.8c-0.12-0.08-0.22-0.14-0.31-0.2c-2.11-1.23-4.38-1.74-6.81-1.47
			c-1.05,0.12-2.04,0.43-2.9,1.09c-1.27,0.98-1.64,2.43-0.95,3.79c0.47,0.94,1.31,1.39,2.26,1.67c1.35,0.41,2.76,0.42,4.15,0.53
			c0.61,0.05,1.23,0.1,1.79,0.39c0.73,0.37,0.81,1.21,0.15,1.69c-0.26,0.19-0.57,0.35-0.89,0.44c-1.53,0.43-3.05,0.3-4.54-0.18
			c-0.56-0.18-1.1-0.44-1.67-0.68C91.88,34.46,91.38,35.06,90.84,35.71z M89.8,35.69c-0.52-0.62-1.02-1.23-1.53-1.85
			c-0.07,0.06-0.13,0.11-0.18,0.16c-0.42,0.37-0.86,0.69-1.41,0.86c-1.15,0.35-2.17-0.16-2.53-1.3c-0.11-0.34-0.17-0.71-0.18-1.06
			c-0.02-1.21-0.01-2.43-0.01-3.65c0-0.06,0.01-0.12,0.02-0.2c1.64,0,3.26,0,4.88,0c0-0.77,0-1.52,0-2.29c-1.64,0-3.27,0-4.92,0
			c0-0.99,0-1.95,0-2.95c-0.78,0.34-1.53,0.67-2.28,0.98c-0.19,0.08-0.26,0.17-0.26,0.39c0.01,2.5,0,5,0.01,7.5
			c0,0.49,0.03,0.99,0.11,1.47c0.25,1.42,0.9,2.6,2.26,3.23c1.04,0.48,2.13,0.57,3.25,0.31C88.11,37.05,89.01,36.49,89.8,35.69z"/>
		<path class="st2" d="M76.99,31.6c0,0.63,0.02,1.25-0.01,1.87c-0.02,0.48-0.28,0.85-0.73,1.01c-0.5,0.18-1.01,0.35-1.53,0.44
			c-0.96,0.15-1.93,0.13-2.87-0.14c-0.32-0.09-0.64-0.25-0.93-0.42c-0.77-0.47-0.6-1.52,0.09-1.92c0.48-0.28,1.01-0.34,1.55-0.38
			c1.04-0.08,2.09-0.13,3.13-0.22C76.12,31.8,76.56,31.68,76.99,31.6z"/>
	</g>
</g>
<g id="Brother">
	<g>
		<path class="st2" d="M0.78,14.59c0.08,0,0.17,0.01,0.25,0.01c1.89,0,3.77,0,5.66,0c0.08,0,0.15,0,0.26,0c0,1.6,0,3.19,0,4.78
			c0,1.58,0,3.17,0,4.8c0.32-0.26,0.59-0.49,0.87-0.72c1.22-0.97,2.52-1.78,4.01-2.28c0.95-0.32,1.93-0.44,2.94-0.41
			c2.38,0.06,4.6,0.66,6.64,1.88c3.23,1.92,5.32,4.71,6.23,8.37c0.06,0.25,0.1,0.5,0.16,0.75c0.01,0.05,0.03,0.09,0.08,0.14
			c0.04-0.31,0.08-0.62,0.13-0.93c0.56-3.4,2-6.27,4.95-8.22c1.31-0.87,2.76-1.42,4.29-1.76c1.49-0.33,3-0.44,4.53-0.4
			c0.04,0,0.07,0.01,0.14,0.02c0,1.65,0,3.29,0,4.94c3.95-4.34,8.72-5.9,14.43-4.42c5.6,1.86,8.73,5.79,9.69,11.58
			c0-6.02,0-12.01,0-18.01c2.21,0,4.4,0,6.62,0c0,0.09,0,0.17,0,0.25c0,1.95,0,3.9,0,5.85c0,0.3,0,0.3,0.3,0.3c3.18,0,6.36,0,9.54,0
			c0.26,0,0.26,0,0.26,0.26c0,1.76,0,3.52,0,5.28c0,0.19-0.04,0.25-0.24,0.25c-3.15-0.01-6.31,0-9.46,0c-0.07,0-0.14,0.01-0.21,0
			c-0.16-0.02-0.19,0.06-0.19,0.2c0,3.04-0.04,6.08,0.02,9.11c0.04,2.16,1,3.88,2.86,5.04c0.74,0.47,1.57,0.71,2.45,0.79
			c2.97,0.28,5.72-1.74,6.37-4.6c0.12-0.51,0.17-1.05,0.18-1.57c0.01-6.89,0.01-13.79,0.01-20.68c0-0.06,0-0.11,0-0.19
			c2.15,0,4.29,0,6.46,0c0,2.75,0,5.49,0,8.29c0.22-0.16,0.39-0.29,0.57-0.43c0.72-0.55,1.45-1.09,2.26-1.5
			c0.74-0.38,1.51-0.64,2.35-0.7c2.41-0.17,4.57,0.52,6.49,1.93c2.07,1.52,3.42,3.56,4.18,5.99c0.27,0.85,0.45,1.71,0.5,2.6
			c0.04,0.64,0.05,1.28,0.08,1.91c0,0.09,0.01,0.18,0.03,0.27c0.24-3.31,1.48-6.19,3.78-8.59c2.3-2.4,5.13-3.79,8.44-4.1
			c3.61-0.34,6.89,0.58,9.75,2.84c2.85,2.25,4.51,5.21,5.1,8.8c0.02-0.16,0.04-0.33,0.06-0.49c0.14-1.34,0.44-2.65,0.94-3.91
			c1.22-3.07,3.39-5.17,6.48-6.33c1.19-0.45,2.43-0.71,3.69-0.86c0.9-0.1,1.8-0.12,2.7-0.12c0.13,0,0.2,0.03,0.2,0.18
			c0,1.85,0,3.71,0,5.56c0,0.04-0.01,0.09-0.02,0.16c-0.12-0.01-0.24-0.03-0.36-0.03c-2.41-0.04-4.51,0.66-6.04,2.63
			c-0.71,0.91-1.12,1.95-1.35,3.07c-0.15,0.74-0.2,1.49-0.2,2.25c0.01,4.25,0,8.51,0,12.76c0,0.07,0,0.14,0,0.22
			c-2.06,0-4.11,0-6.19,0c0-1.82,0-3.63,0-5.45c0-1.81,0-3.63,0-5.45c-7.02,0-14.04,0-21.08,0c0.08,0.55,0.22,1.05,0.42,1.54
			c0.99,2.36,2.71,3.94,5.19,4.61c2.44,0.65,4.69,0.17,6.7-1.36c1.04-0.79,1.81-1.79,2.33-2.99c0.05-0.11,0.1-0.15,0.22-0.15
			c1.85,0,3.71,0,5.56,0c0.06,0,0.13,0.01,0.22,0.01c-0.69,2.25-1.85,4.19-3.5,5.83c-2.17,2.15-4.77,3.48-7.82,3.85
			c-3.9,0.47-7.38-0.59-10.36-3.13c-2.97-2.54-4.56-5.81-4.89-9.71c0,4.15,0,8.29,0,12.45c-1.96,0-3.9,0-5.87,0c0-0.1,0-0.2,0-0.3
			c0-4.96,0.03-9.91-0.01-14.87c-0.02-2.2-0.96-3.97-2.89-5.12c-0.86-0.51-1.8-0.72-2.81-0.62c-1.89,0.2-3.22,1.22-4.12,2.84
			c-0.49,0.88-0.73,1.84-0.73,2.86c0,5,0,10,0,15c0,0.06,0,0.12,0,0.2c-2.16,0-4.3,0-6.47,0c0-0.65,0-1.29,0-2
			c-0.15,0.12-0.25,0.19-0.35,0.27c-1.34,1.03-2.85,1.65-4.51,1.9c-1.03,0.16-2.06,0.17-3.09,0.06c-2.34-0.26-4.43-1.14-6.24-2.67
			c-1.76-1.49-2.97-3.35-3.69-5.54c-0.29-0.89-0.47-1.81-0.57-2.74c-0.04-0.36-0.04-0.72-0.07-1.09c-0.63,4.51-2.82,8.03-6.78,10.3
			c-3.95,2.26-8.11,2.46-12.27,0.62c-3.85-1.7-6.39-4.65-7.53-8.69c-1.14-4.04-0.46-7.84,1.83-11.37c-0.04-0.01-0.08-0.03-0.11-0.02
			c-2.14,0.05-4.02,0.7-5.45,2.38c-0.8,0.93-1.27,2.03-1.53,3.22c-0.17,0.79-0.23,1.6-0.23,2.41c0,4.21,0,8.43,0,12.64
			c0,0.09,0,0.18,0,0.29c-2.05,0-4.09,0-6.16,0c0-3.45,0-6.91,0-10.36c-0.02,0-0.03-0.01-0.05-0.01c-0.02,0.08-0.05,0.16-0.07,0.24
			c-0.51,2.16-1.49,4.09-2.94,5.77c-1.84,2.13-4.13,3.55-6.84,4.28c-0.8,0.22-1.62,0.34-2.45,0.4c-2.49,0.18-4.87-0.26-7.1-1.39
			c-3.36-1.71-5.65-4.38-6.86-7.95c-0.32-0.95-0.52-1.93-0.6-2.93c-0.02-0.26-0.05-0.51-0.08-0.77C0.78,27.97,0.78,21.28,0.78,14.59
			z M14.41,26.43c-4.17-0.02-7.72,3.33-7.72,7.7c0,4.34,3.49,7.7,7.68,7.72c4.21,0.01,7.73-3.35,7.74-7.7
			C22.11,29.74,18.52,26.42,14.41,26.43z M52.49,26.43c-4.2-0.02-7.67,3.36-7.72,7.59c-0.06,4.4,3.49,7.8,7.67,7.82
			c4.21,0.02,7.78-3.37,7.75-7.79C60.14,29.79,56.65,26.43,52.49,26.43z M128.24,31.23c-0.88-2.97-4.2-5.91-8.57-5.21
			c-1.96,0.31-3.55,1.29-4.79,2.84c-0.56,0.7-0.99,1.49-1.26,2.37C118.51,31.23,123.36,31.23,128.24,31.23z"/>
		<path class="st2" d="M148.72,45.06c-0.07,0.28-0.1,0.56-0.2,0.83c-0.4,1.03-1.14,1.66-2.23,1.85c-1.53,0.27-2.89-0.7-3.27-2.05
			c-0.47-1.69,0.62-3.38,2.33-3.65c1.57-0.25,3.02,0.81,3.3,2.31c0.02,0.12,0.05,0.25,0.07,0.37
			C148.72,44.83,148.72,44.94,148.72,45.06z M145.8,47.3c1.2,0.04,2.43-0.95,2.43-2.41c0-1.42-1.15-2.41-2.41-2.42
			c-1.26-0.01-2.43,0.98-2.43,2.42C143.38,46.36,144.62,47.33,145.8,47.3z"/>
		<path class="st2" d="M146.78,44.89c0.1,0.13,0.24,0.24,0.3,0.38c0.06,0.16,0.04,0.35,0.06,0.53c0.02,0.23,0.04,0.45,0.07,0.72
			c-0.17,0-0.39,0.01-0.61-0.01c-0.05-0.01-0.12-0.13-0.12-0.2c-0.02-0.22-0.01-0.43-0.01-0.65c0-0.31-0.12-0.45-0.43-0.47
			c-0.24-0.01-0.47,0-0.71,0c-0.1,0-0.14,0.04-0.14,0.15c0.01,0.34-0.01,0.68,0,1.02c0,0.14-0.04,0.18-0.18,0.18
			c-0.16-0.01-0.32,0-0.48,0c0-1.13,0-2.23,0-3.36c0.07,0,0.13-0.01,0.19-0.01c0.56,0,1.11,0,1.67,0c0.49,0,0.82,0.32,0.83,0.81
			C147.23,44.41,147.21,44.46,146.78,44.89z M145.77,43.7C145.77,43.7,145.77,43.7,145.77,43.7c-0.15,0-0.31,0.01-0.46,0
			c-0.1,0-0.14,0.04-0.13,0.13c0,0.22,0,0.43,0,0.65c0,0.05,0.05,0.14,0.08,0.14c0.33,0,0.66,0.01,0.99-0.03
			c0.25-0.03,0.37-0.29,0.32-0.57c-0.03-0.21-0.18-0.32-0.45-0.32C146.01,43.7,145.89,43.7,145.77,43.7z"/>
	</g>
</g>
</svg>
