<?xml version="1.0" encoding="utf-8"?>
<!-- Generator: Adobe Illustrator 23.0.1, SVG Export Plug-In . SVG Version: 6.00 Build 0)  -->
<svg version="1.1" xmlns="http://www.w3.org/2000/svg" xmlns:xlink="http://www.w3.org/1999/xlink" x="0px" y="0px"
	 viewBox="0 0 149.5 62.5" style="enable-background:new 0 0 149.5 62.5;" xml:space="preserve">
<style type="text/css">
	.st0{display:none;}
	.st1{display:inline;}
	.st2{fill:#FFFFFF;}
</style>
<g id="HBO" class="st0">
	<g class="st1">
		<g>
			<polygon class="st2" points="29.17,24.23 18.95,24.23 18.95,2.56 2.78,2.56 2.78,60.65 18.95,60.65 18.95,38.14 29.17,38.14 
				29.17,60.65 44.96,60.65 44.96,2.56 29.17,2.56 			"/>
			<path class="st2" d="M117.35,1.59c-16.37,0-24.65,11.91-26.65,16.75c0-7.18-7.18-15.78-15.53-15.78H48.19v58.1h25.1
				c10.22,0,17.4-8.74,17.4-16.37c2.26,4.72,10.29,16.62,26.65,16.62c16.18,0,29.37-13.46,29.37-29.82
				C146.72,14.46,133.53,1.59,117.35,1.59z M71.29,47.13h-8.02V37.3h8.02c2.33,0,4.21,2.26,4.21,4.85
				C75.5,44.87,73.62,47.13,71.29,47.13z M71.29,25.2h-8.02V15.5h8.02c2.33,0,4.21,2.27,4.21,4.85C75.5,22.94,73.62,25.2,71.29,25.2
				z M87.98,35.55c-1.3-1.88-4.2-4.14-6.08-4.46c1.88-0.13,4.92-2.27,6.08-3.56C87.53,29.08,87.53,34,87.98,35.55z M117.35,45.9
				c-8.15,0-14.75-6.6-14.75-14.81c0-8.15,6.6-14.75,14.75-14.75c8.15,0,14.75,6.6,14.75,14.75C132.1,39.31,125.5,45.9,117.35,45.9z
				"/>
		</g>
		<path class="st2" d="M117.35,19.51c-6.47,0-11.64,5.11-11.64,11.58c0,6.47,5.17,11.64,11.64,11.64c6.28,0,11.58-5.17,11.58-11.64
			C128.93,24.62,123.63,19.51,117.35,19.51z"/>
	</g>
</g>
<g id="Suntory" class="st0">
	<g id="layer1" class="st1">
		<g id="g47705">
			<path id="path47707" class="st2" d="M50.92,40.58H44.8c0.22-1.96,0.29-5.1,0.29-8.13v-2.69c0-3.03-0.07-6.38-0.44-8.12h3.49
				c1.3,0,1.95,0.44,2.18,1.3c1.53-1.14,3.39-1.76,5.3-1.74c6.52,0,7.33,3.92,7.33,6.82v5.31c-0.03,2.42,0.08,4.85,0.34,7.26h-3.59
				c-1.67,0-2.46-1.02-2.46-2.69V30.2c0-3.06-0.29-5.37-4.08-5.37c-0.84-0.01-1.68,0.14-2.46,0.44v6.81
				C50.69,34.46,50.69,38.61,50.92,40.58 M32.89,21.63h6.1c-0.21,1.95-0.28,5.1-0.28,8.12v2.69c0,3.06,0.14,6.39,0.43,8.13h-3.47
				c-1.31,0-1.96-0.44-2.19-1.31c-1.53,1.15-3.38,1.76-5.29,1.75c-6.53,0-7.33-3.92-7.33-6.83v-5.3c0.02-2.42-0.1-4.85-0.36-7.26
				h3.62c1.67,0,2.46,1.02,2.46,2.69v7.7c0,3.06,0.3,5.37,4.08,5.37c0.84,0.01,1.68-0.14,2.47-0.44v-6.83c0-2.4-0.08-6.54-0.22-8.5
				 M15.64,26.13c-1.09-1.02-3.06-1.6-5.1-1.6c-1.45,0-3.19,0.22-3.19,1.89c0,1.23,1.45,1.8,3.63,2.61
				c2.54,0.95,5.51,2.18,5.51,5.73c0,5.67-6.02,6.39-8.85,6.39C6.08,41.19,4.52,41.02,3,40.65c-1.31-0.36-1.6-0.94-1.6-2.69v-2.1
				c1.46,1.02,3.78,1.52,5.66,1.52c2.32,0,3.48-0.65,3.48-2.1c0-1.38-1.23-1.89-4.5-3.12c-2.25-0.87-4.64-2.04-4.64-5.31
				c0-4.79,5.44-6.03,8.71-6.03c1.56-0.04,3.11,0.24,4.56,0.81c0.87,0.44,0.95,0.94,0.95,2.1L15.64,26.13z"/>
		</g>
		<g id="g47709">
			<path id="path47711" class="st2" d="M89.96,31c0,4.36,1.52,6.31,4.5,6.31c2.9,0,4.35-1.96,4.35-6.31s-1.44-6.38-4.35-6.38
				C91.47,24.62,89.96,26.66,89.96,31 M104.4,30.93c0,6.31-3.63,10.23-10.16,10.23c-6.52,0-9.86-3.57-9.86-10.02
				c0-6.39,3.56-10.09,10.09-10.09c6.53,0,9.94,3.48,9.94,9.86 M80.53,21.64c1.14,0,2.28-0.07,3.42-0.22
				c-0.24,0.94-0.53,1.86-0.88,2.76c-0.52,1.09-1.18,1.43-3.71,1.43h-2.18v6.46c0,2.38,0.06,6.53,0.29,8.5h-6.17
				c0.22-1.96,0.29-6.12,0.29-8.5v-6.46H69.7c-1.67,0-3.12,0.22-3.84,0.65v-2.54c0-1.45,0.29-2.1,2.46-2.1L80.53,21.64z"/>
		</g>
		<g id="g47713">
			<path id="path47715" class="st2" d="M140.46,35.07v0.44c-0.02,1.7,0.08,3.41,0.29,5.1h-6.18c0.21-1.69,0.31-3.39,0.29-5.1v-0.44
				c0-0.8-0.21-1.59-0.86-2.9c-1.38-2.76-4.42-8.06-7.04-10.46c1.35-0.15,2.72-0.22,4.08-0.21c2.38,0,3.12,0.8,3.7,1.74
				c1.18,2.1,2.24,4.25,3.19,6.46c0.93-2.18,1.97-4.32,3.12-6.39c0.58-0.87,1.38-1.81,3.42-1.81c1.21,0,2.43,0.08,3.63,0.21
				c-1.89,1.67-5.44,7.55-6.9,10.24c-0.54,0.95-0.79,2.03-0.73,3.11 M124.95,41.67c-2.33,0-2.83-0.87-4.28-2.98
				c-0.81-1.16-3.34-5.44-3.78-6.32c-0.21-0.43-0.29-0.8,0.15-1.02c1.89-1.1,2.4-2.25,2.4-3.56c0-1.53-0.66-2.83-2.83-2.83
				c-0.69-0.01-1.37,0.06-2.04,0.23v6.89c0,2.38,0.07,6.53,0.29,8.5h-5.94c0.22-1.89,0.3-5.1,0.3-8.13v-2.69
				c0-3.06-0.08-6.38-0.44-8.13c2.83,0,6.96-0.14,8.78-0.14c3.19,0,7.48,0.65,7.48,5.44c0.03,1.87-0.94,3.61-2.54,4.59
				c-0.29,0.21-0.29,0.36,0,0.79c2.04,3.06,4.5,6.46,6.75,8.86C127.82,41.47,126.39,41.64,124.95,41.67"/>
		</g>
	</g>
</g>
<g id="Furama">
	<g>
		<path class="st2" d="M32.11,42.54h6.96v-0.7h-1.6V28.77c2.44,0,2.76,2.51,2.79,5.49h0.49V23.01h-0.49
			c-0.11,2.82-0.35,5.07-2.79,5.07V16.01h0.65c3.57,0,4.74,2.75,4.95,7.23h0.57l-0.16-7.93H32.11v0.7h1.3v25.83h-1.3V42.54z"/>
		<path class="st2" d="M51.71,35.73c0,4.37,1.65,7.35,5.25,7.35c4.01,0,5.33-2.71,5.33-7.35V17.32c0-1.04,0.35-1.31,1.35-1.31v-0.7
			h-3.47v0.7c1.08,0,1.46,0.27,1.46,1.74v18.21c0,3.36-0.95,5.96-3.17,5.96c-1.98,0-2.71-1.89-2.71-4.91v-21h1.41v-0.7h-6.82v0.7
			h1.35V35.73z"/>
		<path class="st2" d="M75.85,16.01h0.79c2.68,0,2.79,2.51,2.79,5.68c0,5.14-1.06,5.72-3.57,5.92V16.01z M70.49,42.54h6.74v-0.7
			h-1.38V28.31c2.36,0,2.79,1.43,2.84,3.67l0.11,5.14c0.05,2.59,0.6,5.72,3.38,5.72c1.11,0,2.17-0.39,2.57-0.7l-0.22-0.73
			c-0.19,0.12-0.41,0.27-0.6,0.27c-0.65,0-0.97-0.5-0.97-2.94v-1.97c0-6.42-1.25-8.27-5.55-8.74v-0.08
			c3.03-0.23,6.39-1.82,6.39-6.46c0-4.6-2.95-6.19-6.17-6.19h-7.15v0.7h1.3v25.83h-1.3V42.54z"/>
		<path class="st2" d="M97.13,33.64h-3.65l1.76-9.55h0.06L97.13,33.64z M90.04,42.54h3.6v-0.7c-0.38,0-1.43-0.04-1.43-0.89
			c0-0.35,0.22-1.55,0.51-3.05l0.65-3.56h3.9l1.38,7.5h-1.3v0.7h6.58v-0.7h-1.19l-4.98-26.53h-1.3l-4.82,24.9
			c-0.22,1.16-0.68,1.62-1.6,1.62V42.54z"/>
		<path class="st2" d="M109.69,42.54h3.55v-0.7c-1.22,0-1.46-0.31-1.46-3.63V16.47h0.05l4.55,26.06h0.89l4.47-25.83h0.05v25.13
			h-1.46v0.7h6.66v-0.7h-1.3V16.01h1.3v-0.7h-5.47l-3,16.9h-0.05l-3-16.9h-5.63v0.7h1.3v22.2c0,3.33-0.19,3.63-1.43,3.63V42.54z"/>
		<path class="st2" d="M139.52,33.64h-3.65l1.76-9.55h0.05L139.52,33.64z M132.42,42.54h3.6v-0.7c-0.38,0-1.43-0.04-1.43-0.89
			c0-0.35,0.22-1.55,0.51-3.05l0.65-3.56h3.9l1.38,7.5h-1.3v0.7h6.58v-0.7h-1.19l-4.98-26.53h-1.3l-4.82,24.9
			c-0.22,1.16-0.68,1.62-1.6,1.62V42.54z"/>
		<path class="st2" d="M25.27,15v7.76h-6.33c0,0-2.38-0.33-2.38,4.24c0,0,1.24-2.29,2.43-2.29h6.09v4.91h-6.57
			c0,0-1.91,0.1-1.91,1.38l0,15.72h130.71v0.78l-136.45,0v-0.57v-0.21l0-15.72c0-1.28-1.91-1.38-1.91-1.38H2.38v-4.91h6.09
			c1.19,0,2.43,2.29,2.43,2.29c0-4.57-2.38-4.24-2.38-4.24H2.19V15h6.52c0.76,0,1.71,0.52,3.19,2.29c1.48,1.77,1.31,3.32,1.31,3.32
			l0,26.11h0.98l-0.02-25.58c0,0-0.1-2.09,1.38-3.86c1.48-1.77,2.44-2.29,3.19-2.29H25.27z"/>
	</g>
</g>
</svg>
