<?xml version="1.0" encoding="utf-8"?>
<!-- Generator: Adobe Illustrator 22.1.0, SVG Export Plug-In . SVG Version: 6.00 Build 0)  -->
<svg version="1.1" id="Layer_1" xmlns="http://www.w3.org/2000/svg" xmlns:xlink="http://www.w3.org/1999/xlink" x="0px" y="0px"
	 viewBox="0 0 149.5 62.5" style="enable-background:new 0 0 149.5 62.5;" xml:space="preserve">
<style type="text/css">
	.st0{fill:#FFFFFF;}
</style>
<g>
	<g>
		<polygon class="st0" points="42.6,26.3 35.5,26.3 35.5,11 24.1,11 24.1,52 35.5,52 35.5,36.1 42.6,36.1 42.6,52 53.8,52 53.8,11 
			42.6,11 		"/>
		<path class="st0" d="M104.7,10.4c-11.5,0-17.4,8.4-18.8,11.8C86,17.1,80.9,11,75,11H56V52h17.7C80.9,52,86,45.8,86,40.4
			c1.6,3.3,7.2,11.7,18.8,11.7c11.4,0,20.7-9.5,20.7-21C125.4,19.4,116.1,10.4,104.7,10.4z M72.3,42.4h-5.6v-6.9h5.6
			c1.6,0,3,1.6,3,3.4C75.3,40.8,74,42.4,72.3,42.4z M72.3,27h-5.6v-6.8h5.6c1.6,0,3,1.6,3,3.4C75.3,25.4,74,27,72.3,27z M84.1,34.3
			c-0.9-1.3-3-2.9-4.3-3.1c1.3-0.1,3.5-1.6,4.3-2.5C83.7,29.7,83.7,33.2,84.1,34.3z M104.7,41.6c-5.7,0-10.4-4.6-10.4-10.4
			c0-5.7,4.6-10.4,10.4-10.4c5.7,0,10.4,4.6,10.4,10.4C115.1,36.9,110.5,41.6,104.7,41.6z"/>
	</g>
	<path class="st0" d="M104.7,23c-4.6,0-8.2,3.6-8.2,8.2s3.6,8.2,8.2,8.2c4.4,0,8.2-3.6,8.2-8.2S109.2,23,104.7,23z"/>
</g>
</svg>
