<?xml version="1.0" encoding="utf-8"?>
<!-- Generator: Adobe Illustrator 22.1.0, SVG Export Plug-In . SVG Version: 6.00 Build 0)  -->
<svg version="1.1" id="Layer_1" xmlns="http://www.w3.org/2000/svg" xmlns:xlink="http://www.w3.org/1999/xlink" x="0px" y="0px"
	 viewBox="0 0 149.5 62.5" style="enable-background:new 0 0 149.5 62.5;" xml:space="preserve">
<style type="text/css">
	.st0{display:none;}
	.st1{display:inline;}
	.st2{fill:#FFFFFF;}
</style>
<g id="HBO" class="st0">
	<g class="st1">
		<g>
			<polygon class="st2" points="29.2,24.2 19,24.2 19,2.6 2.8,2.6 2.8,60.7 19,60.7 19,38.1 29.2,38.1 29.2,60.7 45,60.7 45,2.6 
				29.2,2.6 			"/>
			<path class="st2" d="M117.3,1.6c-16.4,0-24.7,11.9-26.7,16.8c0-7.2-7.2-15.8-15.5-15.8h-27v58.1h25.1c10.2,0,17.4-8.7,17.4-16.4
				C93,49,101,60.9,117.3,60.9c16.2,0,29.4-13.5,29.4-29.8C146.7,14.5,133.5,1.6,117.3,1.6z M71.3,47.1h-8v-9.8h8
				c2.3,0,4.2,2.3,4.2,4.8C75.5,44.9,73.6,47.1,71.3,47.1z M71.3,25.2h-8v-9.7h8c2.3,0,4.2,2.3,4.2,4.9
				C75.5,22.9,73.6,25.2,71.3,25.2z M88,35.5c-1.3-1.9-4.2-4.1-6.1-4.5c1.9-0.1,4.9-2.3,6.1-3.6C87.5,29.1,87.5,34,88,35.5z
				 M117.3,45.9c-8.2,0-14.8-6.6-14.8-14.8c0-8.1,6.6-14.8,14.8-14.8s14.8,6.6,14.8,14.8S125.5,45.9,117.3,45.9z"/>
		</g>
		<path class="st2" d="M117.3,19.5c-6.5,0-11.6,5.1-11.6,11.6s5.2,11.6,11.6,11.6c6.3,0,11.6-5.2,11.6-11.6S123.6,19.5,117.3,19.5z"
			/>
	</g>
</g>
<g id="Suntory" class="st0">
	<g id="layer1" class="st1">
		<g id="g47705">
			<path id="path47707" class="st2" d="M50.9,40.6h-6.1c0.2-2,0.3-5.1,0.3-8.1v-2.7c0-3-0.1-6.4-0.4-8.1h3.5c1.3,0,2,0.4,2.2,1.3
				c1.5-1.1,3.4-1.8,5.3-1.7c6.5,0,7.3,3.9,7.3,6.8v5.3c0,2.4,0.1,4.8,0.3,7.3h-3.6c-1.7,0-2.5-1-2.5-2.7v-7.7
				c0-3.1-0.3-5.4-4.1-5.4c-0.8,0-1.7,0.1-2.5,0.4v6.8C50.7,34.5,50.7,38.6,50.9,40.6 M32.9,21.6H39c-0.2,2-0.3,5.1-0.3,8.1v2.7
				c0,3.1,0.1,6.4,0.4,8.1h-3.5c-1.3,0-2-0.4-2.2-1.3C31.9,40.4,30,41,28.1,41c-6.5,0-7.3-3.9-7.3-6.8v-5.3c0-2.4-0.1-4.9-0.4-7.3
				H24c1.7,0,2.5,1,2.5,2.7V32c0,3.1,0.3,5.4,4.1,5.4c0.8,0,1.7-0.1,2.5-0.4v-6.8C33.1,27.7,33,23.6,32.9,21.6 M15.6,26.1
				c-1.1-1-3.1-1.6-5.1-1.6c-1.4,0-3.2,0.2-3.2,1.9c0,1.2,1.5,1.8,3.6,2.6c2.5,1,5.5,2.2,5.5,5.7c0,5.7-6,6.4-8.9,6.4
				c-1.6,0-3.1-0.1-4.6-0.5c-1.3-0.4-1.6-0.9-1.6-2.7v-2.1c1.5,1,3.8,1.5,5.7,1.5c2.3,0,3.5-0.7,3.5-2.1c0-1.4-1.2-1.9-4.5-3.1
				c-2.2-0.9-4.6-2-4.6-5.3c0-4.8,5.4-6,8.7-6c1.6,0,3.1,0.2,4.6,0.8c0.9,0.4,0.9,0.9,0.9,2.1V26.1z"/>
		</g>
		<g id="g47709">
			<path id="path47711" class="st2" d="M90,31c0,4.4,1.5,6.3,4.5,6.3c2.9,0,4.3-2,4.3-6.3s-1.4-6.4-4.3-6.4C91.5,24.6,90,26.7,90,31
				 M104.4,30.9c0,6.3-3.6,10.2-10.2,10.2c-6.5,0-9.9-3.6-9.9-10S87.9,21,94.4,21S104.4,24.5,104.4,30.9 M80.5,21.6
				c1.1,0,2.3-0.1,3.4-0.2c-0.2,0.9-0.5,1.9-0.9,2.8c-0.5,1.1-1.2,1.4-3.7,1.4h-2.2v6.5c0,2.4,0.1,6.5,0.3,8.5h-6.2
				c0.2-2,0.3-6.1,0.3-8.5v-6.5h-1.9c-1.7,0-3.1,0.2-3.8,0.6v-2.5c0-1.5,0.3-2.1,2.5-2.1L80.5,21.6z"/>
		</g>
		<g id="g47713">
			<path id="path47715" class="st2" d="M140.5,35.1v0.4c0,1.7,0.1,3.4,0.3,5.1h-6.2c0.2-1.7,0.3-3.4,0.3-5.1v-0.4
				c0-0.8-0.2-1.6-0.9-2.9c-1.4-2.8-4.4-8.1-7-10.5c1.3-0.1,2.7-0.2,4.1-0.2c2.4,0,3.1,0.8,3.7,1.7c1.2,2.1,2.2,4.2,3.2,6.5
				c0.9-2.2,2-4.3,3.1-6.4c0.6-0.9,1.4-1.8,3.4-1.8c1.2,0,2.4,0.1,3.6,0.2c-1.9,1.7-5.4,7.6-6.9,10.2
				C140.7,32.9,140.4,34,140.5,35.1 M124.9,41.7c-2.3,0-2.8-0.9-4.3-3c-0.8-1.2-3.3-5.4-3.8-6.3c-0.2-0.4-0.3-0.8,0.2-1
				c1.9-1.1,2.4-2.2,2.4-3.6c0-1.5-0.7-2.8-2.8-2.8c-0.7,0-1.4,0.1-2,0.2v6.9c0,2.4,0.1,6.5,0.3,8.5H109c0.2-1.9,0.3-5.1,0.3-8.1
				v-2.7c0-3.1-0.1-6.4-0.4-8.1c2.8,0,7-0.1,8.8-0.1c3.2,0,7.5,0.6,7.5,5.4c0,1.9-0.9,3.6-2.5,4.6c-0.3,0.2-0.3,0.4,0,0.8
				c2,3.1,4.5,6.5,6.8,8.9C127.8,41.5,126.4,41.6,124.9,41.7"/>
		</g>
	</g>
</g>
<g id="Furama" class="st0">
	<g class="st1">
		<path class="st2" d="M32.1,42.5h7v-0.7h-1.6v-13c2.4,0,2.8,2.5,2.8,5.5h0.5V23h-0.5c-0.1,2.8-0.3,5.1-2.8,5.1V16h0.7
			c3.6,0,4.7,2.8,5,7.2h0.6l-0.2-7.9H32.1V16h1.3v25.8h-1.3V42.5z"/>
		<path class="st2" d="M51.7,35.7c0,4.4,1.7,7.3,5.2,7.3c4,0,5.3-2.7,5.3-7.3V17.3c0-1,0.3-1.3,1.3-1.3v-0.7H60V16
			c1.1,0,1.5,0.3,1.5,1.7V36c0,3.4-1,6-3.2,6c-2,0-2.7-1.9-2.7-4.9V16H57v-0.7h-6.8V16h1.3L51.7,35.7L51.7,35.7z"/>
		<path class="st2" d="M75.8,16h0.8c2.7,0,2.8,2.5,2.8,5.7c0,5.1-1.1,5.7-3.6,5.9L75.8,16L75.8,16z M70.5,42.5h6.7v-0.7h-1.4V28.3
			c2.4,0,2.8,1.4,2.8,3.7l0.1,5.1c0.1,2.6,0.6,5.7,3.4,5.7c1.1,0,2.2-0.4,2.6-0.7l-0.2-0.7c-0.2,0.1-0.4,0.3-0.6,0.3
			c-0.7,0-1-0.5-1-2.9v-2c0-6.4-1.2-8.3-5.6-8.7V28c3-0.2,6.4-1.8,6.4-6.5c0-4.6-2.9-6.2-6.2-6.2h-7.2V16h1.3v25.8h-1.3L70.5,42.5
			L70.5,42.5z"/>
		<path class="st2" d="M97.1,33.6h-3.7l1.8-9.5h0.1L97.1,33.6z M90,42.5h3.6v-0.7c-0.4,0-1.4,0-1.4-0.9c0-0.3,0.2-1.5,0.5-3l0.7-3.6
			h3.9l1.4,7.5h-1.3v0.7h6.6v-0.7h-1.2l-5-26.5h-1.3l-4.8,24.9c-0.2,1.2-0.7,1.6-1.6,1.6C90,41.8,90,42.5,90,42.5z"/>
		<path class="st2" d="M109.7,42.5h3.6v-0.7c-1.2,0-1.5-0.3-1.5-3.6V16.5h0.1l4.6,26.1h0.9l4.5-25.8h0.1v25.1h-1.5v0.7h6.7v-0.7
			h-1.3V16h1.3v-0.7h-5.5l-3,16.9h-0.1l-3-16.9H110V16h1.3v22.2c0,3.3-0.2,3.6-1.4,3.6L109.7,42.5L109.7,42.5z"/>
		<path class="st2" d="M139.5,33.6h-3.6l1.8-9.5h0.1L139.5,33.6z M132.4,42.5h3.6v-0.7c-0.4,0-1.4,0-1.4-0.9c0-0.3,0.2-1.5,0.5-3
			l0.6-3.6h3.9l1.4,7.5h-1.3v0.7h6.6v-0.7h-1.2l-5-26.5h-1.3L134,40.2c-0.2,1.2-0.7,1.6-1.6,1.6V42.5L132.4,42.5z"/>
		<path class="st2" d="M25.3,15v7.8H19c0,0-2.4-0.3-2.4,4.2c0,0,1.2-2.3,2.4-2.3h6.1v4.9h-6.6c0,0-1.9,0.1-1.9,1.4v15.7h130.7v0.8
			H10.9v-0.6v-0.2V31c0-1.3-1.9-1.4-1.9-1.4H2.4v-4.9h6.1c1.2,0,2.4,2.3,2.4,2.3c0-4.6-2.4-4.2-2.4-4.2H2.2V15h6.5
			c0.8,0,1.7,0.5,3.2,2.3s1.3,3.3,1.3,3.3v26.1h1V21.1c0,0-0.1-2.1,1.4-3.9S18,15,18.7,15H25.3L25.3,15z"/>
	</g>
</g>
<g id="Isetan">
	<g>
		<path class="st2" d="M49.5,49.6c-0.3-0.1-0.7-0.1-1-0.2c-2.8-0.7-4.5-2.5-5.3-5.2c-0.2-0.8-0.2-1.6-0.4-2.4c0-0.2,0-0.2,0.2-0.2
			c1.4-0.6,2.9-1,4.4-1.6c0,0,0,0,0.1,0c0,0.3,0.1,0.7,0.1,1c0.1,1,0.2,1.9,0.6,2.8c0.3,0.7,0.7,1.3,1.5,1.5c0.6,0.2,1.1,0.2,1.7,0
			c0.7-0.2,1-0.8,1.2-1.5c0.2-1,0.1-1.9-0.5-2.8c-0.6-1-1.4-1.8-2.3-2.6c-0.9-0.8-1.8-1.6-2.7-2.4c-1.5-1.4-2.8-2.9-3.5-4.8
			c-1.6-4.3,1.2-8.1,4.9-9c3-0.7,5.8,0.6,7.3,3.3c0.2,0.5,0.5,0.9,0.7,1.4c0.3,0.6,0.6,1,1.2,1.4c-1.7,0.6-3.3,1.3-4.9,1.8
			c-0.2-0.6-0.3-1.3-0.6-1.9c-0.2-0.4-0.4-0.8-0.7-1.2c-0.6-0.6-1.2-0.9-2-0.6c-0.9,0.2-1.4,0.9-1.5,1.7c-0.2,1.2,0.2,2.3,1,3.3
			c0.7,1,1.6,1.6,2.5,2.2c1.1,0.8,2.2,1.6,3.2,2.5c1,1.1,2,2.3,2.5,3.7c1.4,4.1-1.3,8.8-5.5,9.6c-0.2,0.1-0.5,0.1-0.7,0.2
			C50.5,49.6,50,49.6,49.5,49.6z"/>
		<path class="st2" d="M42.5,48.9c-6.8,0-13.4,0-20,0v-0.1c1.4-0.8,2.1-2,2.7-3.4c0.6-1.4,1-2.9,1-4.3c0.1-0.7,0.1-1.5,0.1-2.2
			c0-7.3,0-14.7,0-22c0-0.6-0.1-1.3-0.3-1.8c-0.3-0.9-0.8-1.6-1.6-2.1c5.3,0,10.6,0,15.9,0c-0.2,0.2-0.6,0.5-0.8,0.8
			c-0.7,1-1,2-1,3.1c0,7.6-0.1,15.3,0,23c0,2.4,0.6,4.7,1.7,6.8C40.9,47.5,41.5,48.3,42.5,48.9z M32.5,15.6c-2,0-3.6,1.6-3.6,3.5
			c0,2,1.6,3.6,3.6,3.6s3.6-1.6,3.6-3.5C36.1,17.1,34.5,15.6,32.5,15.6z"/>
		<path class="st2" d="M120.9,34.4c0-4.1,0-8,0-12.1c2.1,0,4.1,0,6.1,0c-0.6,0.6-0.8,1.4-0.8,2.2c0,1.2,0,2.4,0,3.6
			c0,6.8,0,13.5,0,20.3c0,0.1,0,0.2,0,0.2c0,0.2-0.1,0.2-0.2,0.2c-1.6,0-3.2,0-4.8,0c-0.2,0-0.3-0.1-0.3-0.2
			c-1.2-3.9-2.4-7.7-3.5-11.6c0-0.1-0.1-0.2-0.1-0.2h-0.1c0,4.1,0,8,0,12.1c-1.7,0-3.5,0-5.2,0c0-8.8,0-17.6,0-26.5
			c0.1,0,0.2,0,0.3,0c1.6,0,3.1,0,4.7,0c0.2,0,0.3,0.1,0.4,0.2c1.2,3.9,2.4,7.8,3.6,11.6C120.8,34.2,120.8,34.3,120.9,34.4
			L120.9,34.4z"/>
		<path class="st2" d="M91.9,48.9c1.4-8.8,2.9-17.6,4.4-26.5c2.8,0,5.6,0,8.3,0c-0.6,1-0.5,2-0.3,2.9c0.3,2,0.6,4.1,1,6
			c0.3,1.9,0.6,3.8,1,5.7c0.3,2,0.6,4,1,6c0.3,1.9,0.6,3.7,1,5.6c0,0.1,0,0.2,0,0.2c-0.1,0-0.2,0-0.2,0c-1.6,0-3.3,0-4.8,0
			c-0.2,0-0.3-0.1-0.3-0.3c-0.2-1.4-0.3-2.9-0.5-4.4c0-0.2-0.1-0.6-0.1-0.8c0-0.2-0.1-0.2-0.2-0.2c-1.2,0-2.4,0-3.6,0
			c-0.2,0-0.2,0.1-0.2,0.2c-0.2,1.4-0.3,2.9-0.6,4.3c0,0.3-0.1,0.6-0.1,1c0,0.2-0.1,0.2-0.2,0.2c-1.7,0-3.4,0-5.1,0
			C92,48.9,92,48.9,91.9,48.9z M100,27.1L100,27.1c-0.6,3.9-1.1,7.9-1.6,11.8c1,0,2.1,0,3,0C101,34.9,100.5,31.1,100,27.1z"/>
		<path class="st2" d="M75.4,22.3c-0.1,0.1-0.1,0.2-0.2,0.2c-0.6,0.4-0.7,1-0.7,1.7c0,0.8,0,1.6,0,2.4c0,0.2-0.1,0.3-0.3,0.3
			c-2.4,0-4.8,0-7.2,0c-0.3,0-0.3,0-0.3,0.4c0,1.7,0,3.5,0,5.3c0,0.2,0.1,0.3,0.3,0.3c1.9,0,3.8,0,5.7,0c0.1,0,0.2,0,0.3,0
			c0,1.5,0,2.9,0,4.5c-2.1,0-4.2,0-6.4,0c0,2.4,0,4.7,0,7.1c2.6,0,5.2,0,7.8,0c0,1.5,0,3,0,4.5c-0.1,0-0.2,0-0.3,0
			c-4.1,0-8.3,0-12.4,0c-0.3,0-0.3,0-0.3-0.4c0-8.6,0-17.2,0-25.8c0-0.3,0-0.3,0.3-0.3c4.5,0,8.9,0,13.4,0
			C75.2,22.3,75.3,22.3,75.4,22.3z"/>
		<path class="st2" d="M92.2,22.3c-0.2,0.2-0.2,0.3-0.3,0.4c-0.4,0.5-0.6,1.1-0.6,1.7c0,0.6,0,1.4,0,2c0,0.1,0,0.2,0,0.3
			c-0.2,0-0.2,0-0.3,0c-1.3,0-2.5,0-3.8,0c-0.4,0-0.4,0-0.4,0.4c0,7.1,0,14.1,0,21.3c0,0.2,0,0.2,0,0.4c-1.7,0-3.5,0-5.2,0
			c0-0.2,0-0.2,0-0.4c0-7.1,0-14.1,0-21.1c0-0.1,0-0.2,0-0.2c0-0.2-0.1-0.3-0.3-0.3c-1.4,0-2.6,0-3.9,0c-0.1,0-0.2,0-0.3,0
			c0-1.5,0-3,0-4.5C82,22.3,87.1,22.3,92.2,22.3z"/>
	</g>
</g>
</svg>
