<?xml version="1.0" encoding="utf-8"?>
<!-- Generator: Adobe Illustrator 22.1.0, SVG Export Plug-In . SVG Version: 6.00 Build 0)  -->
<svg version="1.1" id="Layer_1" xmlns="http://www.w3.org/2000/svg" xmlns:xlink="http://www.w3.org/1999/xlink" x="0px" y="0px"
	 viewBox="0 0 223.5 46.7" style="enable-background:new 0 0 223.5 46.7;" xml:space="preserve">
<style type="text/css">
	.st0{display:none;}
	.st1{display:inline;}
	.st2{fill:#FFFFFF;}
</style>
<g id="HBO" class="st0">
	<g class="st1">
		<g>
			<polygon class="st2" points="29.2,8.5 19,8.5 19,-13.2 2.8,-13.2 2.8,44.9 19,44.9 19,22.4 29.2,22.4 29.2,44.9 45,44.9 
				45,-13.2 29.2,-13.2 			"/>
			<path class="st2" d="M117.3-14.2C101-14.2,92.7-2.3,90.7,2.6c0-7.2-7.2-15.8-15.5-15.8h-27v58.1h25.1c10.2,0,17.4-8.7,17.4-16.4
				c2.3,4.7,10.3,16.6,26.7,16.6c16.2,0,29.4-13.5,29.4-29.8C146.7-1.3,133.5-14.2,117.3-14.2z M71.3,31.4h-8v-9.8h8
				c2.3,0,4.2,2.3,4.2,4.8C75.5,29.1,73.6,31.4,71.3,31.4z M71.3,9.4h-8v-9.7h8c2.3,0,4.2,2.3,4.2,4.9C75.5,7.2,73.6,9.4,71.3,9.4z
				 M88,19.8c-1.3-1.9-4.2-4.1-6.1-4.5c1.9-0.1,4.9-2.3,6.1-3.6C87.5,13.3,87.5,18.2,88,19.8z M117.3,30.1
				c-8.2,0-14.8-6.6-14.8-14.8c0-8.1,6.6-14.8,14.8-14.8s14.8,6.6,14.8,14.8C132.1,23.5,125.5,30.1,117.3,30.1z"/>
		</g>
		<path class="st2" d="M117.3,3.7c-6.5,0-11.6,5.1-11.6,11.6S110.9,27,117.3,27c6.3,0,11.6-5.2,11.6-11.6S123.6,3.7,117.3,3.7z"/>
	</g>
</g>
<g id="Suntory" class="st0">
	<g id="layer1" class="st1">
		<g id="g47705">
			<path id="path47707" class="st2" d="M50.9,24.8h-6.1c0.2-2,0.3-5.1,0.3-8.1V14c0-3-0.1-6.4-0.4-8.1h3.5c1.3,0,2,0.4,2.2,1.3
				c1.5-1.1,3.4-1.8,5.3-1.7c6.5,0,7.3,3.9,7.3,6.8v5.3c0,2.4,0.1,4.8,0.3,7.3h-3.6c-1.7,0-2.5-1-2.5-2.7v-7.7
				c0-3.1-0.3-5.4-4.1-5.4c-0.8,0-1.7,0.1-2.5,0.4v6.8C50.7,18.7,50.7,22.8,50.9,24.8 M32.9,5.9H39c-0.2,2-0.3,5.1-0.3,8.1v2.7
				c0,3.1,0.1,6.4,0.4,8.1h-3.5c-1.3,0-2-0.4-2.2-1.3c-1.5,1.2-3.4,1.8-5.3,1.8c-6.5,0-7.3-3.9-7.3-6.8v-5.3c0-2.4-0.1-4.9-0.4-7.3
				h3.6c1.7,0,2.5,1,2.5,2.7v7.7c0,3.1,0.3,5.4,4.1,5.4c0.8,0,1.7-0.1,2.5-0.4v-6.8C33.1,11.9,33,7.8,32.9,5.9 M15.6,10.4
				c-1.1-1-3.1-1.6-5.1-1.6c-1.4,0-3.2,0.2-3.2,1.9c0,1.2,1.5,1.8,3.6,2.6c2.5,1,5.5,2.2,5.5,5.7c0,5.7-6,6.4-8.9,6.4
				c-1.6,0-3.1-0.1-4.6-0.5c-1.3-0.4-1.6-0.9-1.6-2.7v-2.1c1.5,1,3.8,1.5,5.7,1.5c2.3,0,3.5-0.7,3.5-2.1c0-1.4-1.2-1.9-4.5-3.1
				c-2.2-0.9-4.6-2-4.6-5.3c0-4.8,5.4-6,8.7-6c1.6,0,3.1,0.2,4.6,0.8c0.9,0.4,0.9,0.9,0.9,2.1L15.6,10.4z"/>
		</g>
		<g id="g47709">
			<path id="path47711" class="st2" d="M90,15.2c0,4.4,1.5,6.3,4.5,6.3c2.9,0,4.3-2,4.3-6.3s-1.4-6.4-4.3-6.4
				C91.5,8.8,90,10.9,90,15.2 M104.4,15.2c0,6.3-3.6,10.2-10.2,10.2c-6.5,0-9.9-3.6-9.9-10c0-6.4,3.6-10.1,10.1-10.1
				S104.4,8.8,104.4,15.2 M80.5,5.9c1.1,0,2.3-0.1,3.4-0.2c-0.2,0.9-0.5,1.9-0.9,2.8c-0.5,1.1-1.2,1.4-3.7,1.4h-2.2v6.5
				c0,2.4,0.1,6.5,0.3,8.5h-6.2c0.2-2,0.3-6.1,0.3-8.5V9.8h-1.9c-1.7,0-3.1,0.2-3.8,0.6V7.9c0-1.5,0.3-2.1,2.5-2.1L80.5,5.9z"/>
		</g>
		<g id="g47713">
			<path id="path47715" class="st2" d="M140.5,19.3v0.4c0,1.7,0.1,3.4,0.3,5.1h-6.2c0.2-1.7,0.3-3.4,0.3-5.1v-0.4
				c0-0.8-0.2-1.6-0.9-2.9c-1.4-2.8-4.4-8.1-7-10.5c1.3-0.1,2.7-0.2,4.1-0.2c2.4,0,3.1,0.8,3.7,1.7c1.2,2.1,2.2,4.3,3.2,6.5
				c0.9-2.2,2-4.3,3.1-6.4c0.6-0.9,1.4-1.8,3.4-1.8c1.2,0,2.4,0.1,3.6,0.2c-1.9,1.7-5.4,7.6-6.9,10.2
				C140.7,17.1,140.4,18.2,140.5,19.3 M124.9,25.9c-2.3,0-2.8-0.9-4.3-3c-0.8-1.2-3.3-5.4-3.8-6.3c-0.2-0.4-0.3-0.8,0.2-1
				c1.9-1.1,2.4-2.2,2.4-3.6c0-1.5-0.7-2.8-2.8-2.8c-0.7,0-1.4,0.1-2,0.2v6.9c0,2.4,0.1,6.5,0.3,8.5h-5.9c0.2-1.9,0.3-5.1,0.3-8.1
				V14c0-3.1-0.1-6.4-0.4-8.1c2.8,0,7-0.1,8.8-0.1c3.2,0,7.5,0.6,7.5,5.4c0,1.9-0.9,3.6-2.5,4.6c-0.3,0.2-0.3,0.4,0,0.8
				c2,3.1,4.5,6.5,6.8,8.9C127.8,25.7,126.4,25.9,124.9,25.9"/>
		</g>
	</g>
</g>
<g id="Furama" class="st0">
	<g class="st1">
		<path class="st2" d="M32.1,26.8h7v-0.7h-1.6V13c2.4,0,2.8,2.5,2.8,5.5h0.5V7.2h-0.5c-0.1,2.8-0.3,5.1-2.8,5.1V0.2h0.7
			c3.6,0,4.7,2.8,5,7.2h0.6l-0.2-7.9H32.1v0.7h1.3v25.8h-1.3V26.8z"/>
		<path class="st2" d="M51.7,20c0,4.4,1.7,7.3,5.2,7.3c4,0,5.3-2.7,5.3-7.3V1.5c0-1,0.3-1.3,1.3-1.3v-0.7h-3.5v0.7
			c1.1,0,1.5,0.3,1.5,1.7v18.2c0,3.4-1,6-3.2,6c-2,0-2.7-1.9-2.7-4.9v-21h1.4v-0.7h-6.8v0.7h1.3L51.7,20L51.7,20z"/>
		<path class="st2" d="M75.8,0.2h0.8c2.7,0,2.8,2.5,2.8,5.7c0,5.1-1.1,5.7-3.6,5.9L75.8,0.2L75.8,0.2z M70.5,26.8h6.7v-0.7h-1.4
			V12.5c2.4,0,2.8,1.4,2.8,3.7l0.1,5.1c0.1,2.6,0.6,5.7,3.4,5.7c1.1,0,2.2-0.4,2.6-0.7l-0.2-0.7c-0.2,0.1-0.4,0.3-0.6,0.3
			c-0.7,0-1-0.5-1-2.9v-2c0-6.4-1.2-8.3-5.6-8.7v-0.1c3-0.2,6.4-1.8,6.4-6.5c0-4.6-2.9-6.2-6.2-6.2h-7.2v0.7h1.3v25.8h-1.3
			L70.5,26.8L70.5,26.8z"/>
		<path class="st2" d="M97.1,17.9h-3.7l1.8-9.5h0.1L97.1,17.9z M90,26.8h3.6v-0.7c-0.4,0-1.4,0-1.4-0.9c0-0.3,0.2-1.5,0.5-3l0.7-3.6
			h3.9l1.4,7.5h-1.3v0.7h6.6v-0.7h-1.2l-5-26.5h-1.3l-4.8,24.9c-0.2,1.2-0.7,1.6-1.6,1.6C90,26.1,90,26.8,90,26.8z"/>
		<path class="st2" d="M109.7,26.8h3.6v-0.7c-1.2,0-1.5-0.3-1.5-3.6V0.7h0.1l4.6,26.1h0.9l4.5-25.8h0.1v25.1h-1.5v0.7h6.7v-0.7h-1.3
			V0.2h1.3v-0.7h-5.5l-3,16.9h-0.1l-3-16.9h-5.6v0.7h1.3v22.2c0,3.3-0.2,3.6-1.4,3.6L109.7,26.8L109.7,26.8z"/>
		<path class="st2" d="M139.5,17.9h-3.6l1.8-9.5h0.1L139.5,17.9z M132.4,26.8h3.6v-0.7c-0.4,0-1.4,0-1.4-0.9c0-0.3,0.2-1.5,0.5-3
			l0.6-3.6h3.9l1.4,7.5h-1.3v0.7h6.6v-0.7h-1.2l-5-26.5h-1.3L134,24.4c-0.2,1.2-0.7,1.6-1.6,1.6L132.4,26.8L132.4,26.8z"/>
		<path class="st2" d="M25.3-0.8V7h-6.3c0,0-2.4-0.3-2.4,4.2c0,0,1.2-2.3,2.4-2.3h6.1v4.9h-6.6c0,0-1.9,0.1-1.9,1.4v15.7h130.7v0.8
			H10.9v-0.6v-0.2V15.2c0-1.3-1.9-1.4-1.9-1.4H2.4V8.9h6.1c1.2,0,2.4,2.3,2.4,2.3C10.9,6.7,8.5,7,8.5,7H2.2v-7.8h6.5
			c0.8,0,1.7,0.5,3.2,2.3s1.3,3.3,1.3,3.3v26.1h1l0-25.6c0,0-0.1-2.1,1.4-3.9s2.4-2.3,3.2-2.3L25.3-0.8L25.3-0.8z"/>
	</g>
</g>
<g id="Isetan" class="st0">
	<g class="st1">
		<path class="st2" d="M39.2,41.3c-0.5-0.1-1-0.2-1.4-0.3c-3.9-1-6.3-3.6-7.5-7.4c-0.3-1.1-0.4-2.3-0.6-3.4c0-0.2,0-0.3,0.2-0.4
			c2.1-0.8,4.1-1.5,6.2-2.3c0,0,0,0,0.1,0c0,0.5,0.1,1,0.1,1.5c0.1,1.3,0.3,2.7,0.9,3.9c0.4,1,1.1,1.8,2.2,2.1
			c0.8,0.2,1.6,0.2,2.4,0c1-0.3,1.5-1.1,1.7-2.1c0.3-1.4,0.1-2.7-0.7-3.9c-0.9-1.4-2-2.6-3.2-3.6c-1.3-1.1-2.6-2.2-3.8-3.3
			c-2.2-1.9-4-4.1-5-6.9c-2.2-6,1.7-11.4,7-12.7c4.2-1,8.1,0.8,10.3,4.7c0.3,0.6,0.7,1.3,1,1.9c0.4,0.8,0.9,1.5,1.7,2
			c-2.4,0.9-4.7,1.8-6.9,2.6c-0.3-0.9-0.5-1.8-0.8-2.7c-0.2-0.6-0.6-1.2-1-1.6c-0.8-0.8-1.7-1.2-2.8-0.9c-1.2,0.4-2,1.2-2.2,2.4
			c-0.3,1.7,0.3,3.2,1.3,4.6c1,1.3,2.2,2.2,3.5,3.2c1.6,1.1,3.1,2.2,4.5,3.6c1.5,1.5,2.8,3.2,3.5,5.3c2.1,5.8-1.8,12.4-7.8,13.5
			c-0.3,0.1-0.7,0.1-1,0.2C40.5,41.3,39.9,41.3,39.2,41.3z"/>
		<path class="st2" d="M29.3,40.3c-9.5,0-18.9,0-28.2,0c0,0,0-0.1,0-0.1c1.9-1.1,3-2.8,3.8-4.8c0.8-2,1.3-4,1.5-6.1
			c0.1-1,0.1-2.1,0.2-3.1c0-10.3,0-20.7,0-31c0-0.9-0.1-1.7-0.4-2.6c-0.5-1.2-1.1-2.2-2.2-3c7.5,0,15,0,22.4,0
			C26-10,25.5-9.7,25.2-9.3c-1,1.3-1.5,2.8-1.5,4.4c0,10.8-0.1,21.6,0,32.4c0,3.3,0.8,6.6,2.4,9.5C26.9,38.3,27.9,39.5,29.3,40.3z
			 M15.2-6.6c-2.8,0-5.1,2.2-5.1,5c0,2.8,2.2,5,5,5.1c2.8,0,5-2.2,5.1-5C20.2-4.4,18-6.6,15.2-6.6z"/>
		<path class="st2" d="M139.8,19.9c0-5.7,0-11.4,0-17.1c2.9,0,5.7,0,8.6,0c-0.9,0.8-1.1,2-1.1,3.1c-0.1,1.7,0,3.3,0,5
			c0,9.5,0,19.1,0,28.6c0,0.1,0,0.2,0,0.4c0,0.3-0.1,0.4-0.4,0.4c-2.2,0-4.5,0-6.7,0c-0.3,0-0.4-0.1-0.5-0.4
			c-1.6-5.4-3.3-10.9-5-16.3c0-0.1-0.1-0.2-0.1-0.4c0,0-0.1,0-0.1,0c0,5.7,0,11.3,0,17c-2.5,0-4.9,0-7.4,0c0-12.5,0-24.9,0-37.4
			c0.1,0,0.3,0,0.4,0c2.2,0,4.4,0,6.6,0c0.3,0,0.4,0.1,0.5,0.4c1.7,5.5,3.3,10.9,5,16.4C139.6,19.7,139.7,19.8,139.8,19.9
			C139.7,19.9,139.8,19.9,139.8,19.9z"/>
		<path class="st2" d="M98.9,40.2c2.1-12.5,4.1-24.9,6.2-37.4c3.9,0,7.8,0,11.7,0c-0.9,1.3-0.6,2.8-0.4,4.2c0.4,2.9,0.9,5.7,1.4,8.5
			c0.4,2.7,0.9,5.3,1.3,8c0.5,2.8,0.9,5.6,1.4,8.4c0.4,2.6,0.9,5.3,1.3,7.9c0,0.1,0,0.2,0,0.3c-0.2,0-0.3,0-0.4,0
			c-2.3,0-4.6,0-6.8,0c-0.3,0-0.4-0.1-0.4-0.4c-0.2-2-0.5-4.1-0.7-6.1c0-0.4-0.1-0.7-0.1-1.1c0-0.2-0.1-0.3-0.3-0.3
			c-1.7,0-3.4,0-5.1,0c-0.2,0-0.3,0.1-0.3,0.3c-0.2,2-0.5,4-0.7,6c-0.1,0.4-0.1,0.9-0.2,1.3c0,0.2-0.1,0.3-0.3,0.3
			c-2.4,0-4.8,0-7.2,0C99,40.3,99,40.3,98.9,40.2z M110.3,9.6c0,0-0.1,0-0.1,0c-0.7,5.5-1.4,11.1-2.1,16.6c1.5,0,2.9,0,4.3,0
			C111.7,20.7,111,15.2,110.3,9.6z"/>
		<path class="st2" d="M75.8,2.8C75.6,3,75.6,3,75.5,3.1c-0.8,0.6-1,1.4-1,2.3c0,1.1-0.1,2.3,0,3.4c0,0.3-0.1,0.4-0.4,0.4
			c-3.3,0-6.7,0-10,0c-0.5,0-0.5,0-0.5,0.5c0,2.5,0,5,0,7.5c0,0.4,0.1,0.5,0.5,0.5c2.7,0,5.4,0,8.1,0c0.1,0,0.3,0,0.4,0
			c0,2.1,0,4.2,0,6.3c-3,0-6,0-9,0c0,3.4,0,6.7,0,10c3.7,0,7.3,0,11,0c0,2.1,0,4.2,0,6.3c-0.2,0-0.3,0-0.4,0c-5.8,0-11.7,0-17.5,0
			c-0.5,0-0.5,0-0.5-0.5c0-12.1,0-24.3,0-36.4c0-0.5,0-0.5,0.5-0.5c6.3,0,12.5,0,18.8,0C75.4,2.8,75.5,2.8,75.8,2.8z"/>
		<path class="st2" d="M99.4,2.9c-0.2,0.2-0.3,0.4-0.5,0.6c-0.6,0.7-0.8,1.5-0.8,2.4c0,0.9,0,1.9,0,2.8c0,0.1,0,0.3,0,0.4
			c-0.2,0-0.3,0-0.5,0c-1.8,0-3.6,0-5.4,0c-0.6,0-0.6,0-0.6,0.5c0,10,0,20,0,30c0,0.2,0,0.4,0,0.6c-2.5,0-4.9,0-7.4,0
			c0-0.2,0-0.4,0-0.5c0-9.9,0-19.9,0-29.8c0-0.1,0-0.2,0-0.4c0-0.3-0.1-0.4-0.4-0.4c-1.8,0-3.7,0-5.5,0c-0.1,0-0.3,0-0.4,0
			c0-2.1,0-4.2,0-6.3C85,2.9,92.2,2.9,99.4,2.9z"/>
	</g>
</g>
<g id="OCBC">
	<g>
		<path class="st2" d="M8.2,39.8c9.6,0,19.1,0,28.6,0c0,0,0.1-0.1,0.2-0.2c-10.1-0.4-20.1-0.8-30.1-1.2c0-0.1,0-0.1,0-0.2
			c0.2,0,0.4,0,0.6,0c10.2,0,20.4,0,30.5,0c0.2,0,0.5,0,0.7-0.1c0-0.1,0-0.2,0-0.2c-11.1-0.5-22.2-1-33.2-1.6c0,0,0,0,0-0.1
			c0.2,0,0.4,0,0.5,0c4.2,0,8.4,0,12.6,0c3.7,0,7.3-0.6,10.7-2.2c3.8-1.9,6.3-4.9,6.9-9.1c0.9-5.8-2.9-11.5-8.7-13
			c-2.1-0.6-4.3-0.5-6.4,0.1c-0.2,0-0.5,0-0.6-0.1c-2.6-2.9-5.2-5.8-7.8-8.7c0,0,0-0.1,0-0.1c8.1-5.1,21.6-4.9,30,5.4
			C51,18.9,49.1,34.1,38.5,42C28.2,49.7,15,47.1,8.2,39.8z"/>
		<path class="st2" d="M116.6,22.5c0.1,0.1,0.2,0.1,0.3,0.1c2.9,0.7,4.9,3.9,3.5,7.5c-0.8,2.1-2.4,3.3-4.5,4.1
			c-1.8,0.7-3.7,0.9-5.6,0.9c-2.4,0-4.8-0.1-7.3-0.1c-0.2,0-0.4,0-0.6,0c0-7.8,0-15.5,0-23.3c0.1,0,0.2-0.1,0.4-0.1
			c3.5,0,7-0.1,10.5,0c1.2,0,2.4,0.4,3.6,0.8c2.1,0.8,3.3,2.4,3.4,4.7c0.1,2.3-1.1,3.9-3,5C117.1,22.2,116.9,22.3,116.6,22.5z
			 M108.3,27.8c0,0.8,0,1.6,0,2.4c0,0.1,0.2,0.4,0.3,0.4c1,0,2.1,0.1,3.1,0c0.5,0,0.9-0.2,1.4-0.4c1.1-0.5,1.6-1.4,1.5-2.7
			c-0.1-1.1-0.8-1.8-1.8-2.2c-1.4-0.5-2.8-0.4-4.2-0.4c-0.1,0-0.3,0.3-0.3,0.4C108.3,26.2,108.3,27,108.3,27.8z M108.3,15.7
			c0,1.9,0,3.5,0,5.3c0.6,0,1.2,0,1.8,0c0.3,0,0.5,0,0.8,0c0.6-0.1,1.3-0.2,1.9-0.5c1.1-0.5,1.6-1.4,1.5-2.6
			c-0.1-0.9-0.7-1.7-1.9-1.9C111,15.8,109.7,15.8,108.3,15.7z"/>
		<path class="st2" d="M66.6,11.1c1.8,0.1,3.6,0.3,5.2,1c2.5,1,4.4,2.8,5.3,5.3c1.4,3.6,1.4,7.3-0.2,10.9c-1.7,3.9-4.9,6.1-9,6.8
			c-2.3,0.4-4.6,0.3-6.8-0.4c-3.1-0.9-5.3-2.8-6.3-5.9c-1.1-3.1-1.3-6.3-0.2-9.4c1.5-4.6,4.8-7.2,9.5-8.1
			C64.9,11.2,65.8,11.2,66.6,11.1z M72.1,23.2c-0.2-1-0.2-1.9-0.5-2.9c-0.4-1.7-1.3-3.1-3-3.8c-3.1-1.2-6.8-0.2-8,3.6
			c-0.8,2.4-0.6,4.8,0.2,7.1c0.4,1.1,1.1,1.9,2.1,2.5c2.3,1.3,6.4,1.1,8.2-2.2C71.8,26.2,72,24.7,72.1,23.2z"/>
		<path class="st2" d="M162.4,22.5c0.3,0.1,0.4,0.1,0.6,0.2c2.4,0.7,4,3,3.8,5.5c-0.3,3.2-2.3,5.5-5.7,6.4c-1.4,0.4-2.8,0.5-4.3,0.5
			c-1.9,0-3.8-0.1-5.7-0.1c-0.3,0-0.6,0-0.9,0c0-7.8,0-15.5,0-23.3c0.1,0,0.2-0.1,0.3-0.1c3.1,0,6.2-0.1,9.3,0c1,0,2,0.3,2.9,0.6
			c2.1,0.8,3.4,2.2,3.5,4.5c0.2,2.5-0.9,4.2-3,5.4C163,22.2,162.7,22.3,162.4,22.5z M154.8,24.7c0,2.2,0,4.4,0,6.6
			c1.6,0.1,3.2,0.3,4.7-0.2c0.9-0.3,1.7-0.9,2.1-1.9c0.6-1.7,0.2-3.6-2.2-4.2C157.9,24.5,156.4,24.7,154.8,24.7z M154.8,21.3
			c1.4,0,2.9,0.1,4.2-0.3c0.4-0.1,0.8-0.3,1.1-0.5c1.1-0.7,1.4-1.8,1.2-3c-0.2-1.2-0.9-1.9-2-2.2c-1.5-0.4-3-0.2-4.5-0.1
			C154.8,17.2,154.8,19.3,154.8,21.3z"/>
		<path class="st2" d="M140.6,16.9c-1.7-0.5-3.4-0.7-5.1-0.6c-2.9,0.2-4.9,1.8-5.5,4.7c-0.4,1.7-0.3,3.4,0.1,5.1
			c0.7,2.6,2.6,4,5.2,4.2c1.8,0.1,3.6-0.2,5.4-0.7c0.1,0.9,0.3,1.9,0.4,2.8c0.1,0.5,0.2,1.1,0.2,1.6c0,0.1-0.1,0.4-0.3,0.4
			c-3.8,1-7.5,1.3-11.3,0c-3.2-1.1-5.2-3.5-6-6.8c-0.7-3-0.6-6,0.5-9c1.5-4,4.5-6.1,8.6-6.9c2.6-0.5,5.1-0.4,7.7,0.1
			c0.7,0.1,0.7,0.1,0.6,0.9C141,14.1,140.8,15.5,140.6,16.9z"/>
		<path class="st2" d="M97.8,16.9c-1.7-0.5-3.4-0.7-5.1-0.6c-3.2,0.2-5.3,2.2-5.7,5.4c-0.2,1.4-0.2,2.9,0.2,4.3
			c0.6,2.7,2.5,4.3,5.3,4.4c0.9,0,1.8,0,2.7-0.1c0.9-0.1,1.8-0.3,2.7-0.5c0.1,0.9,0.3,1.8,0.4,2.7c0.1,0.5,0.2,1.1,0.2,1.6
			c0,0.1-0.1,0.4-0.3,0.4c-3.6,0.9-7.3,1.2-11,0.1c-3.3-1.1-5.4-3.3-6.3-6.7c-0.8-3-0.7-6,0.3-8.9c1.4-4.1,4.5-6.4,8.7-7.2
			c2.6-0.5,5.1-0.4,7.7,0.1c0.7,0.1,0.7,0.1,0.6,0.9C98.2,14.1,98,15.5,97.8,16.9z"/>
		<path class="st2" d="M216.4,25.7c2.2,3.1,4.3,6.1,6.6,9.2c-0.3,0-0.4,0-0.6,0c-1.5,0-3,0-4.5,0c-0.4,0-0.6-0.1-0.8-0.4
			c-1.6-2.5-3.2-4.9-4.8-7.4c-0.1-0.2-0.2-0.3-0.4-0.5c0,2.7,0,5.5,0,8.3c-1.5,0-2.9,0-4.4,0c0-8.4,0-16.7,0-25.1c1.4,0,2.9,0,4.4,0
			c0,5,0,10,0,15.1c0.2-0.3,0.3-0.4,0.4-0.5c1.5-2.1,3-4.1,4.5-6.2c0.2-0.3,0.4-0.4,0.7-0.4c1.7,0,3.3,0,5.1,0
			C220.5,20.4,218.5,23,216.4,25.7z"/>
		<path class="st2" d="M26.2,31c-7.9,0-15.8,0-23.7,0c-1.4-3.9-1.7-8-0.9-12.1c1.4,0.5,2.8,1,4.2,1.5c2.2,0.8,4.4,1.6,6.6,2.3
			c0.4,0.1,0.5,0.3,0.5,0.7c0,2.5,0.7,4.7,2.2,6.8c0.1,0.1,0.2,0.2,0.3,0.4c0,0,0.1,0,0,0c-0.4-1.1-0.8-2.3-1.1-3.4
			c-0.3-1.2-0.3-2.4-0.2-3.7c0.2,0.1,0.4,0.1,0.6,0.2c3.7,1.3,7.3,2.6,11,3.9c0.4,0.1,0.5,0.3,0.5,0.7C26.1,29.1,26.2,30,26.2,31z"
			/>
		<path class="st2" d="M170.5,22.1c-0.2-1.3-0.3-2.5-0.5-3.8c1.3-0.3,2.5-0.6,3.7-0.7c1.9-0.3,3.8-0.3,5.6,0.1
			c2.8,0.6,4.2,2.3,4.2,5.2c0,3.2,0,6.3,0,9.5c0,0.8,0,1.6,0,2.4c-1.3,0-2.7,0-4.2,0c0.1-0.9,0.1-1.7,0.2-2.6
			c-0.1,0.1-0.1,0.1-0.2,0.1c-1.5,2.3-3.7,3-6.3,2.8c-0.5,0-0.9-0.1-1.4-0.3c-2.1-0.7-3.2-2.7-2.8-5c0.3-1.6,1.2-2.8,2.5-3.7
			c1.4-0.9,3-1.4,4.7-1.6c0.9-0.1,1.9-0.2,2.8-0.3c0-0.5,0.1-1,0-1.5c-0.2-1.3-1.1-1.9-2.6-2c-2-0.1-3.9,0.2-5.7,1.2
			C170.6,22.1,170.6,22.1,170.5,22.1z M179,27.4c-0.5,0-1,0-1.5,0c-1.1,0.1-2.2,0.2-3.2,0.8c-1,0.6-1.4,1.6-1.1,2.6
			c0.3,0.9,1.3,1.3,2.4,1.1C177.8,31.6,179.2,29.6,179,27.4z"/>
		<path class="st2" d="M192.3,34.9c-1.5,0-2.9,0-4.4,0c0-5.7,0-11.4,0-17.1c1.4,0,2.7,0,4.2,0c-0.1,1-0.1,1.9-0.2,2.9
			c0.1-0.2,0.2-0.3,0.3-0.5c1.3-1.8,3-2.7,5.2-2.8c0.7,0,1.4,0,2.1,0.2c2,0.4,3.2,1.8,3.5,3.9c0.1,0.5,0.1,1,0.1,1.5
			c0,3.8,0,7.6,0,11.4c0,0.2,0,0.3,0,0.5c-1.5,0-2.9,0-4.4,0c0-0.2,0-0.4,0-0.6c0-3.3,0-6.7,0-10c0-0.4,0-0.8-0.1-1.3
			c-0.2-1.5-1.3-2.2-2.7-1.8c-1,0.2-1.8,0.8-2.4,1.7c-0.8,1.2-1.2,2.5-1.2,3.9c0,2.5,0,5,0,7.6C192.3,34.4,192.3,34.6,192.3,34.9z"
			/>
		<path class="st2" d="M5,10.5c3.3,2.1,6.6,4.1,9.8,6.1c-0.4,0.9-0.9,1.7-1.2,2.7c-0.3,0.9-0.5,1.8-0.8,2.8
			c-3.6-1.4-7.3-2.8-10.9-4.2C2.5,15.2,3.5,12.8,5,10.5z"/>
		<path class="st2" d="M15.5,15.9c-3.2-2.2-6.4-4.3-9.7-6.5c1.6-2.2,3.4-4,5.7-5.4c2.8,2.8,5.5,5.7,8.3,8.6
			C18.1,13.4,16.6,14.4,15.5,15.9z"/>
		<path class="st2" d="M26.2,27.1c-4-1.6-8-3.1-11.9-4.6c0.2-1.6,1.2-3.7,2.2-5c0.1,0.1,0.3,0.1,0.4,0.2c3,1.9,5.9,3.7,8.9,5.6
			c0.3,0.2,0.5,0.5,0.5,0.9C26.1,25.2,26.2,26.1,26.2,27.1z"/>
		<path class="st2" d="M2.8,31.8c2.3,0,4.5,0,6.8,0c0.2,0,0.4,0.2,0.6,0.4c0.5,0.8,1.3,1,2.2,1c3-0.1,5.9,0,9.1,0
			c-0.5,0.5-0.9,0.8-1.2,1.3c-0.6,0.9-1.4,1.1-2.5,1.1c-3.6-0.1-7.3,0-10.9,0c-0.3,0-0.5-0.1-0.6-0.4c-0.5-1-1.3-1.6-2.4-1.9
			c-0.3-0.1-0.6-0.2-0.7-0.6C3.1,32.4,2.9,32.2,2.8,31.8z"/>
		<path class="st2" d="M26.2,23.1C23.1,21,20,19,16.9,16.9c0.4-0.4,0.7-0.8,1.1-1.1c0.9-0.6,1.8-1.2,2.8-1.8
			c0.2-0.1,0.4-0.1,0.6,0.1c1.5,1.5,3,3,4.5,4.6c0.1,0.1,0.2,0.3,0.2,0.4C26.2,20.4,26.2,21.7,26.2,23.1z"/>
	</g>
</g>
</svg>
