<?xml version="1.0" encoding="utf-8"?>
<!-- Generator: Adobe Illustrator 22.1.0, SVG Export Plug-In . SVG Version: 6.00 Build 0)  -->
<svg version="1.1" id="Layer_1" xmlns="http://www.w3.org/2000/svg" xmlns:xlink="http://www.w3.org/1999/xlink" x="0px" y="0px"
	 viewBox="0 0 93.5 92.8" style="enable-background:new 0 0 93.5 92.8;" xml:space="preserve">
<style type="text/css">
	.st0{display:none;}
	.st1{display:inline;}
	.st2{fill:#FFFFFF;}
</style>
<g id="HBO" class="st0">
	<g class="st1">
		<g>
			<polygon class="st2" points="-14.4,24.2 -24.6,24.2 -24.6,2.6 -40.8,2.6 -40.8,60.7 -24.6,60.7 -24.6,38.1 -14.4,38.1 
				-14.4,60.7 1.4,60.7 1.4,2.6 -14.4,2.6 			"/>
			<path class="st2" d="M73.8,1.6c-16.4,0-24.6,11.9-26.6,16.8c0-7.2-7.2-15.8-15.5-15.8h-27v58.1h25.1c10.2,0,17.4-8.7,17.4-16.4
				c2.3,4.7,10.3,16.6,26.6,16.6c16.2,0,29.4-13.5,29.4-29.8C103.2,14.5,90,1.6,73.8,1.6z M27.8,47.1h-8v-9.8h8
				c2.3,0,4.2,2.3,4.2,4.8C32,44.9,30.1,47.1,27.8,47.1z M27.8,25.2h-8v-9.7h8c2.3,0,4.2,2.3,4.2,4.9C32,22.9,30.1,25.2,27.8,25.2z
				 M44.4,35.5c-1.3-1.9-4.2-4.1-6.1-4.5c1.9-0.1,4.9-2.3,6.1-3.6C44,29.1,44,34,44.4,35.5z M73.8,45.9c-8.1,0-14.7-6.6-14.7-14.8
				c0-8.1,6.6-14.8,14.7-14.8c8.2,0,14.8,6.6,14.8,14.8C88.6,39.3,82,45.9,73.8,45.9z"/>
		</g>
		<path class="st2" d="M73.8,19.5c-6.5,0-11.6,5.1-11.6,11.6s5.2,11.6,11.6,11.6c6.3,0,11.6-5.2,11.6-11.6S80.1,19.5,73.8,19.5z"/>
	</g>
</g>
<g id="Suntory" class="st0">
	<g id="layer1" class="st1">
		<g id="g47705">
			<path id="path47707" class="st2" d="M7.4,40.6H1.3c0.2-2,0.3-5.1,0.3-8.1v-2.7c0-3-0.1-6.4-0.4-8.1h3.5c1.3,0,2,0.4,2.2,1.3
				c1.5-1.1,3.4-1.8,5.3-1.7c6.5,0,7.3,3.9,7.3,6.8v5.3c0,2.4,0.1,4.8,0.3,7.3h-3.6c-1.7,0-2.5-1-2.5-2.7v-7.7
				c0-3.1-0.3-5.4-4.1-5.4c-0.8,0-1.7,0.1-2.5,0.4v6.8C7.2,34.5,7.2,38.6,7.4,40.6 M-10.6,21.6h6.1c-0.2,2-0.3,5.1-0.3,8.1v2.7
				c0,3.1,0.1,6.4,0.4,8.1h-3.5c-1.3,0-2-0.4-2.2-1.3c-1.5,1.2-3.4,1.8-5.3,1.8c-6.5,0-7.3-3.9-7.3-6.8v-5.3c0-2.4-0.1-4.9-0.4-7.3
				h3.6c1.7,0,2.5,1,2.5,2.7V32c0,3.1,0.3,5.4,4.1,5.4c0.8,0,1.7-0.1,2.5-0.4v-6.8C-10.4,27.7-10.5,23.6-10.6,21.6 M-27.9,26.1
				c-1.1-1-3.1-1.6-5.1-1.6c-1.5,0-3.2,0.2-3.2,1.9c0,1.2,1.4,1.8,3.6,2.6c2.5,1,5.5,2.2,5.5,5.7c0,5.7-6,6.4-8.8,6.4
				c-1.6,0-3.1-0.1-4.6-0.5c-1.3-0.4-1.6-0.9-1.6-2.7v-2.1c1.5,1,3.8,1.5,5.7,1.5c2.3,0,3.5-0.7,3.5-2.1c0-1.4-1.2-1.9-4.5-3.1
				c-2.2-0.9-4.6-2-4.6-5.3c0-4.8,5.4-6,8.7-6c1.6,0,3.1,0.2,4.6,0.8c0.9,0.4,0.9,0.9,0.9,2.1L-27.9,26.1z"/>
		</g>
		<g id="g47709">
			<path id="path47711" class="st2" d="M46.4,31c0,4.4,1.5,6.3,4.5,6.3c2.9,0,4.3-2,4.3-6.3s-1.4-6.4-4.3-6.4
				C47.9,24.6,46.4,26.7,46.4,31 M60.9,30.9c0,6.3-3.6,10.2-10.2,10.2c-6.5,0-9.9-3.6-9.9-10c0-6.4,3.6-10.1,10.1-10.1
				S60.9,24.5,60.9,30.9 M37,21.6c1.1,0,2.3-0.1,3.4-0.2c-0.2,0.9-0.5,1.9-0.9,2.8c-0.5,1.1-1.2,1.4-3.7,1.4h-2.2v6.5
				c0,2.4,0.1,6.5,0.3,8.5h-6.2c0.2-2,0.3-6.1,0.3-8.5v-6.5h-1.9c-1.7,0-3.1,0.2-3.8,0.6v-2.5c0-1.5,0.3-2.1,2.5-2.1L37,21.6z"/>
		</g>
		<g id="g47713">
			<path id="path47715" class="st2" d="M96.9,35.1v0.4c0,1.7,0.1,3.4,0.3,5.1H91c0.2-1.7,0.3-3.4,0.3-5.1v-0.4
				c0-0.8-0.2-1.6-0.9-2.9c-1.4-2.8-4.4-8.1-7-10.5c1.4-0.1,2.7-0.2,4.1-0.2c2.4,0,3.1,0.8,3.7,1.7c1.2,2.1,2.2,4.2,3.2,6.5
				c0.9-2.2,2-4.3,3.1-6.4c0.6-0.9,1.4-1.8,3.4-1.8c1.2,0,2.4,0.1,3.6,0.2c-1.9,1.7-5.4,7.6-6.9,10.2C97.1,32.9,96.9,34,96.9,35.1
				 M81.4,41.7c-2.3,0-2.8-0.9-4.3-3c-0.8-1.2-3.3-5.4-3.8-6.3c-0.2-0.4-0.3-0.8,0.1-1c1.9-1.1,2.4-2.2,2.4-3.6
				c0-1.5-0.7-2.8-2.8-2.8c-0.7,0-1.4,0.1-2,0.2v6.9c0,2.4,0.1,6.5,0.3,8.5h-5.9c0.2-1.9,0.3-5.1,0.3-8.1v-2.7
				c0-3.1-0.1-6.4-0.4-8.1c2.8,0,7-0.1,8.8-0.1c3.2,0,7.5,0.6,7.5,5.4c0,1.9-0.9,3.6-2.5,4.6c-0.3,0.2-0.3,0.4,0,0.8
				c2,3.1,4.5,6.5,6.8,8.9C84.3,41.5,82.9,41.6,81.4,41.7"/>
		</g>
	</g>
</g>
<g id="Furama" class="st0">
	<g class="st1">
		<path class="st2" d="M-11.4,42.5h7v-0.7h-1.6V28.8c2.4,0,2.8,2.5,2.8,5.5h0.5V23h-0.5c-0.1,2.8-0.3,5.1-2.8,5.1V16h0.7
			c3.6,0,4.7,2.8,5,7.2h0.6l-0.2-7.9h-11.4V16h1.3v25.8h-1.3V42.5z"/>
		<path class="st2" d="M8.2,35.7c0,4.4,1.7,7.3,5.2,7.3c4,0,5.3-2.7,5.3-7.3V17.3c0-1,0.3-1.3,1.3-1.3v-0.7h-3.5V16
			c1.1,0,1.5,0.3,1.5,1.7V36c0,3.4-1,6-3.2,6c-2,0-2.7-1.9-2.7-4.9V16h1.4v-0.7H6.8V16h1.3L8.2,35.7L8.2,35.7z"/>
		<path class="st2" d="M32.3,16h0.8c2.7,0,2.8,2.5,2.8,5.7c0,5.1-1.1,5.7-3.6,5.9L32.3,16L32.3,16z M27,42.5h6.7v-0.7h-1.4V28.3
			c2.4,0,2.8,1.4,2.8,3.7l0.1,5.1c0.1,2.6,0.6,5.7,3.4,5.7c1.1,0,2.2-0.4,2.6-0.7L41,41.4c-0.2,0.1-0.4,0.3-0.6,0.3
			c-0.7,0-1-0.5-1-2.9v-2c0-6.4-1.2-8.3-5.6-8.7V28c3-0.2,6.4-1.8,6.4-6.5c0-4.6-2.9-6.2-6.2-6.2h-7.2V16h1.3v25.8h-1.3L27,42.5
			L27,42.5z"/>
		<path class="st2" d="M53.6,33.6h-3.7l1.8-9.5h0.1L53.6,33.6z M46.5,42.5h3.6v-0.7c-0.4,0-1.4,0-1.4-0.9c0-0.3,0.2-1.5,0.5-3
			l0.7-3.6h3.9l1.4,7.5h-1.3v0.7h6.6v-0.7h-1.2l-5-26.5h-1.3l-4.8,24.9c-0.2,1.2-0.7,1.6-1.6,1.6C46.5,41.8,46.5,42.5,46.5,42.5z"/>
		<path class="st2" d="M66.2,42.5h3.6v-0.7c-1.2,0-1.5-0.3-1.5-3.6V16.5h0.1l4.6,26.1h0.9l4.5-25.8h0.1v25.1h-1.5v0.7h6.7v-0.7h-1.3
			V16h1.3v-0.7H78l-3,16.9h-0.1l-3-16.9h-5.6V16h1.3v22.2c0,3.3-0.2,3.6-1.4,3.6L66.2,42.5L66.2,42.5z"/>
		<path class="st2" d="M96,33.6h-3.6l1.8-9.5h0.1L96,33.6z M88.9,42.5h3.6v-0.7c-0.4,0-1.4,0-1.4-0.9c0-0.3,0.2-1.5,0.5-3l0.6-3.6
			h3.9l1.4,7.5h-1.3v0.7h6.6v-0.7h-1.2l-5-26.5h-1.3l-4.8,24.9c-0.2,1.2-0.7,1.6-1.6,1.6L88.9,42.5L88.9,42.5z"/>
		<path class="st2" d="M-18.3,15v7.8h-6.3c0,0-2.4-0.3-2.4,4.2c0,0,1.2-2.3,2.4-2.3h6.1v4.9H-25c0,0-1.9,0.1-1.9,1.4v15.7h130.7v0.8
			H-32.7v-0.6v-0.2V31c0-1.3-1.9-1.4-1.9-1.4h-6.6v-4.9h6.1c1.2,0,2.4,2.3,2.4,2.3c0-4.6-2.4-4.2-2.4-4.2h-6.3V15h6.5
			c0.8,0,1.7,0.5,3.2,2.3c1.5,1.8,1.3,3.3,1.3,3.3v26.1h1l0-25.6c0,0-0.1-2.1,1.4-3.9c1.5-1.8,2.4-2.3,3.2-2.3L-18.3,15L-18.3,15z"
			/>
	</g>
</g>
<g id="Isetan" class="st0">
	<g class="st1">
		<path class="st2" d="M-4.3,57.1c-0.5-0.1-1-0.2-1.4-0.3c-3.9-1-6.3-3.6-7.5-7.4c-0.3-1.1-0.4-2.2-0.6-3.4c0-0.2,0-0.3,0.2-0.4
			c2.1-0.8,4.1-1.5,6.2-2.3c0,0,0,0,0.1,0c0,0.5,0.1,1,0.1,1.5c0.1,1.3,0.3,2.7,0.9,3.9c0.4,1,1.1,1.8,2.2,2.1
			c0.8,0.2,1.6,0.2,2.4,0c1-0.3,1.5-1.1,1.7-2.1c0.3-1.4,0.1-2.7-0.7-3.9c-0.9-1.4-2-2.6-3.2-3.6c-1.3-1.1-2.6-2.2-3.8-3.3
			c-2.2-1.9-4-4.1-5-6.9c-2.2-6,1.7-11.4,7-12.7c4.2-1,8.1,0.8,10.3,4.7c0.3,0.6,0.7,1.2,1,1.9c0.4,0.8,0.9,1.5,1.7,2
			c-2.4,0.9-4.7,1.8-6.9,2.6c-0.3-0.9-0.5-1.8-0.8-2.7c-0.2-0.6-0.6-1.2-1-1.6c-0.8-0.8-1.7-1.2-2.8-0.9c-1.2,0.4-2,1.2-2.2,2.4
			c-0.3,1.7,0.3,3.2,1.3,4.6c1,1.3,2.2,2.2,3.5,3.2c1.6,1.1,3.1,2.2,4.5,3.6c1.5,1.5,2.8,3.2,3.5,5.3c2.1,5.8-1.8,12.4-7.8,13.5
			C-1.7,57-2,57-2.3,57.1C-3,57.1-3.6,57.1-4.3,57.1z"/>
		<path class="st2" d="M-14.2,56c-9.5,0-18.9,0-28.2,0c0,0,0-0.1,0-0.1c1.9-1.1,3-2.8,3.8-4.8c0.8-2,1.3-4,1.5-6.1
			c0.1-1,0.1-2.1,0.1-3.1c0-10.3,0-20.7,0-31c0-0.9-0.1-1.7-0.4-2.6c-0.5-1.2-1.1-2.2-2.2-3c7.5,0,15,0,22.4,0
			c-0.4,0.3-0.8,0.7-1.1,1.1c-1,1.3-1.5,2.8-1.5,4.4c0,10.8-0.1,21.6,0,32.4c0,3.3,0.8,6.6,2.4,9.5C-16.6,54.1-15.6,55.2-14.2,56z
			 M-28.3,9.2c-2.8,0-5.1,2.2-5.1,5c0,2.8,2.2,5,5,5.1c2.8,0,5-2.2,5.1-5C-23.3,11.4-25.5,9.2-28.3,9.2z"/>
		<path class="st2" d="M96.2,35.7c0-5.7,0-11.4,0-17.1c2.9,0,5.7,0,8.6,0c-0.9,0.8-1.1,2-1.1,3.1c-0.1,1.7,0,3.3,0,5
			c0,9.5,0,19.1,0,28.6c0,0.1,0,0.2,0,0.4c0,0.3-0.1,0.4-0.4,0.4c-2.2,0-4.5,0-6.7,0c-0.3,0-0.4-0.1-0.5-0.4
			c-1.6-5.4-3.3-10.9-5-16.3c0-0.1-0.1-0.2-0.1-0.4c0,0-0.1,0-0.1,0c0,5.7,0,11.3,0,17c-2.5,0-4.9,0-7.4,0c0-12.5,0-24.9,0-37.4
			c0.1,0,0.3,0,0.4,0c2.2,0,4.4,0,6.6,0c0.3,0,0.4,0.1,0.5,0.4c1.7,5.5,3.3,10.9,5,16.4C96.1,35.5,96.2,35.6,96.2,35.7
			C96.2,35.7,96.2,35.7,96.2,35.7z"/>
		<path class="st2" d="M55.4,56c2.1-12.5,4.1-24.9,6.2-37.4c3.9,0,7.8,0,11.7,0c-0.9,1.3-0.6,2.8-0.4,4.2c0.4,2.9,0.9,5.7,1.4,8.5
			c0.4,2.7,0.9,5.3,1.3,8c0.5,2.8,0.9,5.6,1.4,8.4c0.4,2.6,0.9,5.3,1.3,7.9c0,0.1,0,0.2,0,0.3c-0.2,0-0.3,0-0.4,0
			c-2.3,0-4.6,0-6.8,0c-0.3,0-0.4-0.1-0.4-0.4c-0.2-2-0.5-4.1-0.7-6.1c0-0.4-0.1-0.7-0.1-1.1c0-0.2-0.1-0.3-0.3-0.3
			c-1.7,0-3.4,0-5.1,0c-0.2,0-0.3,0.1-0.3,0.3c-0.2,2-0.5,4-0.7,6c-0.1,0.4-0.1,0.9-0.2,1.3c0,0.2-0.1,0.3-0.3,0.3
			c-2.4,0-4.8,0-7.2,0C55.5,56,55.5,56,55.4,56z M66.8,25.4c0,0-0.1,0-0.1,0C66,30.9,65.3,36.5,64.6,42c1.5,0,2.9,0,4.3,0
			C68.2,36.5,67.5,30.9,66.8,25.4z"/>
		<path class="st2" d="M32.2,18.6c-0.1,0.1-0.2,0.2-0.2,0.2c-0.8,0.6-1,1.4-1,2.3c0,1.1-0.1,2.3,0,3.4c0,0.3-0.1,0.4-0.4,0.4
			c-3.3,0-6.7,0-10,0c-0.5,0-0.5,0-0.5,0.5c0,2.5,0,5,0,7.5c0,0.4,0.1,0.5,0.5,0.5c2.7,0,5.4,0,8.1,0c0.1,0,0.3,0,0.4,0
			c0,2.1,0,4.2,0,6.3c-3,0-6,0-9,0c0,3.4,0,6.7,0,10c3.7,0,7.3,0,11,0c0,2.1,0,4.2,0,6.3c-0.2,0-0.3,0-0.4,0c-5.8,0-11.7,0-17.5,0
			c-0.5,0-0.5,0-0.5-0.5c0-12.1,0-24.3,0-36.4c0-0.5,0-0.5,0.5-0.5c6.3,0,12.5,0,18.8,0C31.9,18.6,32,18.6,32.2,18.6z"/>
		<path class="st2" d="M55.8,18.6c-0.2,0.2-0.3,0.4-0.5,0.6c-0.6,0.7-0.8,1.5-0.8,2.4c0,0.9,0,1.9,0,2.8c0,0.1,0,0.3,0,0.4
			c-0.2,0-0.3,0-0.5,0c-1.8,0-3.6,0-5.4,0c-0.6,0-0.6,0-0.6,0.5c0,10,0,20,0,30c0,0.2,0,0.4,0,0.6c-2.5,0-4.9,0-7.4,0
			c0-0.2,0-0.4,0-0.5c0-9.9,0-19.8,0-29.8c0-0.1,0-0.2,0-0.4c0-0.3-0.1-0.4-0.4-0.4c-1.8,0-3.7,0-5.5,0c-0.1,0-0.3,0-0.4,0
			c0-2.1,0-4.2,0-6.3C41.5,18.6,48.6,18.6,55.8,18.6z"/>
	</g>
</g>
<g id="OCBC" class="st0">
	<g class="st1">
		<path class="st2" d="M-37.7,42.2c6.4,0,12.6,0,18.9,0c0,0,0,0,0.1-0.1c-6.7-0.3-13.3-0.5-20-0.8c0,0,0-0.1,0-0.1
			c0.1,0,0.3,0,0.4,0c6.7,0,13.5,0,20.2,0c0.1,0,0.3,0,0.5,0c0,0,0-0.1,0-0.1c-7.4-0.3-14.7-0.7-22-1c0,0,0,0,0,0c0.1,0,0.2,0,0.4,0
			c2.8,0,5.6,0,8.4,0c2.5,0,4.9-0.4,7.1-1.5c2.5-1.2,4.2-3.2,4.6-6.1c0.6-3.9-1.9-7.6-5.7-8.6c-1.4-0.4-2.8-0.4-4.2,0.1
			c-0.1,0-0.3,0-0.4-0.1c-1.7-1.9-3.5-3.8-5.2-5.7c0,0,0,0,0-0.1c5.4-3.4,14.3-3.3,19.9,3.5c5.6,6.8,4.3,16.9-2.8,22.1
			C-24.4,48.7-33.2,47-37.7,42.2z"/>
		<path class="st2" d="M34.2,30.7c0.1,0,0.1,0.1,0.2,0.1c1.9,0.5,3.2,2.6,2.3,4.9c-0.6,1.4-1.6,2.2-3,2.7C32.5,38.9,31.3,39,30,39
			c-1.6,0-3.2,0-4.8-0.1c-0.1,0-0.3,0-0.4,0c0-5.2,0-10.3,0-15.4c0.1,0,0.2,0,0.2,0c2.3,0,4.7,0,7,0c0.8,0,1.6,0.2,2.4,0.5
			c1.4,0.5,2.2,1.6,2.3,3.1c0.1,1.5-0.7,2.6-2,3.3C34.5,30.5,34.4,30.6,34.2,30.7z M28.7,34.2c0,0.5,0,1.1,0,1.6
			c0,0.1,0.1,0.3,0.2,0.3c0.7,0,1.4,0,2.1,0c0.3,0,0.6-0.1,0.9-0.3c0.7-0.4,1-1,1-1.8c-0.1-0.8-0.5-1.2-1.2-1.4
			c-0.9-0.3-1.8-0.3-2.8-0.2c-0.1,0-0.2,0.2-0.2,0.3C28.7,33.2,28.7,33.7,28.7,34.2z M28.7,26.2c0,1.2,0,2.4,0,3.5
			c0.4,0,0.8,0,1.2,0c0.2,0,0.3,0,0.5,0c0.4-0.1,0.9-0.2,1.3-0.3c0.7-0.3,1.1-1,1-1.7c-0.1-0.6-0.5-1.1-1.3-1.2
			C30.5,26.3,29.6,26.3,28.7,26.2z"/>
		<path class="st2" d="M1,23.1c1.2,0,2.4,0.2,3.5,0.7c1.7,0.7,2.9,1.9,3.5,3.5c0.9,2.4,0.9,4.9-0.1,7.2c-1.1,2.6-3.2,4-6,4.5
			c-1.5,0.3-3,0.2-4.5-0.3c-2-0.6-3.5-1.9-4.2-3.9c-0.7-2-0.8-4.2-0.2-6.2c1-3.1,3.2-4.8,6.3-5.4C-0.1,23.2,0.5,23.2,1,23.1z
			 M4.7,31.2c-0.1-0.6-0.2-1.3-0.3-1.9c-0.3-1.1-0.9-2-2-2.5c-2-0.8-4.5-0.1-5.3,2.4c-0.5,1.6-0.4,3.2,0.2,4.7
			c0.3,0.7,0.7,1.3,1.4,1.7C0.1,36.4,2.8,36.2,4,34C4.5,33.1,4.6,32.2,4.7,31.2z"/>
		<path class="st2" d="M64.6,30.7c0.2,0.1,0.3,0.1,0.4,0.1c1.6,0.5,2.6,2,2.5,3.7c-0.2,2.2-1.5,3.6-3.7,4.2C62.8,39,61.8,39,60.9,39
			c-1.3,0-2.5,0-3.8-0.1c-0.2,0-0.4,0-0.6,0c0-5.2,0-10.3,0-15.5c0.1,0,0.1,0,0.2,0c2.1,0,4.1,0,6.2,0c0.7,0,1.3,0.2,1.9,0.4
			c1.4,0.5,2.2,1.5,2.3,3c0.1,1.6-0.6,2.8-2,3.6C65,30.5,64.8,30.6,64.6,30.7z M59.5,32.1c0,1.5,0,2.9,0,4.4
			c1.1,0.1,2.1,0.2,3.1-0.2c0.6-0.2,1.2-0.6,1.4-1.2c0.4-1.1,0.1-2.4-1.5-2.8C61.6,32.1,60.6,32.1,59.5,32.1z M59.5,29.9
			c0.9,0,1.9,0.1,2.8-0.2c0.2-0.1,0.5-0.2,0.7-0.3c0.7-0.5,0.9-1.2,0.8-2c-0.1-0.8-0.6-1.2-1.3-1.5c-1-0.3-2-0.1-3-0.1
			C59.5,27.2,59.5,28.5,59.5,29.9z"/>
		<path class="st2" d="M50.1,27c-1.1-0.3-2.2-0.5-3.4-0.4c-1.9,0.1-3.2,1.2-3.7,3.1c-0.2,1.1-0.2,2.3,0.1,3.4
			c0.4,1.7,1.7,2.7,3.5,2.8c1.2,0.1,2.4-0.1,3.6-0.5c0.1,0.6,0.2,1.2,0.3,1.8c0.1,0.3,0.1,0.7,0.1,1.1c0,0.1-0.1,0.3-0.2,0.3
			c-2.5,0.7-5,0.8-7.5,0c-2.2-0.8-3.5-2.3-4-4.5c-0.5-2-0.4-4,0.3-6c1-2.6,3-4.1,5.7-4.6c1.7-0.3,3.4-0.3,5.1,0.1
			c0.5,0.1,0.5,0.1,0.4,0.6C50.4,25.1,50.2,26.1,50.1,27z"/>
		<path class="st2" d="M21.7,27c-1.1-0.3-2.3-0.5-3.4-0.4c-2.1,0.1-3.5,1.5-3.8,3.5c-0.1,1-0.1,1.9,0.1,2.8c0.4,1.8,1.7,2.8,3.5,2.9
			c0.6,0,1.2,0,1.8-0.1c0.6-0.1,1.2-0.2,1.8-0.4c0.1,0.6,0.2,1.2,0.3,1.8c0.1,0.3,0.1,0.7,0.1,1.1c0,0.1-0.1,0.3-0.2,0.3
			c-2.4,0.6-4.9,0.8-7.3,0c-2.2-0.7-3.6-2.2-4.2-4.4c-0.5-2-0.5-4,0.2-5.9c1-2.7,3-4.2,5.8-4.8c1.7-0.3,3.4-0.2,5.1,0.1
			c0.5,0.1,0.5,0.1,0.4,0.6C22,25.1,21.9,26.1,21.7,27z"/>
		<path class="st2" d="M100.4,32.8c1.4,2,2.9,4,4.4,6.1c-0.2,0-0.3,0-0.4,0c-1,0-2,0-3,0c-0.2,0-0.4-0.1-0.5-0.3
			c-1.1-1.6-2.1-3.3-3.2-4.9c-0.1-0.1-0.1-0.2-0.3-0.3c0,1.8,0,3.6,0,5.5c-1,0-1.9,0-2.9,0c0-5.5,0-11.1,0-16.7c1,0,1.9,0,2.9,0
			c0,3.3,0,6.6,0,10c0.1-0.2,0.2-0.3,0.3-0.4c1-1.4,2-2.8,3-4.1c0.1-0.2,0.3-0.3,0.5-0.3c1.1,0,2.2,0,3.4,0
			C103.1,29.3,101.8,31.1,100.4,32.8z"/>
		<path class="st2" d="M-25.8,36.3c-5.3,0-10.5,0-15.7,0c-0.9-2.6-1.1-5.3-0.6-8c1,0.3,1.9,0.7,2.8,1c1.4,0.5,2.9,1,4.4,1.5
			c0.2,0.1,0.3,0.2,0.3,0.5c0,1.6,0.5,3.1,1.5,4.5c0.1,0.1,0.1,0.2,0.2,0.2c0,0,0,0,0,0c-0.2-0.7-0.5-1.5-0.8-2.3
			c-0.2-0.8-0.2-1.6-0.1-2.5c0.2,0,0.3,0.1,0.4,0.1c2.4,0.8,4.9,1.7,7.3,2.6c0.2,0.1,0.4,0.2,0.3,0.5
			C-25.8,35.1-25.8,35.7-25.8,36.3z"/>
		<path class="st2" d="M69.9,30.5c-0.1-0.8-0.2-1.6-0.3-2.5c0.8-0.2,1.6-0.4,2.5-0.5c1.2-0.2,2.5-0.2,3.7,0.1
			c1.9,0.4,2.8,1.5,2.8,3.5c0,2.1,0,4.2,0,6.3c0,0.5,0,1,0,1.6c-0.9,0-1.8,0-2.8,0c0-0.6,0.1-1.1,0.1-1.7c-0.1,0-0.1,0.1-0.1,0.1
			c-1,1.5-2.4,2-4.2,1.9c-0.3,0-0.6-0.1-0.9-0.2c-1.4-0.5-2.1-1.8-1.8-3.3c0.2-1.1,0.8-1.9,1.7-2.5c0.9-0.6,2-0.9,3.1-1
			C74.3,32,75,32,75.6,32c0-0.3,0-0.7,0-1c-0.1-0.9-0.7-1.3-1.8-1.3c-1.3-0.1-2.6,0.2-3.8,0.8C70.1,30.4,70,30.4,69.9,30.5z
			 M75.6,33.9c-0.3,0-0.7,0-1,0c-0.7,0.1-1.4,0.1-2.1,0.5c-0.6,0.4-0.9,1.1-0.7,1.8c0.2,0.6,0.9,0.9,1.6,0.7
			C74.8,36.7,75.7,35.4,75.6,33.9z"/>
		<path class="st2" d="M84.4,38.9c-1,0-1.9,0-2.9,0c0-3.8,0-7.5,0-11.4c0.9,0,1.8,0,2.8,0c0,0.6-0.1,1.3-0.1,1.9
			c0.1-0.1,0.2-0.2,0.2-0.3c0.8-1.2,2-1.8,3.4-1.9c0.5,0,0.9,0,1.4,0.1c1.3,0.3,2.1,1.2,2.3,2.6c0,0.3,0.1,0.6,0.1,1
			c0,2.5,0,5,0,7.6c0,0.1,0,0.2,0,0.3c-1,0-1.9,0-2.9,0c0-0.1,0-0.3,0-0.4c0-2.2,0-4.4,0-6.7c0-0.3,0-0.6-0.1-0.8
			c-0.2-1-0.9-1.4-1.8-1.2c-0.7,0.1-1.2,0.6-1.6,1.1c-0.5,0.8-0.8,1.6-0.8,2.6c0,1.7,0,3.3,0,5C84.4,38.6,84.4,38.8,84.4,38.9z"/>
		<path class="st2" d="M-39.8,22.8c2.2,1.4,4.4,2.7,6.5,4c-0.3,0.6-0.6,1.2-0.8,1.8c-0.2,0.6-0.3,1.2-0.5,1.9
			c-2.4-0.9-4.8-1.8-7.2-2.8C-41.5,25.9-40.8,24.3-39.8,22.8z"/>
		<path class="st2" d="M-32.9,26.3c-2.1-1.4-4.3-2.8-6.4-4.3c1-1.4,2.3-2.6,3.8-3.6c1.8,1.9,3.7,3.8,5.5,5.7
			C-31.1,24.7-32.1,25.4-32.9,26.3z"/>
		<path class="st2" d="M-25.8,33.8c-2.7-1-5.3-2-7.9-3c0.2-1.1,0.8-2.5,1.5-3.3c0.1,0,0.2,0.1,0.2,0.1c2,1.2,3.9,2.5,5.9,3.7
			c0.2,0.1,0.3,0.3,0.3,0.6C-25.8,32.5-25.8,33.1-25.8,33.8z"/>
		<path class="st2" d="M-41.3,36.9c1.5,0,3,0,4.5,0c0.1,0,0.3,0.1,0.4,0.2c0.3,0.5,0.8,0.7,1.5,0.7c2,0,3.9,0,6,0
			c-0.3,0.3-0.6,0.5-0.8,0.8c-0.4,0.6-0.9,0.7-1.6,0.7c-2.4,0-4.8,0-7.2,0c-0.2,0-0.3,0-0.4-0.3c-0.3-0.7-0.9-1.1-1.6-1.2
			c-0.2,0-0.4-0.1-0.4-0.4C-41.1,37.3-41.2,37.1-41.3,36.9z"/>
		<path class="st2" d="M-25.8,31.1c-2.1-1.4-4.1-2.7-6.1-4.1c0.2-0.2,0.5-0.5,0.7-0.7c0.6-0.4,1.2-0.8,1.8-1.2
			c0.1-0.1,0.3-0.1,0.4,0.1c1,1,2,2,3,3c0.1,0.1,0.1,0.2,0.1,0.3C-25.8,29.3-25.8,30.2-25.8,31.1z"/>
	</g>
</g>
<g id="SATS">
	<g>
		<path class="st2" d="M48.3,92.8c-1,0-2.1,0-3.2,0c-0.2,0-0.4-0.1-0.5-0.1c-1.6-0.1-3.2-0.2-4.7-0.4c-4.8-0.7-9.4-2.1-13.8-4.3
			c-6-2.9-11.1-6.9-15.4-12.1C4.4,68.3,0.9,59.6,0.1,49.7c0-0.7-0.1-1.4-0.1-2.1c0-0.7,0-1.4,0-2.1c0-0.2,0.1-0.4,0.1-0.7
			c0.1-2.6,0.4-5.3,1-7.9c1.8-8.3,5.6-15.6,11.4-21.7c8.1-8.6,18-13.5,29.7-14.7c5.2-0.5,10.3-0.2,15.4,1c8.5,2,15.8,6,22,12.1
			c8.2,8.1,12.8,17.9,13.8,29.3c0.3,3.2,0.2,6.5-0.3,9.7c-0.6,4.1-1.7,8.1-3.3,11.9C86.2,72.6,81,79.1,74,84.1
			c-3.9,2.8-8.1,4.9-12.6,6.3c-3.7,1.2-7.4,1.9-11.2,2.2C49.5,92.7,48.9,92.7,48.3,92.8z M39.4,42.7c0.5-0.3,0.9-0.5,1.4-0.7
			c2.3-1,4.7-1.2,7.1-0.8c0.6,0.1,1.2,0.3,1.7,0.6c0.7,0.4,0.6,1.4-0.2,1.7c-0.3,0.1-0.5,0.2-0.8,0.2c-1.4,0.2-2.9,0.3-4.3,0.5
			c-1.5,0.2-3,0.4-4.4,0.9c-1.5,0.5-2.7,1.4-3.2,3c-0.7,2.5,0,5.3,3,6.7c1.3,0.6,2.8,0.9,4.2,1c2.4,0.2,4.7-0.2,6.9-1.2
			c2.1-0.9,3.1-2.4,3.1-4.7c0-2.3,0-4.7,0-7c0-0.3,0-0.5,0-0.8c-0.3-1.7-1.3-2.9-2.8-3.7c-1.5-0.8-3.1-1-4.7-1.1
			c-2.3-0.1-4.6,0.3-6.7,1.2c-0.9,0.4-1.7,0.9-2.6,1.3C37.9,40.8,38.6,41.8,39.4,42.7z M31.9,42.7c0.8-0.9,1.5-1.8,2.3-2.8
			c-0.2-0.1-0.3-0.2-0.5-0.3c-3.2-1.8-6.6-2.6-10.2-2.2c-1.6,0.2-3.2,0.7-4.5,1.7c-2.9,2.3-1.9,5.9,0.1,7.2c0.7,0.4,1.5,0.8,2.2,1
			c1.9,0.6,4,0.6,5.9,0.7c0.9,0.1,1.9,0.1,2.8,0.6c1,0.5,1.2,1.7,0.3,2.4c-0.4,0.3-0.9,0.6-1.5,0.8c-2.3,0.6-4.6,0.4-6.8-0.3
			c-0.8-0.3-1.6-0.7-2.5-1c-0.7,0.9-1.5,1.8-2.3,2.8c0.8,0.4,1.6,0.9,2.4,1.3c3.1,1.3,6.3,1.6,9.6,0.9c1.3-0.3,2.6-0.8,3.6-1.7
			c1.3-1.2,1.8-2.7,1.7-4.4c-0.1-1.7-0.8-3.1-2.4-3.9c-1.2-0.6-2.6-0.9-3.9-1.1c-1.6-0.2-3.1-0.3-4.7-0.5c-0.7-0.1-1.3-0.3-2-0.5
			c-0.3-0.1-0.6-0.3-0.6-0.8c0-0.4,0.2-0.7,0.6-0.9c0.3-0.1,0.6-0.3,0.9-0.4C25.8,40.6,29,40.9,31.9,42.7z M70.8,53.3
			c0.5,0.3,0.9,0.6,1.4,0.8c3.5,1.8,7.1,2.2,10.9,1.3c2.7-0.6,4.7-2.2,5-5.1c0.2-2.1-0.5-4.2-2.9-5.1c-1.1-0.4-2.3-0.7-3.4-0.9
			c-1.5-0.2-3.1-0.3-4.7-0.5c-0.7-0.1-1.5-0.3-2.1-0.6c-0.7-0.3-0.7-1-0.1-1.5c0.3-0.2,0.7-0.4,1-0.5c2.2-0.5,4.3-0.5,6.4,0.1
			c1,0.3,2,0.8,3,1.2c0.7-0.8,1.5-1.8,2.2-2.7c-0.2-0.1-0.3-0.2-0.5-0.3C84,37.8,80.6,37,77,37.4c-1.6,0.2-3.1,0.6-4.3,1.6
			c-1.9,1.5-2.5,3.6-1.4,5.7c0.7,1.4,2,2.1,3.4,2.5c2,0.6,4.1,0.6,6.2,0.8c0.9,0.1,1.8,0.1,2.7,0.6c1.1,0.6,1.2,1.8,0.2,2.5
			c-0.4,0.3-0.9,0.5-1.3,0.7c-2.3,0.6-4.6,0.4-6.8-0.3c-0.8-0.3-1.6-0.7-2.5-1C72.3,51.4,71.6,52.3,70.8,53.3z M69.2,53.2
			c-0.8-0.9-1.5-1.8-2.3-2.8c-0.1,0.1-0.2,0.2-0.3,0.2c-0.6,0.6-1.3,1-2.1,1.3c-1.7,0.5-3.2-0.2-3.8-1.9c-0.2-0.5-0.3-1.1-0.3-1.6
			c0-1.8,0-3.6,0-5.5c0-0.1,0-0.2,0-0.3c2.5,0,4.9,0,7.3,0c0-1.2,0-2.3,0-3.4c-2.5,0-4.9,0-7.4,0c0-1.5,0-2.9,0-4.4
			c-1.2,0.5-2.3,1-3.4,1.5c-0.3,0.1-0.4,0.3-0.4,0.6c0,3.7,0,7.5,0,11.2c0,0.7,0,1.5,0.2,2.2c0.4,2.1,1.3,3.9,3.4,4.8
			c1.6,0.7,3.2,0.9,4.9,0.5C66.7,55.3,68.1,54.4,69.2,53.2z"/>
		<path class="st2" d="M50.1,47.1c0,0.9,0,1.9,0,2.8c0,0.7-0.4,1.3-1.1,1.5c-0.7,0.3-1.5,0.5-2.3,0.7c-1.4,0.2-2.9,0.2-4.3-0.2
			c-0.5-0.1-1-0.4-1.4-0.6c-1.2-0.7-0.9-2.3,0.1-2.9c0.7-0.4,1.5-0.5,2.3-0.6c1.6-0.1,3.1-0.2,4.7-0.3
			C48.8,47.4,49.4,47.2,50.1,47.1z"/>
	</g>
</g>
</svg>
