<?xml version="1.0" encoding="utf-8"?>
<!-- Generator: Adobe Illustrator 22.1.0, SVG Export Plug-In . SVG Version: 6.00 Build 0)  -->
<svg version="1.1" id="Layer_1" xmlns="http://www.w3.org/2000/svg" xmlns:xlink="http://www.w3.org/1999/xlink" x="0px" y="0px"
	 viewBox="0 0 429.5 60.9" style="enable-background:new 0 0 429.5 60.9;" xml:space="preserve">
<style type="text/css">
	.st0{display:none;}
	.st1{display:inline;}
	.st2{fill:#FFFFFF;}
</style>
<g id="HBO" class="st0">
	<g class="st1">
		<g>
			<polygon class="st2" points="168.7,23.4 158.5,23.4 158.5,1.8 142.3,1.8 142.3,59.9 158.5,59.9 158.5,37.4 168.7,37.4 
				168.7,59.9 184.5,59.9 184.5,1.8 168.7,1.8 			"/>
			<path class="st2" d="M256.9,0.8c-16.4,0-24.6,11.9-26.6,16.8c0-7.2-7.2-15.8-15.5-15.8h-27v58.1h25.1c10.2,0,17.4-8.7,17.4-16.4
				c2.3,4.7,10.3,16.6,26.7,16.6c16.2,0,29.4-13.5,29.4-29.8C286.2,13.7,273,0.8,256.9,0.8z M210.8,46.3h-8v-9.8h8
				c2.3,0,4.2,2.3,4.2,4.8C215,44.1,213.1,46.3,210.8,46.3z M210.8,24.4h-8v-9.7h8c2.3,0,4.2,2.3,4.2,4.9S213.1,24.4,210.8,24.4z
				 M227.5,34.8c-1.3-1.9-4.2-4.1-6.1-4.5c1.9-0.1,4.9-2.3,6.1-3.6C227,28.3,227,33.2,227.5,34.8z M256.9,45.1
				c-8.1,0-14.8-6.6-14.8-14.8c0-8.1,6.6-14.8,14.8-14.8c8.2,0,14.8,6.6,14.8,14.8C271.6,38.5,265,45.1,256.9,45.1z"/>
		</g>
		<path class="st2" d="M256.9,18.7c-6.5,0-11.6,5.1-11.6,11.6s5.2,11.6,11.6,11.6c6.3,0,11.6-5.2,11.6-11.6S263.1,18.7,256.9,18.7z"
			/>
	</g>
</g>
<g id="Suntory">
	<g id="layer1">
		<g id="g47705">
			<path id="path47707" class="st2" d="M161.5,51.1H148c0.5-4.3,0.6-11.3,0.6-17.9v-6c0-6.7-0.2-14.1-1-17.9h7.7
				c2.9,0,4.3,1,4.8,2.9c3.4-2.5,7.5-3.9,11.7-3.9c14.4,0,16.2,8.7,16.2,15.1V35c-0.1,5.4,0.2,10.7,0.8,16h-7.9
				c-3.7,0-5.5-2.3-5.5-6v-17c0-6.7-0.6-11.9-9-11.9c-1.9,0-3.7,0.3-5.5,1v15.1C161.1,37.6,161.1,46.8,161.5,51.1 M121.7,9.2h13.5
				c-0.5,4.3-0.6,11.3-0.6,17.9v6c0,6.7,0.3,14.2,1,17.9h-7.6c-2.9,0-4.3-1-4.8-2.9c-3.4,2.6-7.5,3.9-11.7,3.9
				C96.9,52.1,95,43.4,95,36.9V25.3c0.1-5.4-0.2-10.7-0.8-16h8c3.7,0,5.5,2.3,5.5,6v17c0,6.7,0.7,11.9,9,11.9c1.9,0,3.7-0.3,5.5-1
				V27.9C122.2,22.6,122,13.5,121.7,9.2 M83.5,19.1c-2.4-2.3-6.7-3.6-11.3-3.6c-3.2,0-7,0.5-7,4.2c0,2.7,3.2,4,8,5.8
				c5.6,2.1,12.2,4.8,12.2,12.6c0,12.6-13.3,14.2-19.6,14.2c-3.5,0.1-6.9-0.3-10.3-1.1c-2.9-0.7-3.5-2-3.5-5.8v-4.6
				C55.3,43,60.4,44,64.5,44c5.1,0,7.7-1.4,7.7-4.6c0-3-2.7-4.2-9.9-6.9c-5-2-10.3-4.5-10.3-11.8c0-10.6,12-13.3,19.2-13.3
				c3.5-0.1,6.9,0.5,10.1,1.8c1.9,1,2.1,2,2.1,4.6L83.5,19.1z"/>
		</g>
		<g id="g47709">
			<path id="path47711" class="st2" d="M247.9,29.9c0,9.6,3.3,13.9,9.9,13.9c6.4,0,9.6-4.3,9.6-13.9s-3.2-14.1-9.6-14.1
				C251.2,15.8,247.9,20.3,247.9,29.9 M279.8,29.7c0,13.9-8,22.6-22.5,22.6c-14.4,0-21.8-7.9-21.8-22.2c0-14.2,7.9-22.3,22.3-22.3
				C272.3,7.9,279.8,15.6,279.8,29.7 M227,9.2c2.5,0,5.1-0.2,7.6-0.5c-0.5,2-1.1,4.1-2,6.1c-1.1,2.3-2.6,3.1-8.2,3.1h-4.8v14.3
				c0,5.3,0.2,14.5,0.6,18.8h-13.6c0.5-4.3,0.6-13.6,0.6-18.8V18H203c-3.7,0-6.9,0.5-8.5,1.4v-5.6c0-3.2,0.6-4.6,5.5-4.6H227z"/>
		</g>
		<g id="g47713">
			<path id="path47715" class="st2" d="M359.5,38.9v1c-0.1,3.8,0.2,7.6,0.6,11.3h-13.6c0.5-3.7,0.7-7.5,0.6-11.3v-1
				c0-1.7-0.5-3.5-1.9-6.4c-3-6.1-9.8-17.8-15.6-23.2c3-0.3,6-0.5,9-0.5c5.3,0,6.9,1.7,8.2,3.9c2.6,4.6,4.9,9.4,7,14.3
				c2-4.8,4.4-9.5,6.9-14.2c1.3-1.9,3-4,7.6-4c2.6,0,5.4,0.2,8,0.5c-4.2,3.7-12,16.7-15.3,22.6C360,34.1,359.4,36.5,359.5,38.9
				 M325.3,53.5c-5.1,0-6.3-1.9-9.5-6.6c-1.8-2.6-7.4-12-8.3-14c-0.5-1-0.6-1.7,0.3-2.3c4.2-2.4,5.3-5,5.3-7.9
				c0-3.4-1.4-6.3-6.3-6.3c-1.5,0-3,0.2-4.5,0.5v15.2c0,5.3,0.2,14.5,0.6,18.8h-13.2c0.5-4.2,0.7-11.3,0.7-17.9v-6
				c0-6.7-0.2-14.1-1-17.9c6.3,0,15.4-0.3,19.4-0.3c7,0,16.5,1.4,16.5,12c0.1,4.2-2,7.9-5.6,10.1c-0.6,0.5-0.6,0.8,0,1.7
				c4.5,6.7,9.9,14.3,14.9,19.6C331.6,53,328.4,53.4,325.3,53.5"/>
		</g>
	</g>
</g>
</svg>
