<?xml version="1.0" encoding="utf-8"?>
<!-- Generator: Adobe Illustrator 22.1.0, SVG Export Plug-In . SVG Version: 6.00 Build 0)  -->
<svg version="1.1" id="Layer_1" xmlns="http://www.w3.org/2000/svg" xmlns:xlink="http://www.w3.org/1999/xlink" x="0px" y="0px"
	 viewBox="0 0 378.7 62.5" style="enable-background:new 0 0 378.7 62.5;" xml:space="preserve">
<style type="text/css">
	.st0{display:none;}
	.st1{display:inline;}
	.st2{fill:#FFFFFF;}
</style>
<g id="HBO" class="st0">
	<g class="st1">
		<g>
			<polygon class="st2" points="143.7,24.2 133.5,24.2 133.5,2.6 117.3,2.6 117.3,60.7 133.5,60.7 133.5,38.1 143.7,38.1 
				143.7,60.7 159.5,60.7 159.5,2.6 143.7,2.6 			"/>
			<path class="st2" d="M231.9,1.6c-16.4,0-24.7,11.9-26.7,16.8c0-7.2-7.2-15.8-15.5-15.8h-27v58.1h25.1c10.2,0,17.4-8.7,17.4-16.4
				c2.3,4.7,10.3,16.6,26.7,16.6c16.2,0,29.4-13.5,29.4-29.8C261.3,14.5,248.1,1.6,231.9,1.6z M185.8,47.1h-8v-9.8h8
				c2.3,0,4.2,2.3,4.2,4.8C190,44.9,188.2,47.1,185.8,47.1z M185.8,25.2h-8v-9.7h8c2.3,0,4.2,2.3,4.2,4.9
				C190,22.9,188.2,25.2,185.8,25.2z M202.5,35.5c-1.3-1.9-4.2-4.1-6.1-4.5c1.9-0.1,4.9-2.3,6.1-3.6C202.1,29.1,202.1,34,202.5,35.5
				z M231.9,45.9c-8.2,0-14.8-6.6-14.8-14.8c0-8.1,6.6-14.8,14.8-14.8c8.1,0,14.8,6.6,14.8,14.8C246.6,39.3,240,45.9,231.9,45.9z"/>
		</g>
		<path class="st2" d="M231.9,19.5c-6.5,0-11.6,5.1-11.6,11.6s5.2,11.6,11.6,11.6c6.3,0,11.6-5.2,11.6-11.6S238.2,19.5,231.9,19.5z"
			/>
	</g>
</g>
<g id="Suntory" class="st0">
	<g id="layer1" class="st1">
		<g id="g47705">
			<path id="path47707" class="st2" d="M165.5,40.6h-6.1c0.2-2,0.3-5.1,0.3-8.1v-2.7c0-3-0.1-6.4-0.4-8.1h3.5c1.3,0,2,0.4,2.2,1.3
				c1.5-1.1,3.4-1.8,5.3-1.7c6.5,0,7.3,3.9,7.3,6.8v5.3c0,2.4,0.1,4.8,0.3,7.3h-3.6c-1.7,0-2.5-1-2.5-2.7v-7.7
				c0-3.1-0.3-5.4-4.1-5.4c-0.8,0-1.7,0.1-2.5,0.4v6.8C165.2,34.5,165.2,38.6,165.5,40.6 M147.4,21.6h6.1c-0.2,2-0.3,5.1-0.3,8.1
				v2.7c0,3.1,0.1,6.4,0.4,8.1h-3.5c-1.3,0-2-0.4-2.2-1.3c-1.5,1.2-3.4,1.8-5.3,1.8c-6.5,0-7.3-3.9-7.3-6.8v-5.3
				c0-2.4-0.1-4.9-0.4-7.3h3.6c1.7,0,2.5,1,2.5,2.7V32c0,3.1,0.3,5.4,4.1,5.4c0.8,0,1.7-0.1,2.5-0.4v-6.8
				C147.7,27.7,147.6,23.6,147.4,21.6 M130.2,26.1c-1.1-1-3.1-1.6-5.1-1.6c-1.4,0-3.2,0.2-3.2,1.9c0,1.2,1.4,1.8,3.6,2.6
				c2.5,1,5.5,2.2,5.5,5.7c0,5.7-6,6.4-8.9,6.4c-1.6,0-3.1-0.1-4.6-0.5c-1.3-0.4-1.6-0.9-1.6-2.7v-2.1c1.5,1,3.8,1.5,5.7,1.5
				c2.3,0,3.5-0.7,3.5-2.1c0-1.4-1.2-1.9-4.5-3.1c-2.2-0.9-4.6-2-4.6-5.3c0-4.8,5.4-6,8.7-6c1.6,0,3.1,0.2,4.6,0.8
				c0.9,0.4,0.9,0.9,0.9,2.1L130.2,26.1z"/>
		</g>
		<g id="g47709">
			<path id="path47711" class="st2" d="M204.5,31c0,4.4,1.5,6.3,4.5,6.3c2.9,0,4.3-2,4.3-6.3s-1.4-6.4-4.3-6.4
				C206,24.6,204.5,26.7,204.5,31 M218.9,30.9c0,6.3-3.6,10.2-10.2,10.2c-6.5,0-9.9-3.6-9.9-10c0-6.4,3.6-10.1,10.1-10.1
				S219,24.5,218.9,30.9 M195.1,21.6c1.1,0,2.3-0.1,3.4-0.2c-0.2,0.9-0.5,1.9-0.9,2.8c-0.5,1.1-1.2,1.4-3.7,1.4h-2.2v6.5
				c0,2.4,0.1,6.5,0.3,8.5h-6.2c0.2-2,0.3-6.1,0.3-8.5v-6.5h-1.9c-1.7,0-3.1,0.2-3.8,0.6v-2.5c0-1.5,0.3-2.1,2.5-2.1L195.1,21.6z"/>
		</g>
		<g id="g47713">
			<path id="path47715" class="st2" d="M255,35.1v0.4c0,1.7,0.1,3.4,0.3,5.1h-6.2c0.2-1.7,0.3-3.4,0.3-5.1v-0.4
				c0-0.8-0.2-1.6-0.9-2.9c-1.4-2.8-4.4-8.1-7-10.5c1.3-0.1,2.7-0.2,4.1-0.2c2.4,0,3.1,0.8,3.7,1.7c1.2,2.1,2.2,4.2,3.2,6.5
				c0.9-2.2,2-4.3,3.1-6.4c0.6-0.9,1.4-1.8,3.4-1.8c1.2,0,2.4,0.1,3.6,0.2c-1.9,1.7-5.4,7.6-6.9,10.2C255.2,32.9,255,34,255,35.1
				 M239.5,41.7c-2.3,0-2.8-0.9-4.3-3c-0.8-1.2-3.3-5.4-3.8-6.3c-0.2-0.4-0.3-0.8,0.2-1c1.9-1.1,2.4-2.2,2.4-3.6
				c0-1.5-0.7-2.8-2.8-2.8c-0.7,0-1.4,0.1-2,0.2v6.9c0,2.4,0.1,6.5,0.3,8.5h-5.9c0.2-1.9,0.3-5.1,0.3-8.1v-2.7
				c0-3.1-0.1-6.4-0.4-8.1c2.8,0,7-0.1,8.8-0.1c3.2,0,7.5,0.6,7.5,5.4c0,1.9-0.9,3.6-2.5,4.6c-0.3,0.2-0.3,0.4,0,0.8
				c2,3.1,4.5,6.5,6.8,8.9C242.4,41.5,240.9,41.6,239.5,41.7"/>
		</g>
	</g>
</g>
<g id="Furama" class="st0">
	<g class="st1">
		<path class="st2" d="M146.7,42.5h7v-0.7H152V28.8c2.4,0,2.8,2.5,2.8,5.5h0.5V23h-0.5c-0.1,2.8-0.4,5.1-2.8,5.1V16h0.7
			c3.6,0,4.7,2.8,4.9,7.2h0.6l-0.2-7.9h-11.4V16h1.3v25.8h-1.3V42.5z"/>
		<path class="st2" d="M166.3,35.7c0,4.4,1.6,7.3,5.2,7.3c4,0,5.3-2.7,5.3-7.3V17.3c0-1,0.3-1.3,1.3-1.3v-0.7h-3.5V16
			c1.1,0,1.5,0.3,1.5,1.7V36c0,3.4-1,6-3.2,6c-2,0-2.7-1.9-2.7-4.9V16h1.4v-0.7h-6.8V16h1.4L166.3,35.7L166.3,35.7z"/>
		<path class="st2" d="M190.4,16h0.8c2.7,0,2.8,2.5,2.8,5.7c0,5.1-1.1,5.7-3.6,5.9L190.4,16L190.4,16z M185,42.5h6.7v-0.7h-1.4V28.3
			c2.4,0,2.8,1.4,2.8,3.7l0.1,5.1c0.1,2.6,0.6,5.7,3.4,5.7c1.1,0,2.2-0.4,2.6-0.7l-0.2-0.7c-0.2,0.1-0.4,0.3-0.6,0.3
			c-0.6,0-1-0.5-1-2.9v-2c0-6.4-1.2-8.3-5.6-8.7V28c3-0.2,6.4-1.8,6.4-6.5c0-4.6-2.9-6.2-6.2-6.2H185V16h1.3v25.8H185L185,42.5
			L185,42.5z"/>
		<path class="st2" d="M211.7,33.6H208l1.8-9.5h0.1L211.7,33.6z M204.6,42.5h3.6v-0.7c-0.4,0-1.4,0-1.4-0.9c0-0.3,0.2-1.5,0.5-3
			l0.7-3.6h3.9l1.4,7.5h-1.3v0.7h6.6v-0.7h-1.2l-5-26.5H211l-4.8,24.9c-0.2,1.2-0.7,1.6-1.6,1.6C204.6,41.8,204.6,42.5,204.6,42.5z"
			/>
		<path class="st2" d="M224.2,42.5h3.6v-0.7c-1.2,0-1.5-0.3-1.5-3.6V16.5h0.1l4.6,26.1h0.9l4.5-25.8h0.1v25.1h-1.5v0.7h6.7v-0.7
			h-1.3V16h1.3v-0.7h-5.5l-3,16.9H233l-3-16.9h-5.6V16h1.3v22.2c0,3.3-0.2,3.6-1.4,3.6L224.2,42.5L224.2,42.5z"/>
		<path class="st2" d="M254.1,33.6h-3.6l1.8-9.5h0.1L254.1,33.6z M247,42.5h3.6v-0.7c-0.4,0-1.4,0-1.4-0.9c0-0.3,0.2-1.5,0.5-3
			l0.6-3.6h3.9l1.4,7.5h-1.3v0.7h6.6v-0.7h-1.2l-5-26.5h-1.3l-4.8,24.9c-0.2,1.2-0.7,1.6-1.6,1.6L247,42.5L247,42.5z"/>
		<path class="st2" d="M139.8,15v7.8h-6.3c0,0-2.4-0.3-2.4,4.2c0,0,1.2-2.3,2.4-2.3h6.1v4.9h-6.6c0,0-1.9,0.1-1.9,1.4v15.7h130.7
			v0.8H125.4v-0.6v-0.2V31c0-1.3-1.9-1.4-1.9-1.4h-6.6v-4.9h6.1c1.2,0,2.4,2.3,2.4,2.3c0-4.6-2.4-4.2-2.4-4.2h-6.3V15h6.5
			c0.8,0,1.7,0.5,3.2,2.3c1.5,1.8,1.3,3.3,1.3,3.3v26.1h1l0-25.6c0,0-0.1-2.1,1.4-3.9c1.5-1.8,2.4-2.3,3.2-2.3L139.8,15L139.8,15z"
			/>
	</g>
</g>
<g id="Isetan" class="st0">
	<g class="st1">
		<path class="st2" d="M153.8,57.1c-0.5-0.1-1-0.2-1.4-0.3c-3.9-1-6.3-3.6-7.5-7.4c-0.3-1.1-0.4-2.2-0.6-3.4c0-0.2,0-0.3,0.2-0.4
			c2.1-0.8,4.1-1.5,6.2-2.3c0,0,0.1,0,0.1,0c0,0.5,0.1,1,0.1,1.5c0.1,1.3,0.3,2.7,0.9,3.9c0.4,1,1.1,1.8,2.2,2.1
			c0.8,0.2,1.6,0.2,2.4,0c1-0.3,1.5-1.1,1.7-2.1c0.3-1.4,0.1-2.7-0.7-3.9c-0.9-1.4-2-2.6-3.2-3.6c-1.3-1.1-2.6-2.2-3.8-3.3
			c-2.2-1.9-4-4.1-5-6.9c-2.2-6,1.7-11.4,7-12.7c4.2-1,8.1,0.8,10.3,4.7c0.4,0.6,0.7,1.2,1,1.9c0.4,0.8,0.9,1.5,1.7,2
			c-2.4,0.9-4.6,1.8-6.9,2.6c-0.3-0.9-0.5-1.8-0.8-2.7c-0.2-0.6-0.6-1.2-1-1.6c-0.8-0.8-1.7-1.2-2.8-0.9c-1.2,0.4-2,1.2-2.2,2.4
			c-0.3,1.7,0.3,3.2,1.3,4.6c1,1.3,2.2,2.2,3.5,3.2c1.6,1.1,3.1,2.2,4.5,3.6c1.5,1.5,2.8,3.2,3.5,5.3c2.1,5.8-1.8,12.4-7.8,13.5
			c-0.3,0.1-0.7,0.1-1,0.2C155.1,57.1,154.4,57.1,153.8,57.1z"/>
		<path class="st2" d="M143.9,56c-9.5,0-18.9,0-28.2,0c0,0,0-0.1,0-0.1c1.9-1.1,3-2.8,3.8-4.8c0.8-2,1.3-4,1.5-6.1
			c0.1-1,0.1-2.1,0.1-3.1c0-10.3,0-20.7,0-31c0-0.9-0.1-1.7-0.4-2.6c-0.4-1.2-1.1-2.2-2.2-3c7.5,0,15,0,22.4,0
			c-0.3,0.3-0.8,0.7-1.1,1.1c-1,1.3-1.4,2.8-1.4,4.4c0,10.8-0.1,21.6,0,32.4c0,3.3,0.8,6.6,2.4,9.5C141.5,54.1,142.5,55.2,143.9,56z
			 M129.7,9.2c-2.8,0-5.1,2.2-5.1,5c0,2.8,2.2,5,5,5.1c2.8,0,5.1-2.2,5.1-5C134.8,11.4,132.6,9.2,129.7,9.2z"/>
		<path class="st2" d="M254.3,35.7c0-5.7,0-11.4,0-17.1c2.9,0,5.7,0,8.6,0c-1,0.8-1.1,2-1.1,3.1c0,1.7,0,3.3,0,5
			c0,9.5,0,19.1,0,28.6c0,0.1,0,0.2,0,0.4c0,0.3-0.1,0.4-0.4,0.4c-2.2,0-4.5,0-6.7,0c-0.3,0-0.4-0.1-0.5-0.4
			c-1.6-5.4-3.3-10.9-5-16.3c0-0.1-0.1-0.2-0.1-0.4c0,0-0.1,0-0.1,0c0,5.7,0,11.3,0,17c-2.5,0-4.9,0-7.4,0c0-12.5,0-24.9,0-37.4
			c0.1,0,0.3,0,0.4,0c2.2,0,4.4,0,6.6,0c0.3,0,0.4,0.1,0.5,0.4c1.7,5.5,3.3,10.9,5,16.4C254.2,35.5,254.2,35.6,254.3,35.7
			C254.3,35.7,254.3,35.7,254.3,35.7z"/>
		<path class="st2" d="M213.4,56c2.1-12.5,4.1-24.9,6.2-37.4c3.9,0,7.8,0,11.7,0c-0.9,1.3-0.6,2.8-0.4,4.2c0.4,2.9,0.9,5.7,1.4,8.5
			c0.4,2.7,0.9,5.3,1.3,8c0.5,2.8,0.9,5.6,1.4,8.4c0.4,2.6,0.9,5.3,1.3,7.9c0,0.1,0,0.2,0,0.3c-0.1,0-0.3,0-0.4,0
			c-2.3,0-4.6,0-6.8,0c-0.3,0-0.4-0.1-0.4-0.4c-0.2-2-0.5-4.1-0.7-6.1c0-0.4-0.1-0.7-0.1-1.1c0-0.2-0.1-0.3-0.3-0.3
			c-1.7,0-3.4,0-5.1,0c-0.2,0-0.3,0.1-0.3,0.3c-0.2,2-0.5,4-0.7,6c-0.1,0.4-0.1,0.9-0.2,1.3c0,0.2-0.1,0.3-0.3,0.3
			c-2.4,0-4.8,0-7.2,0C213.6,56,213.5,56,213.4,56z M224.9,25.4c0,0-0.1,0-0.1,0c-0.7,5.5-1.4,11.1-2.1,16.6c1.5,0,2.9,0,4.3,0
			C226.3,36.5,225.6,30.9,224.9,25.4z"/>
		<path class="st2" d="M190.3,18.6c-0.1,0.1-0.2,0.2-0.2,0.2c-0.8,0.6-1,1.4-1,2.3c0,1.1-0.1,2.3,0,3.4c0,0.3-0.1,0.4-0.4,0.4
			c-3.4,0-6.7,0-10.1,0c-0.5,0-0.5,0-0.5,0.5c0,2.5,0,5,0,7.5c0,0.4,0.1,0.5,0.5,0.5c2.7,0,5.4,0,8.1,0c0.1,0,0.3,0,0.4,0
			c0,2.1,0,4.2,0,6.3c-3,0-6,0-9,0c0,3.4,0,6.7,0,10c3.7,0,7.3,0,11,0c0,2.1,0,4.2,0,6.3c-0.2,0-0.3,0-0.4,0c-5.8,0-11.7,0-17.5,0
			c-0.5,0-0.5,0-0.5-0.5c0-12.1,0-24.3,0-36.4c0-0.5,0-0.5,0.5-0.5c6.3,0,12.5,0,18.8,0C190,18.6,190.1,18.6,190.3,18.6z"/>
		<path class="st2" d="M213.9,18.6c-0.2,0.2-0.3,0.4-0.5,0.6c-0.6,0.7-0.8,1.5-0.8,2.4c0,0.9,0,1.9,0,2.8c0,0.1,0,0.3,0,0.4
			c-0.2,0-0.3,0-0.5,0c-1.8,0-3.6,0-5.4,0c-0.6,0-0.6,0-0.6,0.5c0,10,0,20,0,30c0,0.2,0,0.4,0,0.6c-2.5,0-4.9,0-7.4,0
			c0-0.2,0-0.4,0-0.5c0-9.9,0-19.8,0-29.8c0-0.1,0-0.2,0-0.4c0-0.3-0.1-0.4-0.4-0.4c-1.9,0-3.7,0-5.5,0c-0.1,0-0.3,0-0.4,0
			c0-2.1,0-4.2,0-6.3C199.6,18.6,206.7,18.6,213.9,18.6z"/>
	</g>
</g>
<g id="OCBC" class="st0">
	<g class="st1">
		<path class="st2" d="M120.4,42.2c6.4,0,12.7,0,18.9,0c0,0,0,0,0.1-0.1c-6.7-0.3-13.3-0.5-20-0.8c0,0,0-0.1,0-0.1
			c0.1,0,0.3,0,0.4,0c6.8,0,13.5,0,20.2,0c0.2,0,0.3,0,0.5,0c0,0,0-0.1,0-0.1c-7.3-0.3-14.7-0.7-22-1c0,0,0,0,0,0c0.1,0,0.2,0,0.4,0
			c2.8,0,5.6,0,8.4,0c2.5,0,4.9-0.4,7.1-1.5c2.6-1.2,4.2-3.2,4.6-6.1c0.6-3.9-1.9-7.6-5.7-8.6c-1.4-0.4-2.8-0.4-4.2,0.1
			c-0.1,0-0.3,0-0.4-0.1c-1.7-1.9-3.5-3.8-5.2-5.7c0,0,0,0,0-0.1c5.4-3.4,14.3-3.3,19.9,3.5c5.6,6.8,4.3,16.9-2.8,22.1
			C133.7,48.7,124.9,47,120.4,42.2z"/>
		<path class="st2" d="M192.3,30.7c0.1,0,0.1,0.1,0.2,0.1c1.9,0.5,3.2,2.6,2.3,4.9c-0.6,1.4-1.6,2.2-3,2.7c-1.2,0.5-2.4,0.6-3.7,0.6
			c-1.6,0-3.2,0-4.8-0.1c-0.1,0-0.3,0-0.4,0c0-5.2,0-10.3,0-15.4c0.1,0,0.2,0,0.2,0c2.3,0,4.7,0,7,0c0.8,0,1.6,0.2,2.4,0.5
			c1.4,0.5,2.2,1.6,2.3,3.1c0.1,1.5-0.7,2.6-2,3.3C192.6,30.5,192.5,30.6,192.3,30.7z M186.8,34.2c0,0.5,0,1.1,0,1.6
			c0,0.1,0.1,0.3,0.2,0.3c0.7,0,1.4,0,2.1,0c0.3,0,0.6-0.1,0.9-0.3c0.7-0.4,1-1,1-1.8c-0.1-0.8-0.5-1.2-1.2-1.4
			c-0.9-0.3-1.9-0.3-2.8-0.2c-0.1,0-0.2,0.2-0.2,0.3C186.8,33.2,186.8,33.7,186.8,34.2z M186.8,26.2c0,1.2,0,2.4,0,3.5
			c0.4,0,0.8,0,1.2,0c0.2,0,0.3,0,0.5,0c0.4-0.1,0.9-0.2,1.3-0.3c0.7-0.3,1.1-1,1-1.7c-0.1-0.6-0.5-1.1-1.3-1.2
			C188.6,26.3,187.7,26.3,186.8,26.2z"/>
		<path class="st2" d="M159.1,23.1c1.2,0,2.4,0.2,3.5,0.7c1.7,0.7,2.9,1.9,3.5,3.5c0.9,2.4,0.9,4.9-0.1,7.2c-1.1,2.6-3.2,4-6,4.5
			c-1.5,0.3-3,0.2-4.5-0.3c-2.1-0.6-3.5-1.9-4.2-3.9c-0.7-2-0.8-4.2-0.2-6.2c1-3.1,3.2-4.8,6.3-5.4C158,23.2,158.6,23.2,159.1,23.1z
			 M162.8,31.2c-0.1-0.6-0.1-1.3-0.3-1.9c-0.3-1.1-0.9-2-2-2.5c-2-0.8-4.5-0.1-5.3,2.4c-0.5,1.6-0.4,3.2,0.2,4.7
			c0.3,0.7,0.7,1.3,1.4,1.7c1.5,0.9,4.2,0.7,5.4-1.5C162.6,33.1,162.7,32.2,162.8,31.2z"/>
		<path class="st2" d="M222.7,30.7c0.2,0.1,0.3,0.1,0.4,0.1c1.6,0.5,2.7,2,2.5,3.7c-0.2,2.2-1.5,3.6-3.8,4.2
			c-0.9,0.2-1.9,0.3-2.8,0.3c-1.3,0-2.5,0-3.8-0.1c-0.2,0-0.4,0-0.6,0c0-5.2,0-10.3,0-15.5c0.1,0,0.1,0,0.2,0c2.1,0,4.1,0,6.2,0
			c0.7,0,1.3,0.2,1.9,0.4c1.4,0.5,2.2,1.5,2.3,3c0.1,1.6-0.6,2.8-2,3.6C223.1,30.5,222.9,30.6,222.7,30.7z M217.6,32.1
			c0,1.5,0,2.9,0,4.4c1.1,0.1,2.1,0.2,3.1-0.2c0.6-0.2,1.2-0.6,1.4-1.2c0.4-1.1,0.1-2.4-1.5-2.8C219.7,32.1,218.7,32.1,217.6,32.1z
			 M217.6,29.9c0.9,0,1.9,0.1,2.8-0.2c0.2-0.1,0.5-0.2,0.7-0.3c0.7-0.5,0.9-1.2,0.8-2c-0.1-0.8-0.6-1.2-1.3-1.5c-1-0.3-2-0.1-3-0.1
			C217.6,27.2,217.6,28.5,217.6,29.9z"/>
		<path class="st2" d="M208.2,27c-1.1-0.3-2.2-0.5-3.4-0.4c-1.9,0.1-3.2,1.2-3.7,3.1c-0.2,1.1-0.2,2.3,0.1,3.4
			c0.4,1.7,1.7,2.7,3.5,2.8c1.2,0.1,2.4-0.1,3.6-0.5c0.1,0.6,0.2,1.2,0.3,1.8c0.1,0.3,0.1,0.7,0.1,1.1c0,0.1-0.1,0.3-0.2,0.3
			c-2.5,0.7-5,0.8-7.5,0c-2.2-0.8-3.5-2.3-4-4.5c-0.5-2-0.4-4,0.3-6c1-2.6,3-4.1,5.7-4.6c1.7-0.3,3.4-0.3,5.1,0.1
			c0.5,0.1,0.5,0.1,0.4,0.6C208.4,25.1,208.3,26.1,208.2,27z"/>
		<path class="st2" d="M179.8,27c-1.1-0.3-2.3-0.5-3.4-0.4c-2.1,0.1-3.5,1.5-3.8,3.5c-0.1,1-0.1,1.9,0.1,2.8
			c0.4,1.8,1.7,2.8,3.5,2.9c0.6,0,1.2,0,1.8-0.1s1.2-0.2,1.8-0.4c0.1,0.6,0.2,1.2,0.3,1.8c0.1,0.3,0.1,0.7,0.1,1.1
			c0,0.1-0.1,0.3-0.2,0.3c-2.4,0.6-4.9,0.8-7.3,0c-2.2-0.7-3.6-2.2-4.2-4.4c-0.5-2-0.4-4,0.2-5.9c1-2.7,3-4.2,5.8-4.8
			c1.7-0.3,3.4-0.2,5.1,0.1c0.5,0.1,0.5,0.1,0.4,0.6C180.1,25.1,179.9,26.1,179.8,27z"/>
		<path class="st2" d="M258.5,32.8c1.5,2,2.9,4,4.4,6.1c-0.2,0-0.3,0-0.4,0c-1,0-2,0-3,0c-0.2,0-0.4-0.1-0.5-0.3
			c-1.1-1.6-2.1-3.3-3.2-4.9c-0.1-0.1-0.1-0.2-0.3-0.3c0,1.8,0,3.6,0,5.5c-1,0-1.9,0-2.9,0c0-5.5,0-11.1,0-16.7c1,0,1.9,0,2.9,0
			c0,3.3,0,6.6,0,10c0.1-0.2,0.2-0.3,0.3-0.4c1-1.4,2-2.8,3-4.1c0.1-0.2,0.3-0.3,0.5-0.3c1.1,0,2.2,0,3.4,0
			C261.2,29.3,259.9,31.1,258.5,32.8z"/>
		<path class="st2" d="M132.3,36.3c-5.3,0-10.5,0-15.7,0c-0.9-2.6-1.1-5.3-0.6-8c1,0.3,1.9,0.7,2.8,1c1.4,0.5,2.9,1,4.4,1.5
			c0.2,0.1,0.3,0.2,0.3,0.5c0,1.6,0.5,3.1,1.5,4.5c0.1,0.1,0.1,0.2,0.2,0.2c0,0,0,0,0,0c-0.2-0.7-0.5-1.5-0.8-2.3
			c-0.2-0.8-0.2-1.6-0.1-2.5c0.2,0,0.3,0.1,0.4,0.1c2.4,0.8,4.9,1.7,7.3,2.6c0.2,0.1,0.3,0.2,0.3,0.5
			C132.3,35.1,132.3,35.7,132.3,36.3z"/>
		<path class="st2" d="M228,30.5c-0.1-0.8-0.2-1.6-0.3-2.5c0.8-0.2,1.7-0.4,2.5-0.5c1.2-0.2,2.5-0.2,3.7,0.1
			c1.9,0.4,2.8,1.5,2.8,3.5c0,2.1,0,4.2,0,6.3c0,0.5,0,1,0,1.6c-0.9,0-1.8,0-2.8,0c0-0.6,0.1-1.1,0.1-1.7c-0.1,0-0.1,0.1-0.1,0.1
			c-1,1.5-2.4,2-4.2,1.9c-0.3,0-0.6-0.1-0.9-0.2c-1.4-0.5-2.1-1.8-1.8-3.3c0.2-1.1,0.8-1.9,1.7-2.5c0.9-0.6,2-0.9,3.1-1
			c0.6-0.1,1.2-0.1,1.9-0.2c0-0.3,0-0.7,0-1c-0.1-0.9-0.7-1.3-1.8-1.3c-1.3-0.1-2.6,0.2-3.8,0.8C228.1,30.4,228.1,30.4,228,30.5z
			 M233.7,33.9c-0.3,0-0.7,0-1,0c-0.7,0.1-1.4,0.1-2.1,0.5c-0.7,0.4-0.9,1.1-0.7,1.8c0.2,0.6,0.8,0.9,1.6,0.7
			C232.9,36.7,233.8,35.4,233.7,33.9z"/>
		<path class="st2" d="M242.5,38.9c-1,0-1.9,0-2.9,0c0-3.8,0-7.5,0-11.4c0.9,0,1.8,0,2.8,0c0,0.6-0.1,1.3-0.1,1.9
			c0.1-0.1,0.2-0.2,0.2-0.3c0.8-1.2,2-1.8,3.4-1.9c0.5,0,0.9,0,1.4,0.1c1.3,0.3,2.1,1.2,2.3,2.6c0,0.3,0.1,0.6,0.1,1
			c0,2.5,0,5,0,7.6c0,0.1,0,0.2,0,0.3c-1,0-1.9,0-2.9,0c0-0.1,0-0.3,0-0.4c0-2.2,0-4.4,0-6.7c0-0.3,0-0.6-0.1-0.8
			c-0.2-1-0.9-1.4-1.8-1.2c-0.7,0.1-1.2,0.6-1.6,1.1c-0.5,0.8-0.8,1.6-0.8,2.6c0,1.7,0,3.3,0,5C242.5,38.6,242.5,38.8,242.5,38.9z"
			/>
		<path class="st2" d="M118.2,22.8c2.2,1.4,4.4,2.7,6.5,4c-0.3,0.6-0.6,1.2-0.8,1.8c-0.2,0.6-0.3,1.2-0.5,1.9
			c-2.4-0.9-4.8-1.8-7.2-2.8C116.6,25.9,117.2,24.3,118.2,22.8z"/>
		<path class="st2" d="M125.2,26.3c-2.2-1.4-4.3-2.8-6.4-4.3c1-1.4,2.3-2.6,3.8-3.6c1.8,1.9,3.7,3.8,5.5,5.7
			C126.9,24.7,126,25.4,125.2,26.3z"/>
		<path class="st2" d="M132.3,33.8c-2.7-1-5.3-2-7.9-3c0.2-1.1,0.8-2.5,1.5-3.3c0.1,0,0.2,0.1,0.2,0.1c2,1.2,3.9,2.5,5.9,3.7
			c0.2,0.1,0.3,0.3,0.3,0.6C132.3,32.5,132.3,33.1,132.3,33.8z"/>
		<path class="st2" d="M116.8,36.9c1.5,0,3,0,4.5,0c0.1,0,0.3,0.1,0.4,0.2c0.3,0.5,0.8,0.7,1.4,0.7c2,0,3.9,0,6,0
			c-0.3,0.3-0.6,0.5-0.8,0.8c-0.4,0.6-0.9,0.7-1.6,0.7c-2.4,0-4.8,0-7.2,0c-0.2,0-0.3,0-0.4-0.3c-0.3-0.7-0.8-1.1-1.6-1.2
			c-0.2,0-0.4-0.1-0.4-0.4C117,37.3,116.9,37.1,116.8,36.9z"/>
		<path class="st2" d="M132.3,31.1c-2.1-1.4-4.1-2.7-6.1-4.1c0.2-0.2,0.5-0.5,0.7-0.7c0.6-0.4,1.2-0.8,1.8-1.2
			c0.2-0.1,0.3-0.1,0.4,0.1c1,1,2,2,3,3c0.1,0.1,0.1,0.2,0.1,0.3C132.3,29.3,132.3,30.2,132.3,31.1z"/>
	</g>
</g>
<g id="SATS" class="st0">
	<g class="st1">
		<path class="st2" d="M190.4,62.1c-0.7,0-1.4,0-2.1,0c-0.1,0-0.2,0-0.4,0c-1.1-0.1-2.1-0.2-3.2-0.3c-3.2-0.5-6.3-1.4-9.2-2.8
			c-4-2-7.4-4.6-10.3-8.1c-4.2-5.1-6.6-10.9-7-17.5c0-0.5-0.1-0.9-0.1-1.4c0-0.5,0-0.9,0-1.4c0-0.1,0-0.3,0.1-0.4
			c0.1-1.8,0.3-3.5,0.7-5.3c1.2-5.5,3.7-10.4,7.6-14.5c5.4-5.7,12-9,19.9-9.8c3.5-0.3,6.9-0.1,10.3,0.7c5.6,1.3,10.6,4,14.7,8.1
			c5.5,5.4,8.5,11.9,9.2,19.6c0.2,2.2,0.1,4.3-0.2,6.5c-0.4,2.8-1.1,5.4-2.2,8c-2.3,5.3-5.8,9.6-10.5,13c-2.6,1.8-5.4,3.3-8.4,4.2
			c-2.4,0.8-4.9,1.3-7.5,1.5C191.2,62,190.8,62.1,190.4,62.1z M184.4,28.6c0.3-0.2,0.6-0.4,0.9-0.5c1.5-0.7,3.1-0.8,4.8-0.5
			c0.4,0.1,0.8,0.2,1.1,0.4c0.5,0.3,0.4,0.9-0.1,1.1c-0.2,0.1-0.3,0.1-0.5,0.1c-1,0.1-1.9,0.2-2.9,0.3c-1,0.1-2,0.2-3,0.6
			c-1,0.4-1.8,0.9-2.1,2c-0.5,1.6,0,3.5,2,4.5c0.9,0.4,1.9,0.6,2.8,0.7c1.6,0.1,3.2-0.1,4.6-0.8c1.4-0.6,2-1.6,2-3.1
			c0-1.6,0-3.1,0-4.7c0-0.2,0-0.4,0-0.5c-0.2-1.1-0.9-1.9-1.9-2.5c-1-0.5-2-0.7-3.1-0.7c-1.6-0.1-3.1,0.2-4.5,0.8
			c-0.6,0.2-1.2,0.6-1.8,0.9C183.4,27.4,183.9,28,184.4,28.6z M179.4,28.6c0.5-0.6,1-1.2,1.6-1.9c-0.1-0.1-0.2-0.1-0.3-0.2
			c-2.1-1.2-4.4-1.8-6.8-1.5c-1.1,0.1-2.1,0.5-3,1.1c-1.9,1.5-1.3,3.9,0,4.8c0.5,0.3,1,0.5,1.5,0.7c1.3,0.4,2.6,0.4,4,0.5
			c0.6,0,1.3,0.1,1.8,0.4c0.7,0.4,0.8,1.1,0.2,1.6c-0.3,0.2-0.6,0.4-1,0.5c-1.5,0.4-3.1,0.3-4.5-0.2c-0.6-0.2-1.1-0.5-1.7-0.7
			c-0.5,0.6-1,1.2-1.5,1.9c0.6,0.3,1.1,0.6,1.6,0.8c2.1,0.9,4.2,1,6.4,0.6c0.9-0.2,1.7-0.5,2.4-1.1c0.9-0.8,1.2-1.8,1.1-3
			c-0.1-1.2-0.5-2.1-1.6-2.6c-0.8-0.4-1.7-0.6-2.6-0.7c-1-0.1-2.1-0.2-3.1-0.3c-0.5-0.1-0.9-0.2-1.3-0.4c-0.2-0.1-0.4-0.2-0.4-0.5
			c0-0.3,0.1-0.5,0.4-0.6c0.2-0.1,0.4-0.2,0.6-0.2C175.3,27.3,177.4,27.5,179.4,28.6z M205.4,35.7c0.3,0.2,0.6,0.4,0.9,0.6
			c2.3,1.2,4.8,1.4,7.3,0.9c1.8-0.4,3.2-1.5,3.3-3.4c0.1-1.4-0.3-2.8-1.9-3.4c-0.7-0.3-1.5-0.5-2.3-0.6c-1-0.2-2.1-0.2-3.1-0.3
			c-0.5-0.1-1-0.2-1.4-0.4c-0.5-0.2-0.5-0.7-0.1-1c0.2-0.1,0.4-0.3,0.7-0.3c1.4-0.3,2.9-0.3,4.3,0.1c0.7,0.2,1.3,0.5,2,0.8
			c0.5-0.6,1-1.2,1.5-1.8c-0.1-0.1-0.2-0.1-0.3-0.2c-2.1-1.2-4.4-1.7-6.8-1.5c-1.1,0.1-2,0.4-2.9,1.1c-1.3,1-1.6,2.4-0.9,3.8
			c0.5,0.9,1.3,1.4,2.3,1.7c1.4,0.4,2.8,0.4,4.2,0.5c0.6,0,1.2,0.1,1.8,0.4c0.7,0.4,0.8,1.2,0.2,1.7c-0.3,0.2-0.6,0.3-0.9,0.4
			c-1.5,0.4-3.1,0.3-4.5-0.2c-0.6-0.2-1.1-0.4-1.7-0.7C206.4,34.5,205.9,35.1,205.4,35.7z M204.3,35.7c-0.5-0.6-1-1.2-1.5-1.8
			c-0.1,0.1-0.1,0.1-0.2,0.2c-0.4,0.4-0.9,0.7-1.4,0.9c-1.2,0.3-2.2-0.2-2.5-1.3c-0.1-0.3-0.2-0.7-0.2-1.1c0-1.2,0-2.4,0-3.6
			c0-0.1,0-0.1,0-0.2c1.6,0,3.3,0,4.9,0c0-0.8,0-1.5,0-2.3c-1.6,0-3.3,0-4.9,0c0-1,0-2,0-3c-0.8,0.3-1.5,0.7-2.3,1
			c-0.2,0.1-0.3,0.2-0.3,0.4c0,2.5,0,5,0,7.5c0,0.5,0,1,0.1,1.5c0.2,1.4,0.9,2.6,2.3,3.2c1,0.5,2.1,0.6,3.2,0.3
			C202.7,37,203.6,36.5,204.3,35.7z"/>
		<path class="st2" d="M191.5,31.6c0,0.6,0,1.2,0,1.9c0,0.5-0.3,0.8-0.7,1c-0.5,0.2-1,0.3-1.5,0.4c-1,0.2-1.9,0.1-2.9-0.1
			c-0.3-0.1-0.6-0.2-0.9-0.4c-0.8-0.5-0.6-1.5,0.1-1.9c0.5-0.3,1-0.3,1.6-0.4c1-0.1,2.1-0.1,3.1-0.2
			C190.7,31.8,191.1,31.7,191.5,31.6z"/>
	</g>
</g>
<g id="Brother" class="st0">
	<g class="st1">
		<path class="st2" d="M115.3,14.6c0.1,0,0.2,0,0.2,0c1.9,0,3.8,0,5.7,0c0.1,0,0.2,0,0.3,0c0,1.6,0,3.2,0,4.8c0,1.6,0,3.2,0,4.8
			c0.3-0.3,0.6-0.5,0.9-0.7c1.2-1,2.5-1.8,4-2.3c0.9-0.3,1.9-0.4,2.9-0.4c2.4,0.1,4.6,0.7,6.6,1.9c3.2,1.9,5.3,4.7,6.2,8.4
			c0.1,0.2,0.1,0.5,0.2,0.8c0,0,0,0.1,0.1,0.1c0-0.3,0.1-0.6,0.1-0.9c0.6-3.4,2-6.3,5-8.2c1.3-0.9,2.8-1.4,4.3-1.8
			c1.5-0.3,3-0.4,4.5-0.4c0,0,0.1,0,0.1,0c0,1.6,0,3.3,0,4.9c3.9-4.3,8.7-5.9,14.4-4.4c5.6,1.9,8.7,5.8,9.7,11.6c0-6,0-12,0-18
			c2.2,0,4.4,0,6.6,0c0,0.1,0,0.2,0,0.2c0,2,0,3.9,0,5.9c0,0.3,0,0.3,0.3,0.3c3.2,0,6.4,0,9.5,0c0.3,0,0.3,0,0.3,0.3
			c0,1.8,0,3.5,0,5.3c0,0.2,0,0.2-0.2,0.2c-3.2,0-6.3,0-9.5,0c-0.1,0-0.1,0-0.2,0c-0.2,0-0.2,0.1-0.2,0.2c0,3,0,6.1,0,9.1
			c0,2.2,1,3.9,2.9,5c0.7,0.5,1.6,0.7,2.4,0.8c3,0.3,5.7-1.7,6.4-4.6c0.1-0.5,0.2-1,0.2-1.6c0-6.9,0-13.8,0-20.7c0-0.1,0-0.1,0-0.2
			c2.1,0,4.3,0,6.5,0c0,2.8,0,5.5,0,8.3c0.2-0.2,0.4-0.3,0.6-0.4c0.7-0.5,1.4-1.1,2.3-1.5c0.7-0.4,1.5-0.6,2.4-0.7
			c2.4-0.2,4.6,0.5,6.5,1.9c2.1,1.5,3.4,3.6,4.2,6c0.3,0.9,0.4,1.7,0.5,2.6c0,0.6,0.1,1.3,0.1,1.9c0,0.1,0,0.2,0,0.3
			c0.2-3.3,1.5-6.2,3.8-8.6s5.1-3.8,8.4-4.1c3.6-0.3,6.9,0.6,9.7,2.8c2.9,2.2,4.5,5.2,5.1,8.8c0-0.2,0-0.3,0.1-0.5
			c0.1-1.3,0.4-2.6,0.9-3.9c1.2-3.1,3.4-5.2,6.5-6.3c1.2-0.5,2.4-0.7,3.7-0.9c0.9-0.1,1.8-0.1,2.7-0.1c0.1,0,0.2,0,0.2,0.2
			c0,1.9,0,3.7,0,5.6c0,0,0,0.1,0,0.2c-0.1,0-0.2,0-0.4,0c-2.4,0-4.5,0.7-6,2.6c-0.7,0.9-1.1,2-1.4,3.1c-0.1,0.7-0.2,1.5-0.2,2.2
			c0,4.2,0,8.5,0,12.8c0,0.1,0,0.1,0,0.2c-2.1,0-4.1,0-6.2,0c0-1.8,0-3.6,0-5.5c0-1.8,0-3.6,0-5.5c-7,0-14,0-21.1,0
			c0.1,0.5,0.2,1,0.4,1.5c1,2.4,2.7,3.9,5.2,4.6c2.4,0.7,4.7,0.2,6.7-1.4c1-0.8,1.8-1.8,2.3-3c0.1-0.1,0.1-0.2,0.2-0.2
			c1.9,0,3.7,0,5.6,0c0.1,0,0.1,0,0.2,0c-0.7,2.2-1.9,4.2-3.5,5.8c-2.2,2.2-4.8,3.5-7.8,3.8c-3.9,0.5-7.4-0.6-10.4-3.1
			c-3-2.5-4.6-5.8-4.9-9.7c0,4.2,0,8.3,0,12.5c-2,0-3.9,0-5.9,0c0-0.1,0-0.2,0-0.3c0-5,0-9.9,0-14.9c0-2.2-1-4-2.9-5.1
			c-0.9-0.5-1.8-0.7-2.8-0.6c-1.9,0.2-3.2,1.2-4.1,2.8c-0.5,0.9-0.7,1.8-0.7,2.9c0,5,0,10,0,15c0,0.1,0,0.1,0,0.2
			c-2.2,0-4.3,0-6.5,0c0-0.7,0-1.3,0-2c-0.2,0.1-0.2,0.2-0.4,0.3c-1.3,1-2.8,1.7-4.5,1.9c-1,0.2-2.1,0.2-3.1,0.1
			c-2.3-0.3-4.4-1.1-6.2-2.7c-1.8-1.5-3-3.3-3.7-5.5c-0.3-0.9-0.5-1.8-0.6-2.7c0-0.4,0-0.7-0.1-1.1c-0.6,4.5-2.8,8-6.8,10.3
			c-3.9,2.3-8.1,2.5-12.3,0.6c-3.8-1.7-6.4-4.7-7.5-8.7s-0.5-7.8,1.8-11.4c0,0-0.1,0-0.1,0c-2.1,0-4,0.7-5.4,2.4
			c-0.8,0.9-1.3,2-1.5,3.2c-0.2,0.8-0.2,1.6-0.2,2.4c0,4.2,0,8.4,0,12.6c0,0.1,0,0.2,0,0.3c-2.1,0-4.1,0-6.2,0c0-3.5,0-6.9,0-10.4
			c0,0,0,0-0.1,0c0,0.1,0,0.2-0.1,0.2c-0.5,2.2-1.5,4.1-2.9,5.8c-1.8,2.1-4.1,3.5-6.8,4.3c-0.8,0.2-1.6,0.3-2.4,0.4
			c-2.5,0.2-4.9-0.3-7.1-1.4c-3.4-1.7-5.7-4.4-6.9-8c-0.3-1-0.5-1.9-0.6-2.9c0-0.3-0.1-0.5-0.1-0.8C115.3,28,115.3,21.3,115.3,14.6z
			 M129,26.4c-4.2,0-7.7,3.3-7.7,7.7c0,4.3,3.5,7.7,7.7,7.7c4.2,0,7.7-3.3,7.7-7.7C136.7,29.7,133.1,26.4,129,26.4z M167,26.4
			c-4.2,0-7.7,3.4-7.7,7.6c-0.1,4.4,3.5,7.8,7.7,7.8c4.2,0,7.8-3.4,7.8-7.8C174.7,29.8,171.2,26.4,167,26.4z M242.8,31.2
			c-0.9-3-4.2-5.9-8.6-5.2c-2,0.3-3.6,1.3-4.8,2.8c-0.6,0.7-1,1.5-1.3,2.4C233.1,31.2,237.9,31.2,242.8,31.2z"/>
		<path class="st2" d="M263.3,45.1c-0.1,0.3-0.1,0.6-0.2,0.8c-0.4,1-1.1,1.7-2.2,1.8c-1.5,0.3-2.9-0.7-3.3-2
			c-0.5-1.7,0.6-3.4,2.3-3.7c1.6-0.2,3,0.8,3.3,2.3c0,0.1,0.1,0.2,0.1,0.4C263.3,44.8,263.3,44.9,263.3,45.1z M260.3,47.3
			c1.2,0,2.4-1,2.4-2.4c0-1.4-1.1-2.4-2.4-2.4c-1.3,0-2.4,1-2.4,2.4C257.9,46.4,259.2,47.3,260.3,47.3z"/>
		<path class="st2" d="M261.3,44.9c0.1,0.1,0.2,0.2,0.3,0.4c0.1,0.2,0,0.3,0.1,0.5c0,0.2,0,0.5,0.1,0.7c-0.2,0-0.4,0-0.6,0
			c-0.1,0-0.1-0.1-0.1-0.2c0-0.2,0-0.4,0-0.7c0-0.3-0.1-0.5-0.4-0.5c-0.2,0-0.5,0-0.7,0c-0.1,0-0.1,0-0.1,0.2c0,0.3,0,0.7,0,1
			c0,0.1,0,0.2-0.2,0.2c-0.2,0-0.3,0-0.5,0c0-1.1,0-2.2,0-3.4c0.1,0,0.1,0,0.2,0c0.6,0,1.1,0,1.7,0c0.5,0,0.8,0.3,0.8,0.8
			C261.8,44.4,261.8,44.5,261.3,44.9z M260.3,43.7L260.3,43.7c-0.1,0-0.3,0-0.5,0c-0.1,0-0.1,0-0.1,0.1c0,0.2,0,0.4,0,0.7
			c0,0,0,0.1,0.1,0.1c0.3,0,0.7,0,1,0c0.2,0,0.4-0.3,0.3-0.6c0-0.2-0.2-0.3-0.5-0.3C260.6,43.7,260.4,43.7,260.3,43.7z"/>
	</g>
</g>
<g id="Wildlife_Reserves">
	<g>
		<path class="st2" d="M20.5,18.6c-0.2,0.7-0.3,1.4-0.5,2c-0.9,1.8-1,3.8-1.6,5.7c-0.5,1.9-1.4,3.8-2.2,5.6
			c-0.1,0.2-0.5,0.4-0.8,0.4c-0.2,0-0.5-0.3-0.5-0.5c-0.6-1.5-1.3-3-1.9-4.5c-0.7-1.7-1.3-3.5-1.8-5.3c-0.6-2-0.7-4.2-1.7-6.1
			C8.4,13.7,8.6,11,6.8,9C5.6,7.8,4.5,6.5,3.3,5.3C2.8,4.9,2,4.8,1.3,4.6C0.7,4.4,0.2,4.1,0.1,3.5C0,2.8,0.1,2.4,0.8,2.2
			C1.2,2.1,1.6,2,2,1.9c1-0.2,2-0.5,3-0.6c0.7-0.1,1.4,0,2,0.2c1.5,0.4,3,0.7,4.6,0.4c0.3-0.1,0.5-0.3,0.8-0.3c0.5,0,1,0,1.4,0.2
			c0.7,0.5,1.4,0.6,2.2,0.4c2.6-0.5,5.2-1,7.9-0.6c0.3,0.1,0.5,0,0.8,0C27,1.8,29.2,2,31.5,1.8c2-0.1,3.9-0.5,5.9-0.8
			c2.2-0.4,4.4-0.2,6.4,0.7c1.1,0.5,1.4,1.5,0.8,2.5c-0.5,0.8-1.1,1.5-2.2,1.5c-1,0-2.4,1.4-2.8,2.6c-0.1,0.5-0.2,1-0.4,1.4
			c-0.1,0.3-0.3,0.5-0.6,0.7c-1.2,0.9-2.1,2.1-2.2,3.6c0,1.1-0.3,2.2-0.9,3.1c-0.6,0.9-0.7,1.8-0.3,2.8c0.1,0.3,0.2,0.7,0,0.9
			c-0.9,1.9-1.1,4.1-2.5,5.8c-0.4,0.5-0.4,1.3-0.7,1.9c-0.3,0.8-0.5,1.7-0.9,2.5c-0.2,0.4-0.9,0.8-1.4,0.8c-0.4,0-0.9-0.6-1-1.1
			c-1.3-3.8-2.5-7.6-3.7-11.4c-0.5-1.4-1-2.8-1.5-4.2c-0.2-0.4-0.3-0.9-0.6-1.2c-0.9-0.9-1-2-1.2-3.2C21.5,9.9,21.2,9,20.9,8
			c-0.3-0.7-0.7-1.3-1-2c-0.3-0.8-0.9-1.2-1.7-1.3C17,4.6,16,4.6,14.9,4.5c-0.8-0.1-1.3,0.4-1.5,1.1c-0.4,1.4-0.5,2.7-0.2,4.1
			c0.5,2,0.8,4.1,1.4,6.1c0.3,1.1,1,2.1,1.7,3.1c0.3,0.5,0.8,0.6,1.2,0.2c0.4-0.4,0.8-0.8,1.2-1.2c0.2-0.2,0.4-0.5,0.6-0.7
			c0.2-0.2,0.5-0.2,0.7-0.3c0.1,0.3,0.3,0.5,0.3,0.7c0.1,0.3,0,0.6,0,0.9C20.4,18.6,20.4,18.6,20.5,18.6z M27.5,8.4
			c-0.1,0-0.1,0.1-0.2,0.1c0.3,0.8,0.5,1.7,0.8,2.5c0.4,1.4,0.9,2.7,1.2,4c0.3,1.1,0.1,2.3,0.8,3.3c0.8,1,1.3,1.1,2.2,0.2
			c1.3-1.3,2-2.9,2.3-4.7c0.3-2,1.2-4,1-6.1c-0.1-1.6-0.9-2.7-2.6-2.8c-1.1-0.1-2.2-0.2-3.3-0.2c-1.2,0-1.8,0.5-2.1,1.6
			C27.7,7,27.6,7.7,27.5,8.4z"/>
		<path class="st2" d="M215.3,8.8c-0.2,0.7-0.2,1.5-0.5,2.1c-0.2,0.5-0.7,0.8-1.1,1.2c-0.5,0.4-1,0.7-1.5,1.1c-1.2,1-2.4,2-3.6,3
			c-0.5,0.4-0.3,0.8,0.1,1.1c0.6,0.5,1.2,1,1.8,1.6c1.3,1.4,2.1,3,2.5,4.8c0.2,0.6,0.5,1.2,0.7,1.7c0.1,0.3,0.4,0.5,0.4,0.8
			c0.2,1.4,1.2,1.7,2.2,2c0.4,0.1,0.9-0.3,1.4-0.4c0.5-0.2,1-0.7,1.5-0.1c0.4,0.6,0.3,1.2-0.3,1.8c-0.5,0.6-1.1,1.1-1.6,1.7
			c-0.1,0.1-0.3,0.3-0.5,0.3c-1.3,0.3-2.6,0.7-3.9,0.7c-2.9-0.2-5.5-2.3-5-5.9c0.1-0.6,0-1.2-0.1-1.8c-0.2-1.1-0.3-2.2-0.5-3.3
			c-0.1-0.5-0.4-0.9-0.5-1.4c-0.5-1.7-1.6-2.4-3.2-2.8c-0.3-0.1-0.5-0.3-0.7-0.5c-0.7-0.7-0.6-1.2,0.3-1.5c0.8-0.2,1.8-0.3,2.6-0.3
			c0.7,0,1.2-0.2,1.7-0.7c1.6-1.7,2.2-3.6,1.7-5.9c-0.3-1.4-1.4-2.3-2.6-2.9c-1.4-0.7-3-1.2-4.5-1.7c-0.5-0.2-1.4,0-1.8,0.4
			c-1.5,1.2-2.4,2.7-2.3,4.7c0,0.5,0.3,1,0.4,1.5c0.1,0.4,0.4,0.9,0.3,1.3c-0.2,1.1,0.2,2.1,0.5,3.2c0.1,0.3,0,0.8,0,1.1
			c-0.2,0.9-0.5,1.7-0.5,2.6c-0.3,3-0.5,6,0,9c0.2,1.3,1.1,2.1,2.1,2.7c0.2,0.1,0.5,0.1,0.6,0.3c0.2,0.2,0.6,0.5,0.6,0.7
			c0,0.3-0.3,0.7-0.6,0.7c-0.9,0.2-1.9,0.3-2.8,0.2c-1-0.1-2-0.4-3.1-0.2c-1.1,0.2-2.4,0.1-3.5,0.2c-0.6,0.1-1.1,0.1-1.7,0.3
			c-0.7,0.2-2.4-0.8-2.5-1.6c0-0.2,0.3-0.6,0.4-0.6c1.4,0.2,2.1-0.8,3.1-1.5c1-0.8,1.3-1.7,1.3-2.9c0-3,0.3-6,0.3-9
			c0-2.2-0.4-4.3-0.3-6.5c0.1-2.1-0.8-3.8-2-5.3c-0.7-0.9-1.9-0.8-3-0.9c-0.7,0-1.1-0.4-1.2-1c-0.1-0.7,0-1.2,0.8-1.2
			c1.9-0.1,3.8-0.2,5.8-0.2c2.1,0,4.2,0,6.2,0c1.1,0,2.4-0.3,3.4,0c1.8,0.5,3.5,0.4,5.2,0c0.6-0.1,1,0,1.4,0.5
			c1,1.2,2.1,2.1,3.7,2.3c0.3,0,0.7,0.4,0.9,0.6C214.5,5.9,215.5,7.1,215.3,8.8z"/>
		<path class="st2" d="M87.3,31.7c0.8-0.7,1.3-1.7,2.6-1.8c0.8-0.1,1.1-0.8,1.2-1.4c0.3-2.7,0.6-5.3,0.7-8c0.1-1.7-0.5-3.4-1.4-4.9
			c-0.1-0.2-0.3-0.4-0.3-0.6c-0.4-1.5-1.8-2.1-2.7-3c-0.2-0.2-0.8-0.2-1.1-0.2c-1.3,0.2-2.4,0.5-3.1,2c-0.8,1.8-1.7,3.5-1.6,5.6
			c0.2,3,0,6.1,0.7,9c0.2,0.7,0.5,1.3,0.6,2c0.1,0.4,0,1-0.2,1.2c-0.3,0.2-1.1,0.3-1.4,0.1c-1.4-1.2-2.9-2.3-4.1-3.7
			c-0.5-0.6-0.3-1.8-0.5-2.7c-0.1-0.7-0.4-1.3-0.5-2c-0.2-0.7-0.4-1.4-0.3-2.1c0.1-1.8,0.6-3.5,1.5-5.2c0.7-1.5,1.4-3,2.8-4
			c1.8-1.3,3.9-1.5,6-1.5c0.2,0,0.3,0.2,0.5,0.3c0.3,0.1,0.6,0.2,1,0.3c0.4,0.1,0.9,0.2,1.2,0.5c0.5,0.3,0.9,0.8,1.5,0.4
			c0.6-0.5,1.4-0.9,1.3-1.9c-0.1-0.8,0-1.6-0.1-2.3c0-0.3-0.1-0.8-0.3-0.9c-1.1-0.8-2.2-1.6-3.3-2.3c-0.2-0.2-0.6-0.2-0.7-0.4
			c-0.2-0.4-0.5-0.9-0.4-1.3c0.1-0.4,0.7-0.8,1.1-0.8c1.9-0.1,3.8-0.2,5.7,0c1.9,0.2,2.6,1.1,2.8,3c0.3,2.7-0.1,5.4-0.3,8
			c-0.1,1.4,0.1,2.9,0.1,4.3c0.1,3.2,0.3,6.5,0.3,9.7c0,1.1,0.4,1.9,1.3,2.5c0.3,0.2,0.7,0.4,1.1,0.4c0.6,0,1,0.2,1.2,0.8
			c0.2,0.6,0.2,1.2-0.3,1.7c-0.7,0.8-1.5,0.8-2.4,0.7c-1.3-0.2-2.5-0.4-3.8-0.7c-0.6-0.1-1.1-0.3-1.6-0.7c-0.7-0.5-1.5-0.5-2.3-0.3
			c-0.8,0.3-1.7,0.4-2.5,0.6C87.3,31.9,87.3,31.8,87.3,31.7z"/>
		<path class="st2" d="M139.4,32.3c-1.2,0.2-2.7,0.1-4.1-0.7c-0.4-0.2-1,0-1.6,0c-0.3,0-0.6-0.2-0.8-0.2c0.2-0.3,0.2-0.7,0.5-0.9
			c0.8-0.5,1.6-0.8,2.4-1.2c0.4-0.2,0.8-0.6,0.9-1c0.5-1.7,1-3.3,0.6-5.1c0,0,0-0.1,0-0.1c0.5-2.3-0.5-4.6-0.4-7
			c0.1-1.5-0.5-2.7-2-3.2c-0.4-0.1-0.7-0.4-1-0.7c-0.4-0.5-0.4-1,0.3-1.2c1.5-0.6,2.4-1.9,3.1-3.3c0.6-1.1,1.1-2.2,1.7-3.3
			c0.2-0.4,0.5-0.9,0.9-1.1c1.5-0.8,2.9-1.8,4.7-1.8c1.2,0,2.5,0.1,3.7,0.2c1.2,0.1,2.1,0.8,2.4,1.9c0.3,1.1,0.3,2.2-0.5,3.1
			c-1,1.1-2.7,0.9-4-0.2c-0.5-0.5-1.1-0.8-1.8-1.1c-0.5-0.2-0.8,0.1-1,0.7c-0.3,1.1-0.7,2.2-0.2,3.4c0.4,0.7,0.8,1.2,1.7,1.2
			c0.5-0.1,1-0.1,1.6,0c0.6,0.1,1,0.4,1,1.1c-0.1,0.6-0.4,0.9-1,0.9c-0.2,0-0.4,0-0.6,0c-2.4,0-3.6,1-3.7,3.5
			c-0.2,2.9-0.3,5.7-0.4,8.6c-0.1,1.3,0.2,2.5,0.9,3.6c0.5,0.8,0.7,1.7,0.7,2.7c-0.1,1-0.5,1.4-1.4,1.5
			C141.2,32.3,140.5,32.3,139.4,32.3z"/>
		<path class="st2" d="M239.5,21.8c-2.5,0-5,0-7.5,0c-1.8,0-2.8,1.2-3,3c-0.3,2.3,0.9,3.9,2.3,5.5c0.3,0.3,0.8,0.5,1.2,0.5
			c1.9,0,3.8-0.3,5.4-1.5c0.5-0.4,0.9-1.1,1-1.7c0.4-1.3,1.6-2.5,3-2.7c1.1-0.2,1.7,0.6,1.2,1.5c-1.1,2-2.3,4-4.2,5.5
			c-0.2,0.2-0.5,0.3-0.7,0.3c-1.7,0.2-3.4,0.5-5-0.3c-0.5-0.2-1.1-0.3-1.7-0.2c-2.7,0.2-4.5-0.9-6-3.2c-1.4-2.1-2-4.3-2.5-6.7
			c-0.2-1.1,0-2.2,0.4-3.3c0.6-1.7,0.9-3.5,2.2-4.9c0.1-0.1,0.1-0.1,0.1-0.2c1.4-0.9,2.6-2.1,4.1-2.7c3.3-1.2,6.5-0.5,9.6,1.2
			c0.5,0.3,0.9,0.8,1.3,1.3c0.4,0.5,0.6,1,0.9,1.5c1.6,1.9,1.6,4,0.6,6.2c-0.3,0.6-0.7,0.9-1.4,0.8C240.5,21.8,240,21.8,239.5,21.8
			C239.5,21.8,239.5,21.8,239.5,21.8z M237.2,16.4c-0.3-0.8-0.3-2.3-1.6-3.2c-1-0.7-2.2-1.1-3.6-0.8c-1.3,0.3-1.7,0.7-1.8,2
			c-0.1,0.4-0.2,0.8-0.5,1c-0.8,0.8-0.9,3,0.1,3.6c0.9,0.6,1.9,0.9,3.1,0.6c0.8-0.2,1.6-0.3,2.4-0.5
			C236.3,18.9,237.5,18.3,237.2,16.4z"/>
		<path class="st2" d="M357.6,25.6c-0.1,0.2-0.1,0.4-0.2,0.6c-0.8,1.4-1.7,2.8-2.6,4.1c-1.8,2.4-4.3,3.3-7.2,2.8
			c-1.6-0.2-3.1-0.7-4.6-1.3c-0.8-0.3-1.3-1.2-2-1.8c-0.4-0.4-0.8-0.7-1.1-1.2c-0.9-1.4-2-2.7-2.7-4.1c-0.4-0.9-0.4-2.1-0.2-3.1
			c0.6-3.2,1.8-6.2,4.2-8.6c1.2-1.2,2.7-2.2,4.4-2.6c0.4-0.1,0.9-0.1,1.4-0.1c2.4,0.2,4.8,0.5,7,1.9c0.3,0.2,0.6,0.4,0.8,0.7
			c0.7,1,1.2,2,1.9,3c0.9,1.4,0.5,4.3-0.3,5.4c-0.4,0.5-0.7,0.7-1.4,0.4c-1.1-0.5-2.3-0.7-3.6-0.4c-1.7,0.4-3.5,0.5-5.3,0.9
			c-2.5,0.5-3.6,3.4-2.3,5.6c0.1,0.1,0.1,0.2,0.1,0.2c0.7,0.8,1.2,2.1,2,2.4c1.3,0.4,2.9,0.3,4.2,0.1c1-0.2,1.8-1.1,2.7-1.7
			c1.1-0.8,2.2-1.7,3.3-2.6c0.4-0.3,0.9-0.4,1.3-0.6C357.5,25.5,357.5,25.6,357.6,25.6z M343.3,16.6c0,0.5,0,1,0.1,1.5
			c0.1,0.5,0.2,1.1,0.6,1.3c1.2,0.8,2.5,1.4,3.9,0.4c0.2-0.1,0.4-0.2,0.6-0.2c2-0.1,2.9-1.4,3.3-3.2c0.3-1.5-0.2-2.6-1.1-3.5
			c-1.4-1.5-4-1.3-5.3,0.2c-0.2,0.2-0.4,0.5-0.7,0.6C343.6,14.4,343,15.3,343.3,16.6z"/>
		<path class="st2" d="M161.5,30.5c2.7,0.4,4.4-1.2,5.9-3.4c0.4-0.7,1-1.3,1.6-1.8c0.4-0.3,1-0.1,1.5-0.2c0.1,0.5,0.3,1.1,0.1,1.4
			c-1,2-2.3,4-4.1,5.4c-1.1,0.8-2.5,1.1-3.8,1.1c-0.1,0-0.1,0-0.2,0c-1.5-1.2-3.3-0.9-5-1.1c-1.9-0.3-3.2-1.3-4.1-2.9
			c-0.3-0.5-0.5-1-0.9-1.4c-0.8-0.9-0.9-2-1.1-3.1c-0.1-0.7-0.2-1.5-0.6-2.1c-0.4-0.8-0.4-1.5-0.2-2.2c0.6-2.2,1.5-4.3,2.9-6.1
			c1.7-2.2,3.9-3.9,6.9-3.7c2.3,0.2,4.7,0.4,6.7,1.8c0.2,0.2,0.5,0.3,0.6,0.5c0.9,1.5,1.9,3,2.5,4.7c0.5,1.3,0.1,2.8-0.6,4
			c-0.2,0.3-0.7,0.6-0.9,0.6c-2-0.3-4-0.6-6-0.9c-0.6-0.1-1.3-0.3-2-0.3c-1.9,0.1-3.9,2.4-4.1,4.3c-0.2,1.7,0.4,3.1,1.4,4.4
			c0.6,0.8,1.2,1.4,2.3,1.2C160.6,30.4,160.9,30.5,161.5,30.5z M156.5,17.7c0.2,0.3,0.3,1.1,0.7,1.3c1.7,1,3.4,1.5,5.4,0.4
			c2.1-1.1,2.5-2,1.8-4.2c-0.1-0.2-0.2-0.4-0.3-0.6c-0.6-1.5-2.4-2.6-4-2.4c-0.3,0-0.7,0.1-0.9,0.3
			C157.8,13.8,156.7,15.3,156.5,17.7z"/>
		<path class="st2" d="M313.1,11.2c2.1-0.1,4.2-0.3,6.3-0.4c1.4,0,2.8,0.3,4.2,0.3c1.6,0.1,3.2,0.1,4.7,0c1.6-0.1,3.2-0.3,4.8-0.3
			c0.9,0,1.9,0,2.8,0.2c1.2,0.3,1.4,0.9,0.5,1.8c-1,0.9-2.1,1.7-3.1,2.6c-0.9,0.7-1.9,1.5-2.2,2.7c-0.1,0.2-0.3,0.5-0.4,0.6
			c-1.6,1.6-2.2,3.7-2.7,5.8c-0.1,0.3-0.1,0.6-0.2,0.8c-0.9,1.9-1.5,3.9-2,6c-0.2,0.7-1.8,1.9-2.6,1.8c-0.3-0.1-0.8-0.3-0.9-0.6
			c-0.6-1.2-1-2.5-1.5-3.8c-0.3-0.8-0.6-1.5-0.8-2.3c-0.3-1.1-0.6-2.2-0.8-3.3c-0.3-1.7-0.8-3.3-1.8-4.7c-0.4-0.6-0.8-1.1-1-1.7
			c-0.5-1.2-1.5-1.9-2.8-2.3c-0.5-0.2-0.9-0.3-1.4-0.5c-0.7-0.4-1.2-0.8-1-1.7c0.2-0.8,0.7-1.1,1.7-1.1
			C313.1,11.1,313.1,11.1,313.1,11.2z M328.7,15.4c-0.1-0.3-0.1-0.6-0.2-0.9c-0.6-1-2.9-1.7-4-1.2c-2.1,1-2.8,2.1-2.6,4.5
			c0,0.2,0,0.4,0,0.6c0.1,1.8,0.9,3.1,2.4,4c0.5,0.3,1.4,0.2,1.7-0.1c0.7-0.6,1.1-1.5,1.5-2.4c0.3-0.6,0.4-1.2,0.5-1.8
			C328.3,17.3,328.5,16.4,328.7,15.4z"/>
		<path class="st2" d="M286.1,25c0.8,1.1,1.2,2,0.4,3.1c-1,1.2-1.8,2.6-3,3.7c-1.1,1.1-2.7,1-4.2,0.8c-1.4-0.2-2.7-0.5-4.1-0.6
			c-2.9-0.3-5.2-2.1-6-4.8c-0.2-0.5-0.2-1.2,0-1.7c0.2-0.9,0.1-1.7-0.4-2.4c-1.3-2-1.1-4.1-0.2-6.2c0.9-2,2.3-3.7,4-5.1
			c1-0.8,2.2-1.1,3.4-1.2c2.7-0.2,5.4,0,7.8,1.6c0.5,0.3,0.9,0.8,1.3,1.4c0.5,0.7,1,1.5,1.5,2.2c1.2,1.9,0.8,3.8-0.1,5.7
			c-0.3,0.7-1,0.5-1.6,0.5c-2.3-0.3-4.7-0.6-7-0.1c-0.9,0.2-1.8,0.2-2.7,0.3c-1.2,0.1-2.4,1-2.4,2.2c0,1,0.2,2.1,0.4,3.2
			c0.1,0.3,0.4,0.6,0.7,0.7c0.7,0.1,1,0.4,1.2,1c0.5,1.1,1.2,1.6,2.5,1.6c1.8-0.1,3.6,0.1,5-1.3c0.9-0.9,1.7-1.9,2.5-2.9
			C285.4,25.9,285.7,25.5,286.1,25z M277.3,12.2c-0.4,0.1-0.9,0.1-1.1,0.3c-1.4,1.2-2.4,2.6-2.7,4.4c-0.3,1.6,0.2,2.4,1.8,2.8
			c2.1,0.5,4-0.2,5.9-1.1c0.3-0.2,0.6-0.6,0.6-1C281.7,14.7,280.7,12.4,277.3,12.2z"/>
		<path class="st2" d="M365.6,21.9c-1.4,0.4-2.1-0.3-2.6-1.5c-0.5-1.1-1.1-2.2-1.7-3.3c-0.4-0.7-0.2-1.4,0.1-2
			c0.3-0.6,0.4-1.2,0.8-1.7c0.3-0.5,0.7-1.1,1.2-1.5c0.9-0.6,1.9-1.2,2.9-1.5c1.2-0.4,2.5-0.5,3.7-0.6c0.4,0,0.9,0.2,1.2,0.5
			c1.6,1.4,2.2,1.6,4.1,0.7c1.4-0.6,1.9-0.3,1.8,1.2c-0.1,1.8-0.4,3.5-0.7,5.2c0,0.3-0.1,0.5-0.3,0.7c-0.2,0.2-0.4,0.3-0.7,0.5
			c-0.1-0.2-0.3-0.4-0.4-0.6c-0.5-1.1-0.7-2.4-1.5-3.3c-2-2.5-5.3-3.5-8.3-1.4c-1.1,0.8-0.8,2.8,0.4,3.7c0.1,0.1,0.3,0.2,0.4,0.3
			c2.2,0.8,4.3,1.7,6.5,2.3c1.9,0.6,2.4,0.6,3.7,1.6c1.7,1.2,2.2,3,2,5c-0.1,0.7-0.3,1.4-0.5,2.1c-0.7,2.5-2.5,3.9-4.7,4.8
			c-0.4,0.2-0.9,0.1-1.4,0.1c-0.8,0-1.6-0.1-2.4-0.2c-0.4-0.1-0.9-0.2-1.2-0.4c-1.1-1-2.4-1-3.7-0.5c-0.7,0.3-1.3,0.7-2,1.1
			c-0.4,0.2-0.6,0.2-0.8-0.2c-0.4-0.9-0.6-1.7-0.3-2.8c0.3-1,0.2-2.1,0.3-3.2c0.1-0.8,0-1.6,0.2-2.4c0.1-0.4,0.6-0.8,0.9-1.2
			c0.4,0.3,0.8,0.5,1,0.9c0.5,1.1,0.9,2.2,1.5,3.3c0.3,0.6,0.7,1.2,1.2,1.6c1.2,0.8,2.5,1.5,3.8,2.1c0.3,0.2,0.8,0.1,1.2,0
			c0.6-0.1,1.3-0.3,1.9-0.5c1.9-0.6,3-2.2,2.7-4.2c-0.1-0.4-0.2-0.8-0.5-1c-0.7-0.6-1.4-1.2-2.2-1.5c-2.1-0.7-4.2-1.4-6.3-2
			C366.6,22,366.1,22,365.6,21.9z"/>
		<path class="st2" d="M261.1,17.5c0.4,0.7,0.7,1.2,1,1.6c1.9,2.2,2.1,4.7,1.3,7.4c-0.1,0.4-0.3,0.7-0.3,1.1
			c-0.1,2.3-1.7,3.6-3.4,4.7c-1,0.7-2,0.6-3-0.4c0.7-0.6,1.4-1.2,2.1-1.7c0.5-0.4,1.1-0.8,1.6-1.3c1.1-1.3,0.8-2.3-0.5-3.3
			c-2.3-1.7-4.9-2.1-7.6-2.8c-0.4-0.1-0.9-0.1-1.4-0.2c-1.1-0.2-1.9-0.7-2.5-1.8c-1.3-2.1-1.1-4.3-0.9-6.5c0.1-0.9,0.8-1.7,1.3-2.5
			c0.5-0.7,1-1.2,1.6-1.8c0.3-0.3,0.7-0.5,1.1-0.5c2.2-0.2,4.3-0.1,6.2,1.2c0.8,0.6,1.8,0.4,2.8,0.1c0.7-0.3,1.4-0.7,2.1,0
			c0.7,0.7,0.9,1.5,0.6,2.4c-0.4,1-0.8,2-1.1,2.8c-0.8-0.5-1.5-0.9-2.2-1.3c-0.8-0.5-1.8-0.8-2.4-1.5c-1.1-1.1-2.3-1.2-3.7-0.8
			c-1.1,0.3-2.1,0.5-2.9,1.4c-0.6,0.7-0.5,1.7,0.3,2.2c1.3,0.8,2.7,1.7,4,2.4c1.1,0.6,2.3,0.3,3.4-0.1
			C259.4,18.2,260.2,17.9,261.1,17.5z"/>
		<path class="st2" d="M69.9,11.8c0.1,1.2,0.3,2.4,0.2,3.6c0,1.2-0.2,2.5-0.4,3.8c0,0.2-0.1,0.3-0.1,0.5c0,3,0.2,6,1.3,8.8
			c0.3,0.6,0.8,1.1,1.2,1.7c0.7,0.9,0.5,1.5-0.6,1.8c-1.1,0.3-2.3,0.4-3.4-0.2c-0.8-0.4-1.7-0.5-2.6-0.3s-1.9,0.3-2.9,0.3
			c-0.8,0-1.1-0.6-0.5-1.2c0.5-0.6,1.2-1.1,1.8-1.7c0.8-0.7,1.2-1.5,1.1-2.5c-0.1-0.6,0.1-1.2,0.1-1.8c0-0.8-0.1-1.6-0.2-2.4
			c0-0.3-0.1-0.6,0-0.8c0.8-1.5,0.2-3.2,0.6-4.8c0.1-0.2,0-0.6-0.2-0.8c-0.8-1-0.5-2-0.3-3c0.2-0.9,0.2-1.9,0.3-2.9
			c0-0.1,0-0.2-0.1-0.3c-1-0.8-0.9-1.8-0.8-2.9c0-0.4-0.5-0.8-0.8-1.2c-0.5-0.6-1-1-0.7-1.9c0.4-0.9,0.6-1.9,1.9-2.1
			C65.8,1.5,66.6,1,67.4,1c1-0.1,1.8,0.5,2.5,1.2c0.2,0.1,0.3,0.4,0.2,0.6c-0.1,1.5-0.2,3.1-0.3,4.6c-0.1,1.5,0,3,0,4.5
			C69.9,11.8,69.9,11.8,69.9,11.8z"/>
		<path class="st2" d="M300.7,31c-0.8,1.2-1.8,1-2.7,1c-2.2,0.1-4.5-0.1-6.8-0.2c-0.2,0-0.6-0.4-0.6-0.7c-0.1-0.3,0.1-0.7,0.3-1
			c0.8-1.4,1.6-2.7,2.3-4.1c0.2-0.5,0.1-1.1,0.1-1.7c0-0.5-0.2-1.1-0.1-1.6c0.6-1.9,0.4-3.8,0.3-5.8c-0.1-0.8-0.1-1.8-0.5-2.5
			c-0.3-0.8-1-1.4-1.6-2c-0.3-0.3-0.8-0.8-0.7-1c0.2-0.4,0.7-0.9,1.1-0.9c2.1,0.1,4.3-0.8,6.3,0.4c0.9,0.6,1.8,0.4,2.8,0
			c1-0.5,2.1-0.7,3.2-1c0.3-0.1,0.8,0.2,1.1,0.3c0.8,0.4,1.6,0.8,2.4,1.2c0.3,0.2,0.7,0.7,0.6,0.9c-0.2,1.2-0.5,2.4-0.9,3.5
			c-0.3,0.8-1,1.1-1.9,0.7c-1.1-0.5-2.1-1.2-3.1-1.9c-1.6-1.1-3.6-0.4-4.1,1.5c-0.1,0.6-0.2,1.1-0.2,1.7c0,2.2,0.1,4.3-0.4,6.5
			c-0.3,1.2-0.3,2.5-0.1,3.7c0.1,0.5,0.7,1.1,1.2,1.5C299.3,30.2,300,30.6,300.7,31z"/>
		<path class="st2" d="M113,3.1c-0.2,0.8-0.3,1.5-0.5,2.2c-0.5,2-0.7,4-0.2,6.1c0.7,2.6,0.6,5.3,0.5,8c-0.1,1.5-0.1,3,0.1,4.5
			c0.1,1,0.5,1.9,0.4,3.1c-0.1,0.7,0.6,1.5,1,2.1c0.3,0.4,0.7,0.8,1,1.2c0.5,0.8,0.3,1.4-0.6,1.6c-1,0.2-2.1,0.3-3.2,0.3
			c-1.9-0.1-3.8-0.2-5.7-0.4c-0.3,0-0.7-0.3-0.9-0.5c-0.1-0.2,0.1-0.6,0.3-0.9c0.2-0.3,0.5-0.5,0.8-0.6c1.8-0.7,2.3-1.6,2.3-3.5
			c0-1.6,0.1-3.1,0.2-4.6c0.1-1,0.2-2,0.2-3c0-2.9,0-5.8,0-8.7c0-0.4-0.1-0.8-0.3-1.2c-0.4-1.1-0.9-2.1-1.3-3.2
			c-0.3-0.8-0.8-1.4-1.5-1.7c-0.2-0.1-0.5-0.2-0.7-0.4c-0.2-0.3-0.5-0.7-0.5-1c0-0.2,0.5-0.5,0.8-0.6c0.6-0.1,1.3-0.1,1.9-0.2
			c0.7-0.2,1.3-0.4,2-0.6c1.3-0.5,2.7-0.3,3.5,0.9C112.8,2.3,112.8,2.7,113,3.1z"/>
		<path class="st2" d="M127.7,17c-0.3,1.8-0.7,3.7-1,5.5c-0.1,0.4,0,0.9,0.1,1.3c0.2,0.8,0.5,1.6,0.6,2.5c0.1,1.2,0.2,2.3,1.4,3.1
			c0.9,0.5,1,1.4,0.7,1.9c-0.4,0.7-1.6,1.2-2.4,0.9c-0.3-0.1-0.5-0.2-0.7-0.4c-0.5-0.3-0.9-0.3-1.4,0c-1.2,0.8-2.5,0.7-3.4-0.4
			c-0.3-0.4-0.4-1.3-0.2-1.9c1-3,0.8-6.1,0.6-9.2c-0.1-1.3-0.1-2.5-0.2-3.8c-0.1-0.6-0.4-1.2-0.6-1.9c-0.1-0.3-0.3-0.7-0.2-0.9
			c0.3-0.9-0.2-1.2-0.9-1.5c-0.2-0.1-0.5-0.2-0.7-0.3c-0.5-0.2-0.7-0.4-0.6-1c0.1-0.5,0.4-0.9,0.9-0.8c0.7,0.1,1.4,0.1,1.9,0.4
			c1,0.6,2,0.5,3.1,0.3c1.5-0.2,2.4,0.5,2.5,2c0.1,1.3,0,2.7,0,4C127.5,17,127.6,17,127.7,17z"/>
		<path class="st2" d="M54.5,17.9c-0.2,1.6-0.4,3-0.5,4.4c0,0.3,0,0.7,0.1,1c0.5,1.4,0.5,2.8,0.3,4.2c-0.1,0.4,0.2,0.8,0.5,1.1
			c0.4,0.4,0.9,0.7,1.4,1.1c0.7,0.5,0.8,1,0.3,1.7c-0.7,1-1.7,0.9-2.8,0.9c-1.7,0-3.5,0.1-5.2,0.1c-0.4,0-0.9,0-1.2-0.2
			c-0.7-0.5-0.7-0.7,0-1.3c0.2-0.2,0.4-0.4,0.5-0.7c0.4-1.1,0.6-2.3,1-3.4c0.7-1.8,0.8-3.7,1-5.7c0.2-1.9-0.2-3.7-0.4-5.5
			c-0.1-0.9-0.5-1.7-1.2-2.3c-0.5-0.4-1-0.9-1.4-1.5c-0.2-0.2-0.1-0.6,0-0.9c0-0.1,0.5-0.1,0.7,0c1,0.3,2,0.3,3-0.2
			c1.7-0.8,3.1,0,3.4,1.8C54.1,14.4,54.3,16.2,54.5,17.9z"/>
		<path class="st2" d="M143.2,57c0-2.4,0-4.9,0-7.4c0.7,0,1.2,0,1.9,0c0,4.1,0,8.2,0,12.3c-0.7-0.1-1.3,0-2-0.2
			c-0.2-0.1-0.5-0.4-0.6-0.7c-1-2.4-2-4.8-3-7.2c-0.1-0.3-0.3-0.5-0.4-0.8c-0.1,0-0.2,0.1-0.2,0.1c0,0.3-0.1,0.6-0.1,0.9
			c0,2.4,0,4.8,0,7.1c0,0.8-0.4,0.8-1,0.8c-0.6,0-1,0.1-1-0.8c0-3.6,0-7.3,0-10.9c0-0.5,0.1-0.8,0.7-0.8c2.1,0,2.1-0.1,2.9,1.9
			c0.7,1.7,1.3,3.3,2,5c0.1,0.3,0.3,0.5,0.4,0.7C143,57,143.1,57,143.2,57z"/>
		<path class="st2" d="M253.1,61.9c-0.9,0-1.6,0.1-2.3,0c-0.2,0-0.4-0.3-0.5-0.6c-0.4-1-0.7-2.1-1.1-3.2c-0.4-1.2-0.5-1.2-2-1
			c0,1.2-0.1,2.4,0,3.7c0.1,0.8-0.2,1.1-1,1.1c-1.6-0.1-1.5,0.3-1.5-1.5c0-3.3,0-6.6,0-9.9c0-0.3,0-0.6,0-1.1
			c1.9,0.1,3.8,0.1,5.6,0.3c1.2,0.1,1.9,1.1,2.1,2.2c0.4,1.6,0.2,3.2-1.1,4.4c-0.2,0.2-0.2,0.7-0.1,0.9
			C251.7,58.7,252.4,60.2,253.1,61.9z M247.2,53.1L247.2,53.1c0,0.4,0,0.9,0,1.3c0,0.2,0.3,0.5,0.4,0.5c0.7-0.1,1.5-0.2,2.1-0.5
			c0.7-0.5,0.6-1.4,0.3-2.2c-0.3-0.8-1.1-1.2-2.3-1c-0.9,0.2-0.3,0.9-0.5,1.4C247.2,52.8,247.2,53,247.2,53.1z"/>
		<path class="st2" d="M167.2,61.9c-0.9-0.2-0.9-0.2-1.2-1.2c-0.1,0-0.3,0-0.4,0.1c-2.7,2.6-6.3,0.7-6.9-2.4
			c-0.4-1.9-0.4-3.8,0.2-5.7c0.8-2.4,1.9-3.2,4.4-3.2c2.3,0,3.7,1.4,3.7,3.8c-0.4,0.1-0.7,0.2-1.1,0.2c-0.6,0.1-1,0.1-1.1-0.7
			c-0.1-0.9-0.9-1.5-1.7-1.5c-0.9,0-1.8,0.8-1.9,1.9c-0.1,1.7-0.1,3.3,0,5c0,0.5,0.4,1.1,0.8,1.5c0.6,0.6,1.4,0.6,2.1,0.2
			c0.6-0.3,1.2-1.6,0.9-2.1c-0.1-0.2-0.5-0.3-0.8-0.4c-0.3-0.1-0.9-0.2-0.9-0.3c-0.1-0.5,0-1.1,0-1.6c0-0.1,0.2-0.2,0.4-0.2
			c1,0,2.1,0,3.1,0c0.2,0,0.5,0.3,0.5,0.5C167.3,57.8,167.2,59.8,167.2,61.9z"/>
		<path class="st2" d="M222.4,55.7c0.3-1.4,0.4-2.8,0.9-4.1c0.6-1.7,2.1-2.2,3.7-2.3c1.7,0,3,0.9,3.5,2.5c0.9,2.6,0.9,5.3-0.1,7.9
			c-0.5,1.3-1.6,2-3,2.2c-1.6,0.2-3-0.2-4-1.6c-0.8-1.1-1-2.1-1-4.5C222.6,55.8,222.5,55.8,222.4,55.7z M225,55.7
			c0.1,1.1,0.2,2.1,0.4,3.1c0.2,0.8,0.6,1.3,1.5,1.3c0.8,0,1.3-0.6,1.5-1.4c0.4-2,0.4-4.1,0-6.1c-0.2-0.7-0.6-1.3-1.4-1.3
			c-0.9-0.1-1.4,0.5-1.5,1.2C225.3,53.6,225.2,54.6,225,55.7z"/>
		<path class="st2" d="M266.2,49.5c2.4,0,4.8,0,7.1,0c0.1,0.1,0.1,0.2,0.1,0.3c0.1,1.7,0.1,1.7-1.6,1.7c-1,0-2,0-3.1,0
			c0,1.1,0,2,0,3.1c1.2,0,2.3,0,3.4,0c0.1,0.1,0.1,0.2,0.2,0.2c0.2,1.9,0.2,1.9-1.7,1.9c-0.6,0-1.1,0-1.8,0c0,1.1,0,2.1,0,3.3
			c1.5,0,3,0,4.6,0c0,0.7,0,1.2,0,2c-0.6,0-1.1,0-1.7,0c-1.6,0-3.2,0-4.8,0c-0.5,0-0.7-0.1-0.7-0.6
			C266.2,57.4,266.2,53.5,266.2,49.5z"/>
		<path class="st2" d="M202.1,49.4c2,0.1,3.8,0.1,5.6,0.3c1.2,0.2,2,1.1,2.2,2.3c0.2,0.8,0.1,1.7,0,2.5c-0.3,1.7-1.4,2.5-3.4,2.6
			c-2.2,0.1-1.9-0.1-2,2c0,0.6-0.1,1.2,0,1.7c0.1,0.6-0.2,0.9-0.8,0.9c-0.1,0-0.2,0-0.4,0c-1.4,0.1-1.4,0.1-1.4-1.3
			c0-3.3,0-6.7,0-10C202.1,50.2,202.1,49.9,202.1,49.4z M204.6,53.1L204.6,53.1c0,0.4,0,0.9,0,1.3c0,0.6,0.2,0.8,0.8,0.8
			c0.7-0.1,1.5-0.1,1.8-0.9c0.4-0.8,0.4-1.7-0.2-2.5c-0.5-0.7-1.4-0.7-2.1-0.5c-0.2,0.1-0.3,0.8-0.4,1.2
			C204.6,52.8,204.6,52.9,204.6,53.1z"/>
		<path class="st2" d="M105.3,52.7c-0.4-0.9-1-1.5-2-1.4c-0.7,0-1.2,0.4-1.4,1c-0.2,0.6,0.1,1.1,0.7,1.4c0.7,0.4,1.5,0.7,2.3,1
			c1.6,0.7,2.8,1.9,2.3,4.5c-0.1,0.4-0.3,0.9-0.5,1.2c-1.2,1.9-6,2.3-7.3-0.7c-0.3-0.6-0.3-0.9,0.5-1.1c0.8-0.2,1.3-0.4,1.7,0.5
			c0.4,0.9,1.5,1.2,2.4,0.7c0.4-0.2,0.8-0.6,0.9-1c0.2-0.6,0-1.2-0.6-1.5c-0.7-0.4-1.5-0.7-2.3-1c-2.7-0.9-3.2-4.5-1.2-6.2
			c1.7-1.5,4.8-1,6,0.8c0.4,0.6,0.4,1-0.4,1.2C106.1,52.4,105.7,52.5,105.3,52.7z"/>
		<path class="st2" d="M179.9,61.8c1-3.4,1.9-6.6,2.9-9.7c0.1-0.1,0.1-0.3,0.1-0.4c0.6-2.2,0.6-2.2,3.1-2.1c1.1,4,2.2,8,3.4,12.2
			c-0.8,0-1.6,0.1-2.2-0.1c-0.2-0.1-0.4-0.7-0.5-1.1c-0.1-0.9-0.5-1.4-1.5-1.2c-0.2,0-0.4,0-0.5,0c-1.9,0-1.9,0-2.5,1.8
			c-0.1,0.3-0.5,0.6-0.8,0.6C181,61.9,180.5,61.8,179.9,61.8z M184.7,52.3c-0.1,0-0.2,0-0.4,0c-0.4,1.5-0.7,3.1-1,4.6
			c0,0.1,0.2,0.5,0.3,0.5c0.7,0.1,1.5,0,2.3,0C185.5,55.5,185.1,53.9,184.7,52.3z"/>
		<path class="st2" d="M124.9,0.5c0.9,0.2,2.9,1.4,3,2.2c0.1,1.2,0,2.5-0.9,3.6c-0.9,0.9-1.8,1.7-3.2,1.2c-0.3-0.1-0.8-0.3-0.9-0.6
			c-0.6-1-1.3-2-1.8-3.1c-0.4-1-0.1-1.7,0.8-2.2S123.9,0.9,124.9,0.5z"/>
		<path class="st2" d="M123.1,49.5c0,0.4,0.1,0.6,0.1,0.8c0,3.6,0,7.1,0,10.7c0,0.7-0.2,0.9-0.9,0.9c-1.9-0.1-1.6,0.2-1.6-1.6
			c0-3.3,0-6.6,0-9.8c0-0.8,0.2-1.1,1-1C122.1,49.5,122.6,49.5,123.1,49.5z"/>
		<path class="st2" d="M48.3,4.7c0-1.2,1.3-2.4,2.6-2.4c1.7,0,3,1.6,3,3.4c0,0.9-1.6,2.4-2.5,2.4C49.3,8,48.4,7,48.3,4.7z"/>
		<path class="st2" d="M254.5,32.2c-0.2-0.1-0.5-0.1-0.7-0.2c-1.3-0.6-2.6-0.9-4-0.8c-0.7,0.1-1.1-0.3-1.4-0.9
			c-0.8-1.5-0.9-3.1-0.8-4.7c0-0.3,0.4-0.6,0.7-0.7c0.2-0.1,0.6,0.3,0.7,0.5c0.5,0.9,0.8,1.9,1.3,2.8c0.8,1.4,2.2,2.1,3.5,2.9
			C254.3,31.4,254.8,31.5,254.5,32.2z"/>
	</g>
</g>
</svg>
